G04 #@! TF.GenerationSoftware,KiCad,Pcbnew,(5.0.0-rc2-dev-444-g2974a2c10)*
G04 #@! TF.CreationDate,2019-11-01T17:22:56-07:00*
G04 #@! TF.ProjectId,EURO Dual 12-bit DAC-10V,4555524F204475616C2031322D626974,v01*
G04 #@! TF.SameCoordinates,Original*
G04 #@! TF.FileFunction,Copper,L1,Top,Signal*
G04 #@! TF.FilePolarity,Positive*
%FSLAX46Y46*%
G04 Gerber Fmt 4.6, Leading zero omitted, Abs format (unit mm)*
G04 Created by KiCad (PCBNEW (5.0.0-rc2-dev-444-g2974a2c10)) date 11/01/19 17:22:56*
%MOMM*%
%LPD*%
G01*
G04 APERTURE LIST*
%ADD10R,0.350000X0.800000*%
%ADD11R,1.000000X3.500000*%
%ADD12R,1.500000X3.400000*%
%ADD13R,1.550000X0.600000*%
%ADD14R,0.650000X1.560000*%
%ADD15R,1.600000X1.200000*%
%ADD16R,1.250000X1.000000*%
%ADD17R,2.000000X0.900000*%
%ADD18R,0.700000X1.300000*%
%ADD19R,1.300000X0.700000*%
%ADD20R,2.510000X1.000000*%
%ADD21C,0.685800*%
%ADD22C,0.152400*%
%ADD23C,0.254000*%
G04 APERTURE END LIST*
D10*
X87200000Y-84850000D03*
X87875000Y-84850000D03*
X88525000Y-84850000D03*
X89175000Y-84850000D03*
X89175000Y-82750000D03*
X88525000Y-82750000D03*
X87875000Y-82750000D03*
X87225000Y-82750000D03*
D11*
X95500000Y-76375000D03*
X93500000Y-76375000D03*
X91500000Y-76375000D03*
X89500000Y-76375000D03*
D12*
X97850000Y-70625000D03*
X87150000Y-70625000D03*
D13*
X95395433Y-106288050D03*
X95395433Y-107558050D03*
X95395433Y-108828050D03*
X95395433Y-110098050D03*
X89995433Y-110098050D03*
X89995433Y-108828050D03*
X89995433Y-107558050D03*
X89995433Y-106288050D03*
D14*
X88000000Y-98650000D03*
X87050000Y-98650000D03*
X88950000Y-98650000D03*
X88950000Y-101350000D03*
X88000000Y-101350000D03*
X87050000Y-101350000D03*
X97000000Y-98650000D03*
X96050000Y-98650000D03*
X97950000Y-98650000D03*
X97950000Y-101350000D03*
X97000000Y-101350000D03*
X96050000Y-101350000D03*
D15*
X92500000Y-51700000D03*
X92500000Y-54900000D03*
D16*
X96300000Y-86600000D03*
X96300000Y-88600000D03*
X93925000Y-82400000D03*
X93925000Y-84400000D03*
X96300000Y-82400000D03*
X96300000Y-84400000D03*
D17*
X92025000Y-92100000D03*
X92025000Y-90500000D03*
D18*
X96550000Y-91800000D03*
X94650000Y-91800000D03*
D19*
X91500000Y-86450000D03*
X91500000Y-88350000D03*
X91520000Y-84150000D03*
X91520000Y-82250000D03*
X93900000Y-86450000D03*
X93900000Y-88350000D03*
D14*
X88200000Y-88950000D03*
X87250000Y-88950000D03*
X89150000Y-88950000D03*
X89150000Y-91650000D03*
X88200000Y-91650000D03*
X87250000Y-91650000D03*
D20*
X90805000Y-115730000D03*
X87495000Y-118270000D03*
X97905000Y-115730000D03*
X94595000Y-118270000D03*
D18*
X89700000Y-112500000D03*
X87800000Y-112500000D03*
D19*
X87250000Y-106862050D03*
X87250000Y-108762050D03*
D18*
X97450000Y-112500000D03*
X95550000Y-112500000D03*
D19*
X98000000Y-108762050D03*
X98000000Y-106862050D03*
D18*
X95550000Y-95500000D03*
X97450000Y-95500000D03*
X87550000Y-95500000D03*
X89450000Y-95500000D03*
D19*
X88000000Y-52550000D03*
X88000000Y-54450000D03*
D21*
X98500000Y-41040000D03*
X90500000Y-97250000D03*
X86750000Y-41040000D03*
X95750000Y-69750000D03*
X89250000Y-69750000D03*
X92300000Y-110400000D03*
X96700000Y-105200000D03*
X90678000Y-102489000D03*
X86750000Y-147720000D03*
X98500000Y-147720000D03*
X91200000Y-99300000D03*
X93900000Y-99300000D03*
X96900000Y-103400000D03*
X88600000Y-105200000D03*
X94000000Y-105200000D03*
X90400000Y-92900000D03*
X95000000Y-89900000D03*
X98250000Y-82250000D03*
X98250000Y-103500000D03*
X92500000Y-98500000D03*
X92500000Y-101500000D03*
X92500000Y-72250000D03*
X93000000Y-94750000D03*
X93500000Y-80400000D03*
X92000000Y-95750000D03*
X95500000Y-80400000D03*
X95500000Y-103500000D03*
X87000000Y-57750000D03*
X91300000Y-80400000D03*
X88200000Y-87300000D03*
X95000000Y-85500000D03*
X89408000Y-83820000D03*
X90300000Y-89900000D03*
X88597600Y-80400000D03*
D22*
X92300000Y-109915067D02*
X92300000Y-110400000D01*
X92300000Y-103626067D02*
X92300000Y-109915067D01*
X91162933Y-102489000D02*
X92300000Y-103626067D01*
X90678000Y-102489000D02*
X91162933Y-102489000D01*
D23*
X92500000Y-98500000D02*
X92500000Y-98500000D01*
X92500000Y-101500000D02*
X92500000Y-101500000D01*
X92500000Y-72250000D02*
X92500000Y-72250000D01*
D22*
X92350000Y-101350000D02*
X92500000Y-101500000D01*
X88950000Y-101350000D02*
X92350000Y-101350000D01*
X95900000Y-98500000D02*
X96050000Y-98650000D01*
X92500000Y-98500000D02*
X95900000Y-98500000D01*
X87150000Y-94697600D02*
X88246000Y-93601600D01*
X87150000Y-95500000D02*
X87150000Y-94697600D01*
X88246000Y-93601600D02*
X96652400Y-93601600D01*
X97850000Y-94596000D02*
X97850000Y-95500000D01*
X96855600Y-93601600D02*
X97000000Y-93746000D01*
X97000000Y-93746000D02*
X97850000Y-94596000D01*
X98250000Y-101650000D02*
X97950000Y-101350000D01*
X98250000Y-103500000D02*
X98250000Y-101650000D01*
X98250000Y-95100000D02*
X97850000Y-95500000D01*
X98250000Y-82250000D02*
X98250000Y-95100000D01*
X98250000Y-82250000D02*
X98250000Y-83737334D01*
X91500000Y-73250000D02*
X92500000Y-72250000D01*
X91500000Y-76375000D02*
X91500000Y-73250000D01*
X96300000Y-91550000D02*
X96550000Y-91800000D01*
X96300000Y-88600000D02*
X96300000Y-91550000D01*
X96550000Y-93296000D02*
X96855600Y-93601600D01*
X96550000Y-91800000D02*
X96550000Y-93296000D01*
X91125800Y-93601600D02*
X90800000Y-93601600D01*
X92025000Y-92702400D02*
X91125800Y-93601600D01*
X92025000Y-92100000D02*
X92025000Y-92702400D01*
X88246000Y-93601600D02*
X90800000Y-93601600D01*
X90800000Y-93601600D02*
X96855600Y-93601600D01*
X88246000Y-93578400D02*
X88246000Y-93601600D01*
X87250000Y-92582400D02*
X88246000Y-93578400D01*
X87250000Y-91650000D02*
X87250000Y-92582400D01*
X97450000Y-95500000D02*
X97850000Y-95500000D01*
X87150000Y-95500000D02*
X87550000Y-95500000D01*
X97950000Y-98650000D02*
X97950000Y-97450000D01*
X93500000Y-80500000D02*
X93500000Y-80500000D01*
X97750000Y-97250000D02*
X97950000Y-97450000D01*
X92500000Y-97250000D02*
X97750000Y-97250000D01*
X92250000Y-97250000D02*
X92500000Y-97250000D01*
X90850000Y-98650000D02*
X92250000Y-97250000D01*
X88950000Y-98650000D02*
X90850000Y-98650000D01*
X92250000Y-97250000D02*
X93000000Y-96500000D01*
X93000000Y-96500000D02*
X93000000Y-94750000D01*
X93500000Y-80400000D02*
X93500000Y-78200000D01*
X93500000Y-76375000D02*
X93500000Y-78200000D01*
X93500000Y-78200000D02*
X93500000Y-78277400D01*
X93750000Y-95500000D02*
X93000000Y-94750000D01*
X95550000Y-95500000D02*
X93750000Y-95500000D01*
X89850000Y-96302400D02*
X89850000Y-95500000D01*
X89152400Y-97000000D02*
X89850000Y-96302400D01*
X88500000Y-97000000D02*
X89152400Y-97000000D01*
X88000000Y-97500000D02*
X88500000Y-97000000D01*
X88000000Y-98650000D02*
X88000000Y-97500000D01*
X88000000Y-99582400D02*
X88000000Y-98650000D01*
X88417600Y-100000000D02*
X88000000Y-99582400D01*
X96500000Y-100000000D02*
X88417600Y-100000000D01*
X97000000Y-99500000D02*
X96500000Y-100000000D01*
X97000000Y-98650000D02*
X97000000Y-99500000D01*
X95500000Y-80500000D02*
X95500000Y-80500000D01*
X90100000Y-95750000D02*
X89850000Y-95500000D01*
X92000000Y-95750000D02*
X90100000Y-95750000D01*
X95500000Y-79915067D02*
X95500000Y-76375000D01*
X95500000Y-80400000D02*
X95500000Y-79915067D01*
X89850000Y-95500000D02*
X89450000Y-95500000D01*
X89995433Y-107558050D02*
X88754000Y-107558050D01*
X87800000Y-109312050D02*
X87250000Y-108762050D01*
X87800000Y-112500000D02*
X87800000Y-109312050D01*
X87647600Y-107862050D02*
X88450000Y-107862050D01*
X87250000Y-108259650D02*
X87647600Y-107862050D01*
X87250000Y-108762050D02*
X87250000Y-108259650D01*
X88754000Y-107558050D02*
X88450000Y-107862050D01*
X98000000Y-108762050D02*
X98000000Y-109162050D01*
X97934000Y-108828050D02*
X98000000Y-108762050D01*
X95395433Y-108828050D02*
X97934000Y-108828050D01*
X98000000Y-108762050D02*
X98000000Y-111100000D01*
X97450000Y-111650000D02*
X97450000Y-112500000D01*
X98000000Y-111100000D02*
X97450000Y-111650000D01*
X95395433Y-110098050D02*
X93698050Y-110098050D01*
X93071501Y-109471501D02*
X93071501Y-102728499D01*
X93698050Y-110098050D02*
X93071501Y-109471501D01*
X94450000Y-101350000D02*
X96050000Y-101350000D01*
X93071501Y-102728499D02*
X94450000Y-101350000D01*
X87050000Y-101350000D02*
X87050000Y-103050000D01*
X87050000Y-103050000D02*
X87500000Y-103500000D01*
X87500000Y-103500000D02*
X91000000Y-103500000D01*
X91000000Y-103500000D02*
X91500000Y-104000000D01*
X91500000Y-104000000D02*
X91500000Y-108500000D01*
X91171950Y-108828050D02*
X89995433Y-108828050D01*
X91500000Y-108500000D02*
X91171950Y-108828050D01*
X92500000Y-50500000D02*
X92500000Y-51700000D01*
X92250000Y-50250000D02*
X92500000Y-50500000D01*
X88500000Y-50250000D02*
X92250000Y-50250000D01*
X88000000Y-52550000D02*
X88000000Y-50750000D01*
X88000000Y-50750000D02*
X88500000Y-50250000D01*
X86000000Y-115250000D02*
X86480000Y-115730000D01*
X86480000Y-115730000D02*
X90155000Y-115730000D01*
X86480000Y-115730000D02*
X90805000Y-115730000D01*
X86000000Y-107309650D02*
X86000000Y-107800000D01*
X86447600Y-106862050D02*
X86000000Y-107309650D01*
X87250000Y-106862050D02*
X86447600Y-106862050D01*
X86000000Y-107800000D02*
X86000000Y-115250000D01*
X88276000Y-106862050D02*
X88850000Y-106288050D01*
X87250000Y-106862050D02*
X88276000Y-106862050D01*
X89995433Y-106288050D02*
X88850000Y-106288050D01*
X98155000Y-115077600D02*
X99500000Y-113732600D01*
X99500000Y-107159650D02*
X99190350Y-106850000D01*
X99500000Y-113732600D02*
X99500000Y-107159650D01*
X99250000Y-106909650D02*
X99190350Y-106850000D01*
X98155000Y-115480000D02*
X97905000Y-115730000D01*
X98155000Y-115077600D02*
X98155000Y-115480000D01*
X98814450Y-106850000D02*
X99190350Y-106850000D01*
X98802400Y-106862050D02*
X98814450Y-106850000D01*
X98000000Y-106862050D02*
X98802400Y-106862050D01*
X95395433Y-107558050D02*
X97004000Y-107558050D01*
X97700000Y-106862050D02*
X98000000Y-106862050D01*
X97004000Y-107558050D02*
X97700000Y-106862050D01*
D23*
X95500000Y-103500000D02*
X95500000Y-103500000D01*
X87000000Y-57750000D02*
X87000000Y-57750000D01*
D22*
X88000000Y-56750000D02*
X87000000Y-57750000D01*
X88000000Y-54850000D02*
X88000000Y-56750000D01*
X95500000Y-106183483D02*
X95395433Y-106288050D01*
X95500000Y-103500000D02*
X95500000Y-106183483D01*
X96300000Y-82400000D02*
X93925000Y-82400000D01*
X91670000Y-82400000D02*
X91520000Y-82250000D01*
X93925000Y-82400000D02*
X91670000Y-82400000D01*
X89175000Y-81525000D02*
X89175000Y-82250000D01*
X89600000Y-81100000D02*
X89175000Y-81525000D01*
X91084933Y-81100000D02*
X89800000Y-81100000D01*
X91300000Y-80884933D02*
X91084933Y-81100000D01*
X91300000Y-80400000D02*
X91300000Y-80884933D01*
X89800000Y-81100000D02*
X89600000Y-81100000D01*
X91520000Y-81747600D02*
X91520000Y-82250000D01*
X91520000Y-81420000D02*
X91520000Y-81747600D01*
X89800000Y-81100000D02*
X91200000Y-81100000D01*
X91200000Y-81100000D02*
X91520000Y-81420000D01*
X88000000Y-54850000D02*
X88000000Y-54450000D01*
X89175000Y-81525000D02*
X89175000Y-82750000D01*
X88525000Y-82750000D02*
X88525000Y-81528000D01*
X88953000Y-81100000D02*
X89535000Y-81100000D01*
X88525000Y-81528000D02*
X88953000Y-81100000D01*
X89100000Y-81100000D02*
X89535000Y-81100000D01*
X89535000Y-81100000D02*
X89600000Y-81100000D01*
X93900000Y-84425000D02*
X93925000Y-84400000D01*
X93900000Y-86450000D02*
X93900000Y-84425000D01*
X91770000Y-84400000D02*
X91520000Y-84150000D01*
X93925000Y-84400000D02*
X91770000Y-84400000D01*
X88200000Y-88950000D02*
X88200000Y-88017600D01*
X88200000Y-88017600D02*
X88200000Y-87300000D01*
X88200000Y-87300000D02*
X88200000Y-87300000D01*
X93925000Y-85052400D02*
X94372600Y-85500000D01*
X93925000Y-84400000D02*
X93925000Y-85052400D01*
X94372600Y-85500000D02*
X95000000Y-85500000D01*
X95000000Y-85500000D02*
X95000000Y-85500000D01*
X91520000Y-84150000D02*
X90717600Y-84150000D01*
X90387600Y-83820000D02*
X90717600Y-84150000D01*
X89408000Y-83820000D02*
X90387600Y-83820000D01*
X90872600Y-90500000D02*
X90300000Y-89927400D01*
X92025000Y-90500000D02*
X90872600Y-90500000D01*
X87500000Y-80400000D02*
X88597600Y-80400000D01*
X87225000Y-82250000D02*
X87225000Y-80675000D01*
X87225000Y-80675000D02*
X87500000Y-80400000D01*
X87875000Y-80637667D02*
X87875000Y-81772600D01*
X88112667Y-80400000D02*
X87875000Y-80637667D01*
X88597600Y-80400000D02*
X88112667Y-80400000D01*
X87875000Y-82750000D02*
X87875000Y-82169000D01*
X87875000Y-81772600D02*
X87875000Y-82169000D01*
X87875000Y-82169000D02*
X87875000Y-82250000D01*
X87225000Y-82750000D02*
X87225000Y-80675000D01*
X87875000Y-83132822D02*
X87875000Y-82750000D01*
X89027000Y-84284822D02*
X87875000Y-83132822D01*
X89027000Y-84709000D02*
X89027000Y-84284822D01*
X89168000Y-84850000D02*
X89027000Y-84709000D01*
X89175000Y-84850000D02*
X89168000Y-84850000D01*
X89750000Y-91650000D02*
X89150000Y-91650000D01*
X90100000Y-91300000D02*
X89750000Y-91650000D01*
X93647600Y-91300000D02*
X90100000Y-91300000D01*
X94650000Y-91800000D02*
X94147600Y-91800000D01*
X94147600Y-91800000D02*
X93647600Y-91300000D01*
X89750000Y-88350000D02*
X89150000Y-88950000D01*
X91500000Y-88350000D02*
X89750000Y-88350000D01*
X89150000Y-88017600D02*
X89200000Y-87967600D01*
X89150000Y-88950000D02*
X89150000Y-88017600D01*
X89200000Y-87967600D02*
X89200000Y-86700000D01*
X89200000Y-86700000D02*
X89000000Y-86500000D01*
X89000000Y-86500000D02*
X88200000Y-86500000D01*
X87875000Y-86175000D02*
X87875000Y-85350000D01*
X88200000Y-86500000D02*
X87875000Y-86175000D01*
X87875000Y-85350000D02*
X87875000Y-84850000D01*
X87250000Y-88950000D02*
X87250000Y-85375000D01*
X87250000Y-84900000D02*
X87200000Y-84850000D01*
X87250000Y-85375000D02*
X87250000Y-84900000D01*
D23*
G36*
X97127000Y-101223000D02*
X97147000Y-101223000D01*
X97147000Y-101477000D01*
X97127000Y-101477000D01*
X97127000Y-102606250D01*
X97285750Y-102765000D01*
X97451310Y-102765000D01*
X97684699Y-102668327D01*
X97792801Y-102560225D01*
X97792800Y-102933451D01*
X97636307Y-103089944D01*
X97526100Y-103356007D01*
X97526100Y-103643993D01*
X97636307Y-103910056D01*
X97739251Y-104013000D01*
X96010749Y-104013000D01*
X96113693Y-103910056D01*
X96223900Y-103643993D01*
X96223900Y-103356007D01*
X96113693Y-103089944D01*
X95910056Y-102886307D01*
X95643993Y-102776100D01*
X95356007Y-102776100D01*
X95089944Y-102886307D01*
X94886307Y-103089944D01*
X94776100Y-103356007D01*
X94776100Y-103643993D01*
X94886307Y-103910056D01*
X94989251Y-104013000D01*
X93528701Y-104013000D01*
X93528701Y-102917877D01*
X94639379Y-101807200D01*
X95336536Y-101807200D01*
X95336536Y-102130000D01*
X95366106Y-102278659D01*
X95450314Y-102404686D01*
X95576341Y-102488894D01*
X95725000Y-102518464D01*
X96165439Y-102518464D01*
X96315301Y-102668327D01*
X96548690Y-102765000D01*
X96714250Y-102765000D01*
X96873000Y-102606250D01*
X96873000Y-101477000D01*
X96853000Y-101477000D01*
X96853000Y-101223000D01*
X96873000Y-101223000D01*
X96873000Y-101203000D01*
X97127000Y-101203000D01*
X97127000Y-101223000D01*
X97127000Y-101223000D01*
G37*
X97127000Y-101223000D02*
X97147000Y-101223000D01*
X97147000Y-101477000D01*
X97127000Y-101477000D01*
X97127000Y-102606250D01*
X97285750Y-102765000D01*
X97451310Y-102765000D01*
X97684699Y-102668327D01*
X97792801Y-102560225D01*
X97792800Y-102933451D01*
X97636307Y-103089944D01*
X97526100Y-103356007D01*
X97526100Y-103643993D01*
X97636307Y-103910056D01*
X97739251Y-104013000D01*
X96010749Y-104013000D01*
X96113693Y-103910056D01*
X96223900Y-103643993D01*
X96223900Y-103356007D01*
X96113693Y-103089944D01*
X95910056Y-102886307D01*
X95643993Y-102776100D01*
X95356007Y-102776100D01*
X95089944Y-102886307D01*
X94886307Y-103089944D01*
X94776100Y-103356007D01*
X94776100Y-103643993D01*
X94886307Y-103910056D01*
X94989251Y-104013000D01*
X93528701Y-104013000D01*
X93528701Y-102917877D01*
X94639379Y-101807200D01*
X95336536Y-101807200D01*
X95336536Y-102130000D01*
X95366106Y-102278659D01*
X95450314Y-102404686D01*
X95576341Y-102488894D01*
X95725000Y-102518464D01*
X96165439Y-102518464D01*
X96315301Y-102668327D01*
X96548690Y-102765000D01*
X96714250Y-102765000D01*
X96873000Y-102606250D01*
X96873000Y-101477000D01*
X96853000Y-101477000D01*
X96853000Y-101223000D01*
X96873000Y-101223000D01*
X96873000Y-101203000D01*
X97127000Y-101203000D01*
X97127000Y-101223000D01*
G36*
X95336536Y-100570000D02*
X95336536Y-100892800D01*
X94495030Y-100892800D01*
X94450000Y-100883843D01*
X94404970Y-100892800D01*
X94271609Y-100919327D01*
X94120377Y-101020377D01*
X94094870Y-101058551D01*
X92780053Y-102373369D01*
X92741879Y-102398876D01*
X92716372Y-102437050D01*
X92716371Y-102437051D01*
X92640828Y-102550109D01*
X92605344Y-102728499D01*
X92614302Y-102773534D01*
X92614302Y-104013000D01*
X91963571Y-104013000D01*
X91966157Y-104000000D01*
X91930673Y-103821609D01*
X91855130Y-103708551D01*
X91829623Y-103670377D01*
X91791449Y-103644870D01*
X91355132Y-103208554D01*
X91329623Y-103170377D01*
X91178391Y-103069327D01*
X91045030Y-103042800D01*
X91000000Y-103033843D01*
X90954970Y-103042800D01*
X87689379Y-103042800D01*
X87507200Y-102860622D01*
X87507200Y-102747814D01*
X87548690Y-102765000D01*
X87714250Y-102765000D01*
X87873000Y-102606250D01*
X87873000Y-101477000D01*
X87853000Y-101477000D01*
X87853000Y-101223000D01*
X87873000Y-101223000D01*
X87873000Y-101203000D01*
X88127000Y-101203000D01*
X88127000Y-101223000D01*
X88147000Y-101223000D01*
X88147000Y-101477000D01*
X88127000Y-101477000D01*
X88127000Y-102606250D01*
X88285750Y-102765000D01*
X88451310Y-102765000D01*
X88684699Y-102668327D01*
X88834561Y-102518464D01*
X89275000Y-102518464D01*
X89423659Y-102488894D01*
X89549686Y-102404686D01*
X89633894Y-102278659D01*
X89663464Y-102130000D01*
X89663464Y-101807200D01*
X91843703Y-101807200D01*
X91886307Y-101910056D01*
X92089944Y-102113693D01*
X92356007Y-102223900D01*
X92643993Y-102223900D01*
X92910056Y-102113693D01*
X93113693Y-101910056D01*
X93223900Y-101643993D01*
X93223900Y-101356007D01*
X93113693Y-101089944D01*
X92910056Y-100886307D01*
X92643993Y-100776100D01*
X92356007Y-100776100D01*
X92089944Y-100886307D01*
X92083451Y-100892800D01*
X89663464Y-100892800D01*
X89663464Y-100570000D01*
X89641027Y-100457200D01*
X95358973Y-100457200D01*
X95336536Y-100570000D01*
X95336536Y-100570000D01*
G37*
X95336536Y-100570000D02*
X95336536Y-100892800D01*
X94495030Y-100892800D01*
X94450000Y-100883843D01*
X94404970Y-100892800D01*
X94271609Y-100919327D01*
X94120377Y-101020377D01*
X94094870Y-101058551D01*
X92780053Y-102373369D01*
X92741879Y-102398876D01*
X92716372Y-102437050D01*
X92716371Y-102437051D01*
X92640828Y-102550109D01*
X92605344Y-102728499D01*
X92614302Y-102773534D01*
X92614302Y-104013000D01*
X91963571Y-104013000D01*
X91966157Y-104000000D01*
X91930673Y-103821609D01*
X91855130Y-103708551D01*
X91829623Y-103670377D01*
X91791449Y-103644870D01*
X91355132Y-103208554D01*
X91329623Y-103170377D01*
X91178391Y-103069327D01*
X91045030Y-103042800D01*
X91000000Y-103033843D01*
X90954970Y-103042800D01*
X87689379Y-103042800D01*
X87507200Y-102860622D01*
X87507200Y-102747814D01*
X87548690Y-102765000D01*
X87714250Y-102765000D01*
X87873000Y-102606250D01*
X87873000Y-101477000D01*
X87853000Y-101477000D01*
X87853000Y-101223000D01*
X87873000Y-101223000D01*
X87873000Y-101203000D01*
X88127000Y-101203000D01*
X88127000Y-101223000D01*
X88147000Y-101223000D01*
X88147000Y-101477000D01*
X88127000Y-101477000D01*
X88127000Y-102606250D01*
X88285750Y-102765000D01*
X88451310Y-102765000D01*
X88684699Y-102668327D01*
X88834561Y-102518464D01*
X89275000Y-102518464D01*
X89423659Y-102488894D01*
X89549686Y-102404686D01*
X89633894Y-102278659D01*
X89663464Y-102130000D01*
X89663464Y-101807200D01*
X91843703Y-101807200D01*
X91886307Y-101910056D01*
X92089944Y-102113693D01*
X92356007Y-102223900D01*
X92643993Y-102223900D01*
X92910056Y-102113693D01*
X93113693Y-101910056D01*
X93223900Y-101643993D01*
X93223900Y-101356007D01*
X93113693Y-101089944D01*
X92910056Y-100886307D01*
X92643993Y-100776100D01*
X92356007Y-100776100D01*
X92089944Y-100886307D01*
X92083451Y-100892800D01*
X89663464Y-100892800D01*
X89663464Y-100570000D01*
X89641027Y-100457200D01*
X95358973Y-100457200D01*
X95336536Y-100570000D01*
G36*
X99568000Y-40692606D02*
X99568000Y-103452394D01*
X99007394Y-104013000D01*
X98760749Y-104013000D01*
X98863693Y-103910056D01*
X98973900Y-103643993D01*
X98973900Y-103356007D01*
X98863693Y-103089944D01*
X98707200Y-102933451D01*
X98707200Y-101695029D01*
X98716157Y-101649999D01*
X98680673Y-101471609D01*
X98663464Y-101445854D01*
X98663464Y-100570000D01*
X98633894Y-100421341D01*
X98549686Y-100295314D01*
X98423659Y-100211106D01*
X98275000Y-100181536D01*
X97834561Y-100181536D01*
X97684699Y-100031673D01*
X97451310Y-99935000D01*
X97285750Y-99935000D01*
X97127002Y-100093748D01*
X97127002Y-100019576D01*
X97291448Y-99855130D01*
X97329623Y-99829623D01*
X97338931Y-99815693D01*
X97473659Y-99788894D01*
X97475000Y-99787998D01*
X97476341Y-99788894D01*
X97625000Y-99818464D01*
X98275000Y-99818464D01*
X98423659Y-99788894D01*
X98549686Y-99704686D01*
X98633894Y-99578659D01*
X98663464Y-99430000D01*
X98663464Y-97870000D01*
X98633894Y-97721341D01*
X98549686Y-97595314D01*
X98423659Y-97511106D01*
X98407200Y-97507832D01*
X98407200Y-97495030D01*
X98416157Y-97450000D01*
X98380673Y-97271609D01*
X98366234Y-97250000D01*
X98279623Y-97120377D01*
X98241444Y-97094866D01*
X98105133Y-96958555D01*
X98079623Y-96920377D01*
X97928391Y-96819327D01*
X97795030Y-96792800D01*
X97750000Y-96783843D01*
X97704970Y-96792800D01*
X93354227Y-96792800D01*
X93430673Y-96678391D01*
X93457200Y-96545030D01*
X93457200Y-96545029D01*
X93466157Y-96500001D01*
X93457200Y-96454971D01*
X93457200Y-95854227D01*
X93458551Y-95855130D01*
X93571609Y-95930673D01*
X93749999Y-95966157D01*
X93795029Y-95957200D01*
X94811536Y-95957200D01*
X94811536Y-96150000D01*
X94841106Y-96298659D01*
X94925314Y-96424686D01*
X95051341Y-96508894D01*
X95200000Y-96538464D01*
X95900000Y-96538464D01*
X96048659Y-96508894D01*
X96174686Y-96424686D01*
X96258894Y-96298659D01*
X96288464Y-96150000D01*
X96288464Y-94850000D01*
X96258894Y-94701341D01*
X96174686Y-94575314D01*
X96048659Y-94491106D01*
X95900000Y-94461536D01*
X95200000Y-94461536D01*
X95051341Y-94491106D01*
X94925314Y-94575314D01*
X94841106Y-94701341D01*
X94811536Y-94850000D01*
X94811536Y-95042800D01*
X93939379Y-95042800D01*
X93723900Y-94827321D01*
X93723900Y-94606007D01*
X93613693Y-94339944D01*
X93410056Y-94136307D01*
X93222938Y-94058800D01*
X96666222Y-94058800D01*
X97074108Y-94466686D01*
X96951341Y-94491106D01*
X96825314Y-94575314D01*
X96741106Y-94701341D01*
X96711536Y-94850000D01*
X96711536Y-96150000D01*
X96741106Y-96298659D01*
X96825314Y-96424686D01*
X96951341Y-96508894D01*
X97100000Y-96538464D01*
X97800000Y-96538464D01*
X97948659Y-96508894D01*
X98074686Y-96424686D01*
X98158894Y-96298659D01*
X98188464Y-96150000D01*
X98188464Y-95816392D01*
X98205132Y-95791446D01*
X98541446Y-95455132D01*
X98579623Y-95429623D01*
X98680673Y-95278391D01*
X98707200Y-95145030D01*
X98716157Y-95100001D01*
X98707200Y-95054972D01*
X98707200Y-82816549D01*
X98863693Y-82660056D01*
X98973900Y-82393993D01*
X98973900Y-82106007D01*
X98863693Y-81839944D01*
X98660056Y-81636307D01*
X98393993Y-81526100D01*
X98106007Y-81526100D01*
X97839944Y-81636307D01*
X97636307Y-81839944D01*
X97526100Y-82106007D01*
X97526100Y-82393993D01*
X97636307Y-82660056D01*
X97792800Y-82816549D01*
X97792801Y-93892223D01*
X97291448Y-93390870D01*
X97291446Y-93390869D01*
X97210733Y-93310155D01*
X97185223Y-93271977D01*
X97147046Y-93246468D01*
X97007200Y-93106622D01*
X97007200Y-92817141D01*
X97048659Y-92808894D01*
X97174686Y-92724686D01*
X97258894Y-92598659D01*
X97288464Y-92450000D01*
X97288464Y-91150000D01*
X97258894Y-91001341D01*
X97174686Y-90875314D01*
X97048659Y-90791106D01*
X96900000Y-90761536D01*
X96757200Y-90761536D01*
X96757200Y-89488464D01*
X96925000Y-89488464D01*
X97073659Y-89458894D01*
X97199686Y-89374686D01*
X97283894Y-89248659D01*
X97313464Y-89100000D01*
X97313464Y-88100000D01*
X97283894Y-87951341D01*
X97199686Y-87825314D01*
X97073659Y-87741106D01*
X97042962Y-87735000D01*
X97051310Y-87735000D01*
X97284699Y-87638327D01*
X97463327Y-87459698D01*
X97560000Y-87226309D01*
X97560000Y-86885750D01*
X97401250Y-86727000D01*
X96427000Y-86727000D01*
X96427000Y-86747000D01*
X96173000Y-86747000D01*
X96173000Y-86727000D01*
X95198750Y-86727000D01*
X95040000Y-86885750D01*
X95040000Y-87226309D01*
X95136673Y-87459698D01*
X95315301Y-87638327D01*
X95548690Y-87735000D01*
X95557038Y-87735000D01*
X95526341Y-87741106D01*
X95400314Y-87825314D01*
X95316106Y-87951341D01*
X95286536Y-88100000D01*
X95286536Y-89100000D01*
X95316106Y-89248659D01*
X95400314Y-89374686D01*
X95526341Y-89458894D01*
X95675000Y-89488464D01*
X95842800Y-89488464D01*
X95842801Y-90998805D01*
X95841106Y-91001341D01*
X95811536Y-91150000D01*
X95811536Y-92450000D01*
X95841106Y-92598659D01*
X95925314Y-92724686D01*
X96051341Y-92808894D01*
X96092801Y-92817141D01*
X96092801Y-93144400D01*
X92229579Y-93144400D01*
X92316449Y-93057530D01*
X92354623Y-93032023D01*
X92417137Y-92938464D01*
X93025000Y-92938464D01*
X93173659Y-92908894D01*
X93299686Y-92824686D01*
X93383894Y-92698659D01*
X93413464Y-92550000D01*
X93413464Y-91757200D01*
X93458222Y-91757200D01*
X93792470Y-92091448D01*
X93817977Y-92129623D01*
X93856151Y-92155130D01*
X93911536Y-92192137D01*
X93911536Y-92450000D01*
X93941106Y-92598659D01*
X94025314Y-92724686D01*
X94151341Y-92808894D01*
X94300000Y-92838464D01*
X95000000Y-92838464D01*
X95148659Y-92808894D01*
X95274686Y-92724686D01*
X95358894Y-92598659D01*
X95388464Y-92450000D01*
X95388464Y-91150000D01*
X95358894Y-91001341D01*
X95274686Y-90875314D01*
X95148659Y-90791106D01*
X95000000Y-90761536D01*
X94300000Y-90761536D01*
X94151341Y-90791106D01*
X94025314Y-90875314D01*
X93966557Y-90963250D01*
X93825991Y-90869327D01*
X93692630Y-90842800D01*
X93647600Y-90833843D01*
X93602570Y-90842800D01*
X93413464Y-90842800D01*
X93413464Y-90050000D01*
X93383894Y-89901341D01*
X93299686Y-89775314D01*
X93173659Y-89691106D01*
X93025000Y-89661536D01*
X91025000Y-89661536D01*
X90987831Y-89668929D01*
X90913693Y-89489944D01*
X90710056Y-89286307D01*
X90443993Y-89176100D01*
X90156007Y-89176100D01*
X89889944Y-89286307D01*
X89863464Y-89312787D01*
X89863464Y-88883115D01*
X89939379Y-88807200D01*
X90482859Y-88807200D01*
X90491106Y-88848659D01*
X90575314Y-88974686D01*
X90701341Y-89058894D01*
X90850000Y-89088464D01*
X92150000Y-89088464D01*
X92298659Y-89058894D01*
X92424686Y-88974686D01*
X92508894Y-88848659D01*
X92538464Y-88700000D01*
X92538464Y-88635750D01*
X92615000Y-88635750D01*
X92615000Y-88826309D01*
X92711673Y-89059698D01*
X92890301Y-89238327D01*
X93123690Y-89335000D01*
X93614250Y-89335000D01*
X93773000Y-89176250D01*
X93773000Y-88477000D01*
X94027000Y-88477000D01*
X94027000Y-89176250D01*
X94185750Y-89335000D01*
X94676310Y-89335000D01*
X94909699Y-89238327D01*
X95088327Y-89059698D01*
X95185000Y-88826309D01*
X95185000Y-88635750D01*
X95026250Y-88477000D01*
X94027000Y-88477000D01*
X93773000Y-88477000D01*
X92773750Y-88477000D01*
X92615000Y-88635750D01*
X92538464Y-88635750D01*
X92538464Y-88000000D01*
X92513340Y-87873691D01*
X92615000Y-87873691D01*
X92615000Y-88064250D01*
X92773750Y-88223000D01*
X93773000Y-88223000D01*
X93773000Y-87523750D01*
X94027000Y-87523750D01*
X94027000Y-88223000D01*
X95026250Y-88223000D01*
X95185000Y-88064250D01*
X95185000Y-87873691D01*
X95088327Y-87640302D01*
X94909699Y-87461673D01*
X94676310Y-87365000D01*
X94185750Y-87365000D01*
X94027000Y-87523750D01*
X93773000Y-87523750D01*
X93614250Y-87365000D01*
X93123690Y-87365000D01*
X92890301Y-87461673D01*
X92711673Y-87640302D01*
X92615000Y-87873691D01*
X92513340Y-87873691D01*
X92508894Y-87851341D01*
X92424686Y-87725314D01*
X92298659Y-87641106D01*
X92150000Y-87611536D01*
X90850000Y-87611536D01*
X90701341Y-87641106D01*
X90575314Y-87725314D01*
X90491106Y-87851341D01*
X90482859Y-87892800D01*
X89795029Y-87892800D01*
X89749999Y-87883843D01*
X89736528Y-87886522D01*
X89657200Y-87833517D01*
X89657200Y-86745030D01*
X89659045Y-86735750D01*
X90215000Y-86735750D01*
X90215000Y-86926309D01*
X90311673Y-87159698D01*
X90490301Y-87338327D01*
X90723690Y-87435000D01*
X91214250Y-87435000D01*
X91373000Y-87276250D01*
X91373000Y-86577000D01*
X91627000Y-86577000D01*
X91627000Y-87276250D01*
X91785750Y-87435000D01*
X92276310Y-87435000D01*
X92509699Y-87338327D01*
X92688327Y-87159698D01*
X92785000Y-86926309D01*
X92785000Y-86735750D01*
X92626250Y-86577000D01*
X91627000Y-86577000D01*
X91373000Y-86577000D01*
X90373750Y-86577000D01*
X90215000Y-86735750D01*
X89659045Y-86735750D01*
X89666157Y-86700000D01*
X89630673Y-86521609D01*
X89616234Y-86500000D01*
X89529623Y-86370377D01*
X89491444Y-86344866D01*
X89355133Y-86208555D01*
X89329623Y-86170377D01*
X89178391Y-86069327D01*
X89045030Y-86042800D01*
X89000000Y-86033843D01*
X88954970Y-86042800D01*
X88389378Y-86042800D01*
X88332200Y-85985622D01*
X88332200Y-85973691D01*
X90215000Y-85973691D01*
X90215000Y-86164250D01*
X90373750Y-86323000D01*
X91373000Y-86323000D01*
X91373000Y-85623750D01*
X91627000Y-85623750D01*
X91627000Y-86323000D01*
X92626250Y-86323000D01*
X92785000Y-86164250D01*
X92785000Y-85973691D01*
X92688327Y-85740302D01*
X92509699Y-85561673D01*
X92276310Y-85465000D01*
X91785750Y-85465000D01*
X91627000Y-85623750D01*
X91373000Y-85623750D01*
X91214250Y-85465000D01*
X90723690Y-85465000D01*
X90490301Y-85561673D01*
X90311673Y-85740302D01*
X90215000Y-85973691D01*
X88332200Y-85973691D01*
X88332200Y-85634923D01*
X88350000Y-85638464D01*
X88700000Y-85638464D01*
X88848659Y-85608894D01*
X88850000Y-85607998D01*
X88851341Y-85608894D01*
X89000000Y-85638464D01*
X89350000Y-85638464D01*
X89498659Y-85608894D01*
X89624686Y-85524686D01*
X89708894Y-85398659D01*
X89738464Y-85250000D01*
X89738464Y-84466661D01*
X89818056Y-84433693D01*
X89974549Y-84277200D01*
X90198222Y-84277200D01*
X90362468Y-84441446D01*
X90387977Y-84479623D01*
X90491202Y-84548596D01*
X90511106Y-84648659D01*
X90595314Y-84774686D01*
X90721341Y-84858894D01*
X90870000Y-84888464D01*
X92170000Y-84888464D01*
X92318659Y-84858894D01*
X92321194Y-84857200D01*
X92911536Y-84857200D01*
X92911536Y-84900000D01*
X92941106Y-85048659D01*
X93025314Y-85174686D01*
X93151341Y-85258894D01*
X93300000Y-85288464D01*
X93442801Y-85288464D01*
X93442800Y-85711536D01*
X93250000Y-85711536D01*
X93101341Y-85741106D01*
X92975314Y-85825314D01*
X92891106Y-85951341D01*
X92861536Y-86100000D01*
X92861536Y-86800000D01*
X92891106Y-86948659D01*
X92975314Y-87074686D01*
X93101341Y-87158894D01*
X93250000Y-87188464D01*
X94550000Y-87188464D01*
X94698659Y-87158894D01*
X94824686Y-87074686D01*
X94908894Y-86948659D01*
X94938464Y-86800000D01*
X94938464Y-86223900D01*
X95040000Y-86223900D01*
X95040000Y-86314250D01*
X95198750Y-86473000D01*
X96173000Y-86473000D01*
X96173000Y-85623750D01*
X96049250Y-85500000D01*
X96173000Y-85376250D01*
X96173000Y-84527000D01*
X96427000Y-84527000D01*
X96427000Y-85376250D01*
X96550750Y-85500000D01*
X96427000Y-85623750D01*
X96427000Y-86473000D01*
X97401250Y-86473000D01*
X97560000Y-86314250D01*
X97560000Y-85973691D01*
X97463327Y-85740302D01*
X97284699Y-85561673D01*
X97135807Y-85500000D01*
X97284699Y-85438327D01*
X97463327Y-85259698D01*
X97560000Y-85026309D01*
X97560000Y-84685750D01*
X97401250Y-84527000D01*
X96427000Y-84527000D01*
X96173000Y-84527000D01*
X95198750Y-84527000D01*
X95040000Y-84685750D01*
X95040000Y-84776100D01*
X94938464Y-84776100D01*
X94938464Y-83900000D01*
X94908894Y-83751341D01*
X94824686Y-83625314D01*
X94698659Y-83541106D01*
X94550000Y-83511536D01*
X93300000Y-83511536D01*
X93151341Y-83541106D01*
X93025314Y-83625314D01*
X92941106Y-83751341D01*
X92911536Y-83900000D01*
X92911536Y-83942800D01*
X92558464Y-83942800D01*
X92558464Y-83800000D01*
X92528894Y-83651341D01*
X92444686Y-83525314D01*
X92318659Y-83441106D01*
X92170000Y-83411536D01*
X90870000Y-83411536D01*
X90721341Y-83441106D01*
X90682412Y-83467117D01*
X90565991Y-83389327D01*
X90432630Y-83362800D01*
X90387600Y-83353843D01*
X90342570Y-83362800D01*
X89974549Y-83362800D01*
X89818056Y-83206307D01*
X89734175Y-83171562D01*
X89738464Y-83150000D01*
X89738464Y-82350000D01*
X89708894Y-82201341D01*
X89632200Y-82086560D01*
X89632200Y-81714378D01*
X89789379Y-81557200D01*
X90697254Y-81557200D01*
X90595314Y-81625314D01*
X90511106Y-81751341D01*
X90481536Y-81900000D01*
X90481536Y-82600000D01*
X90511106Y-82748659D01*
X90595314Y-82874686D01*
X90721341Y-82958894D01*
X90870000Y-82988464D01*
X92170000Y-82988464D01*
X92318659Y-82958894D01*
X92444686Y-82874686D01*
X92456370Y-82857200D01*
X92911536Y-82857200D01*
X92911536Y-82900000D01*
X92941106Y-83048659D01*
X93025314Y-83174686D01*
X93151341Y-83258894D01*
X93300000Y-83288464D01*
X94550000Y-83288464D01*
X94698659Y-83258894D01*
X94824686Y-83174686D01*
X94908894Y-83048659D01*
X94938464Y-82900000D01*
X94938464Y-82857200D01*
X95286536Y-82857200D01*
X95286536Y-82900000D01*
X95316106Y-83048659D01*
X95400314Y-83174686D01*
X95526341Y-83258894D01*
X95557038Y-83265000D01*
X95548690Y-83265000D01*
X95315301Y-83361673D01*
X95136673Y-83540302D01*
X95040000Y-83773691D01*
X95040000Y-84114250D01*
X95198750Y-84273000D01*
X96173000Y-84273000D01*
X96173000Y-84253000D01*
X96427000Y-84253000D01*
X96427000Y-84273000D01*
X97401250Y-84273000D01*
X97560000Y-84114250D01*
X97560000Y-83773691D01*
X97463327Y-83540302D01*
X97284699Y-83361673D01*
X97051310Y-83265000D01*
X97042962Y-83265000D01*
X97073659Y-83258894D01*
X97199686Y-83174686D01*
X97283894Y-83048659D01*
X97313464Y-82900000D01*
X97313464Y-81900000D01*
X97283894Y-81751341D01*
X97199686Y-81625314D01*
X97073659Y-81541106D01*
X96925000Y-81511536D01*
X95675000Y-81511536D01*
X95526341Y-81541106D01*
X95400314Y-81625314D01*
X95316106Y-81751341D01*
X95286536Y-81900000D01*
X95286536Y-81942800D01*
X94938464Y-81942800D01*
X94938464Y-81900000D01*
X94908894Y-81751341D01*
X94824686Y-81625314D01*
X94698659Y-81541106D01*
X94550000Y-81511536D01*
X93300000Y-81511536D01*
X93151341Y-81541106D01*
X93025314Y-81625314D01*
X92941106Y-81751341D01*
X92911536Y-81900000D01*
X92911536Y-81942800D01*
X92558464Y-81942800D01*
X92558464Y-81900000D01*
X92528894Y-81751341D01*
X92444686Y-81625314D01*
X92318659Y-81541106D01*
X92170000Y-81511536D01*
X91977200Y-81511536D01*
X91977200Y-81465029D01*
X91986157Y-81419999D01*
X91950673Y-81241609D01*
X91921786Y-81198377D01*
X91849623Y-81090377D01*
X91811446Y-81064868D01*
X91743818Y-80997240D01*
X91748116Y-80975633D01*
X91913693Y-80810056D01*
X92023900Y-80543993D01*
X92023900Y-80256007D01*
X91913693Y-79989944D01*
X91710056Y-79786307D01*
X91443993Y-79676100D01*
X91156007Y-79676100D01*
X90889944Y-79786307D01*
X90686307Y-79989944D01*
X90576100Y-80256007D01*
X90576100Y-80543993D01*
X90617027Y-80642800D01*
X89645030Y-80642800D01*
X89600000Y-80633843D01*
X89554970Y-80642800D01*
X89280573Y-80642800D01*
X89321500Y-80543993D01*
X89321500Y-80256007D01*
X89211293Y-79989944D01*
X89007656Y-79786307D01*
X88741593Y-79676100D01*
X88453607Y-79676100D01*
X88187544Y-79786307D01*
X88031051Y-79942800D01*
X87545030Y-79942800D01*
X87500000Y-79933843D01*
X87454970Y-79942800D01*
X87321609Y-79969327D01*
X87170377Y-80070377D01*
X87144868Y-80108554D01*
X86933552Y-80319870D01*
X86895378Y-80345377D01*
X86869871Y-80383551D01*
X86869870Y-80383552D01*
X86794327Y-80496610D01*
X86758843Y-80675000D01*
X86767801Y-80720035D01*
X86767801Y-81706390D01*
X86767800Y-82086559D01*
X86691106Y-82201341D01*
X86661536Y-82350000D01*
X86661536Y-83150000D01*
X86691106Y-83298659D01*
X86775314Y-83424686D01*
X86901341Y-83508894D01*
X87050000Y-83538464D01*
X87400000Y-83538464D01*
X87548659Y-83508894D01*
X87550000Y-83507998D01*
X87551341Y-83508894D01*
X87617692Y-83522092D01*
X88183737Y-84088138D01*
X88050000Y-84061536D01*
X87700000Y-84061536D01*
X87551341Y-84091106D01*
X87537500Y-84100354D01*
X87523659Y-84091106D01*
X87375000Y-84061536D01*
X87025000Y-84061536D01*
X86876341Y-84091106D01*
X86750314Y-84175314D01*
X86666106Y-84301341D01*
X86636536Y-84450000D01*
X86636536Y-85250000D01*
X86666106Y-85398659D01*
X86750314Y-85524686D01*
X86792801Y-85553075D01*
X86792800Y-87807832D01*
X86776341Y-87811106D01*
X86650314Y-87895314D01*
X86566106Y-88021341D01*
X86536536Y-88170000D01*
X86536536Y-89730000D01*
X86566106Y-89878659D01*
X86650314Y-90004686D01*
X86776341Y-90088894D01*
X86925000Y-90118464D01*
X87575000Y-90118464D01*
X87723659Y-90088894D01*
X87725000Y-90087998D01*
X87726341Y-90088894D01*
X87875000Y-90118464D01*
X88525000Y-90118464D01*
X88673659Y-90088894D01*
X88675000Y-90087998D01*
X88676341Y-90088894D01*
X88825000Y-90118464D01*
X89475000Y-90118464D01*
X89596903Y-90094216D01*
X89686307Y-90310056D01*
X89889944Y-90513693D01*
X90156007Y-90623900D01*
X90349922Y-90623900D01*
X90517468Y-90791446D01*
X90542977Y-90829623D01*
X90562698Y-90842800D01*
X90145030Y-90842800D01*
X90100000Y-90833843D01*
X89921609Y-90869327D01*
X89863464Y-90908178D01*
X89863464Y-90870000D01*
X89833894Y-90721341D01*
X89749686Y-90595314D01*
X89623659Y-90511106D01*
X89475000Y-90481536D01*
X89034561Y-90481536D01*
X88884699Y-90331673D01*
X88651310Y-90235000D01*
X88485750Y-90235000D01*
X88327000Y-90393750D01*
X88327000Y-91523000D01*
X88347000Y-91523000D01*
X88347000Y-91777000D01*
X88327000Y-91777000D01*
X88327000Y-91797000D01*
X88073000Y-91797000D01*
X88073000Y-91777000D01*
X88053000Y-91777000D01*
X88053000Y-91523000D01*
X88073000Y-91523000D01*
X88073000Y-90393750D01*
X87914250Y-90235000D01*
X87748690Y-90235000D01*
X87515301Y-90331673D01*
X87365439Y-90481536D01*
X86925000Y-90481536D01*
X86776341Y-90511106D01*
X86650314Y-90595314D01*
X86566106Y-90721341D01*
X86536536Y-90870000D01*
X86536536Y-92430000D01*
X86566106Y-92578659D01*
X86650314Y-92704686D01*
X86776341Y-92788894D01*
X86847573Y-92803063D01*
X86894870Y-92873848D01*
X86920378Y-92912023D01*
X86958552Y-92937530D01*
X87611022Y-93590000D01*
X86858552Y-94342470D01*
X86820378Y-94367977D01*
X86794871Y-94406151D01*
X86794870Y-94406152D01*
X86719327Y-94519210D01*
X86683843Y-94697600D01*
X86692801Y-94742634D01*
X86692800Y-95454969D01*
X86683843Y-95500000D01*
X86719327Y-95678391D01*
X86767174Y-95749999D01*
X86811536Y-95816391D01*
X86811536Y-96150000D01*
X86841106Y-96298659D01*
X86925314Y-96424686D01*
X87051341Y-96508894D01*
X87200000Y-96538464D01*
X87900000Y-96538464D01*
X88048659Y-96508894D01*
X88174686Y-96424686D01*
X88258894Y-96298659D01*
X88288464Y-96150000D01*
X88288464Y-94850000D01*
X88258894Y-94701341D01*
X88174686Y-94575314D01*
X88048659Y-94491106D01*
X88010636Y-94483543D01*
X88435379Y-94058800D01*
X91080770Y-94058800D01*
X91125800Y-94067757D01*
X91170830Y-94058800D01*
X92777062Y-94058800D01*
X92589944Y-94136307D01*
X92386307Y-94339944D01*
X92276100Y-94606007D01*
X92276100Y-94893993D01*
X92369514Y-95119514D01*
X92143993Y-95026100D01*
X91856007Y-95026100D01*
X91589944Y-95136307D01*
X91433451Y-95292800D01*
X90289378Y-95292800D01*
X90205133Y-95208555D01*
X90188464Y-95183608D01*
X90188464Y-94850000D01*
X90158894Y-94701341D01*
X90074686Y-94575314D01*
X89948659Y-94491106D01*
X89800000Y-94461536D01*
X89100000Y-94461536D01*
X88951341Y-94491106D01*
X88825314Y-94575314D01*
X88741106Y-94701341D01*
X88711536Y-94850000D01*
X88711536Y-96150000D01*
X88741106Y-96298659D01*
X88825314Y-96424686D01*
X88951341Y-96508894D01*
X88989365Y-96516457D01*
X88963022Y-96542800D01*
X88545030Y-96542800D01*
X88500000Y-96533843D01*
X88454970Y-96542800D01*
X88321609Y-96569327D01*
X88170377Y-96670377D01*
X88144870Y-96708552D01*
X87708552Y-97144870D01*
X87670378Y-97170377D01*
X87644871Y-97208551D01*
X87644870Y-97208552D01*
X87599909Y-97275841D01*
X87501310Y-97235000D01*
X87335750Y-97235000D01*
X87177000Y-97393750D01*
X87177000Y-98523000D01*
X87197000Y-98523000D01*
X87197000Y-98777000D01*
X87177000Y-98777000D01*
X87177000Y-99906250D01*
X87308862Y-100038112D01*
X87165439Y-100181536D01*
X86725000Y-100181536D01*
X86576341Y-100211106D01*
X86450314Y-100295314D01*
X86366106Y-100421341D01*
X86336536Y-100570000D01*
X86336536Y-102130000D01*
X86366106Y-102278659D01*
X86450314Y-102404686D01*
X86576341Y-102488894D01*
X86592801Y-102492168D01*
X86592801Y-103004965D01*
X86583843Y-103050000D01*
X86619327Y-103228390D01*
X86619328Y-103228391D01*
X86720378Y-103379623D01*
X86758552Y-103405130D01*
X87144870Y-103791448D01*
X87170377Y-103829623D01*
X87321609Y-103930673D01*
X87499999Y-103966157D01*
X87545029Y-103957200D01*
X90810622Y-103957200D01*
X90866422Y-104013000D01*
X86412606Y-104013000D01*
X85852000Y-103452394D01*
X85852000Y-98935750D01*
X86090000Y-98935750D01*
X86090000Y-99556309D01*
X86186673Y-99789698D01*
X86365301Y-99968327D01*
X86598690Y-100065000D01*
X86764250Y-100065000D01*
X86923000Y-99906250D01*
X86923000Y-98777000D01*
X86248750Y-98777000D01*
X86090000Y-98935750D01*
X85852000Y-98935750D01*
X85852000Y-97743691D01*
X86090000Y-97743691D01*
X86090000Y-98364250D01*
X86248750Y-98523000D01*
X86923000Y-98523000D01*
X86923000Y-97393750D01*
X86764250Y-97235000D01*
X86598690Y-97235000D01*
X86365301Y-97331673D01*
X86186673Y-97510302D01*
X86090000Y-97743691D01*
X85852000Y-97743691D01*
X85852000Y-76660750D01*
X88365000Y-76660750D01*
X88365000Y-78251310D01*
X88461673Y-78484699D01*
X88640302Y-78663327D01*
X88873691Y-78760000D01*
X89214250Y-78760000D01*
X89373000Y-78601250D01*
X89373000Y-76502000D01*
X88523750Y-76502000D01*
X88365000Y-76660750D01*
X85852000Y-76660750D01*
X85852000Y-74498690D01*
X88365000Y-74498690D01*
X88365000Y-76089250D01*
X88523750Y-76248000D01*
X89373000Y-76248000D01*
X89373000Y-74148750D01*
X89627000Y-74148750D01*
X89627000Y-76248000D01*
X89647000Y-76248000D01*
X89647000Y-76502000D01*
X89627000Y-76502000D01*
X89627000Y-78601250D01*
X89785750Y-78760000D01*
X90126309Y-78760000D01*
X90359698Y-78663327D01*
X90538327Y-78484699D01*
X90635000Y-78251310D01*
X90635000Y-78242962D01*
X90641106Y-78273659D01*
X90725314Y-78399686D01*
X90851341Y-78483894D01*
X91000000Y-78513464D01*
X92000000Y-78513464D01*
X92148659Y-78483894D01*
X92274686Y-78399686D01*
X92358894Y-78273659D01*
X92388464Y-78125000D01*
X92388464Y-74625000D01*
X92611536Y-74625000D01*
X92611536Y-78125000D01*
X92641106Y-78273659D01*
X92725314Y-78399686D01*
X92851341Y-78483894D01*
X93000000Y-78513464D01*
X93042801Y-78513464D01*
X93042800Y-79833451D01*
X92886307Y-79989944D01*
X92776100Y-80256007D01*
X92776100Y-80543993D01*
X92886307Y-80810056D01*
X93089944Y-81013693D01*
X93356007Y-81123900D01*
X93643993Y-81123900D01*
X93910056Y-81013693D01*
X94113693Y-80810056D01*
X94223900Y-80543993D01*
X94223900Y-80256007D01*
X94113693Y-79989944D01*
X93957200Y-79833451D01*
X93957200Y-78513464D01*
X94000000Y-78513464D01*
X94148659Y-78483894D01*
X94274686Y-78399686D01*
X94358894Y-78273659D01*
X94388464Y-78125000D01*
X94388464Y-74625000D01*
X94611536Y-74625000D01*
X94611536Y-78125000D01*
X94641106Y-78273659D01*
X94725314Y-78399686D01*
X94851341Y-78483894D01*
X95000000Y-78513464D01*
X95042800Y-78513464D01*
X95042800Y-79833451D01*
X94886307Y-79989944D01*
X94776100Y-80256007D01*
X94776100Y-80543993D01*
X94886307Y-80810056D01*
X95089944Y-81013693D01*
X95356007Y-81123900D01*
X95643993Y-81123900D01*
X95910056Y-81013693D01*
X96113693Y-80810056D01*
X96223900Y-80543993D01*
X96223900Y-80256007D01*
X96113693Y-79989944D01*
X95957200Y-79833451D01*
X95957200Y-78513464D01*
X96000000Y-78513464D01*
X96148659Y-78483894D01*
X96274686Y-78399686D01*
X96358894Y-78273659D01*
X96388464Y-78125000D01*
X96388464Y-74625000D01*
X96358894Y-74476341D01*
X96274686Y-74350314D01*
X96148659Y-74266106D01*
X96000000Y-74236536D01*
X95000000Y-74236536D01*
X94851341Y-74266106D01*
X94725314Y-74350314D01*
X94641106Y-74476341D01*
X94611536Y-74625000D01*
X94388464Y-74625000D01*
X94358894Y-74476341D01*
X94274686Y-74350314D01*
X94148659Y-74266106D01*
X94000000Y-74236536D01*
X93000000Y-74236536D01*
X92851341Y-74266106D01*
X92725314Y-74350314D01*
X92641106Y-74476341D01*
X92611536Y-74625000D01*
X92388464Y-74625000D01*
X92358894Y-74476341D01*
X92274686Y-74350314D01*
X92148659Y-74266106D01*
X92000000Y-74236536D01*
X91957200Y-74236536D01*
X91957200Y-73439378D01*
X92422678Y-72973900D01*
X92643993Y-72973900D01*
X92910056Y-72863693D01*
X93113693Y-72660056D01*
X93223900Y-72393993D01*
X93223900Y-72106007D01*
X93113693Y-71839944D01*
X92910056Y-71636307D01*
X92643993Y-71526100D01*
X92356007Y-71526100D01*
X92089944Y-71636307D01*
X91886307Y-71839944D01*
X91776100Y-72106007D01*
X91776100Y-72327322D01*
X91208552Y-72894870D01*
X91170378Y-72920377D01*
X91144871Y-72958551D01*
X91144870Y-72958552D01*
X91069327Y-73071610D01*
X91033843Y-73250000D01*
X91042801Y-73295035D01*
X91042801Y-74236536D01*
X91000000Y-74236536D01*
X90851341Y-74266106D01*
X90725314Y-74350314D01*
X90641106Y-74476341D01*
X90635000Y-74507038D01*
X90635000Y-74498690D01*
X90538327Y-74265301D01*
X90359698Y-74086673D01*
X90126309Y-73990000D01*
X89785750Y-73990000D01*
X89627000Y-74148750D01*
X89373000Y-74148750D01*
X89214250Y-73990000D01*
X88873691Y-73990000D01*
X88640302Y-74086673D01*
X88461673Y-74265301D01*
X88365000Y-74498690D01*
X85852000Y-74498690D01*
X85852000Y-68925000D01*
X86011536Y-68925000D01*
X86011536Y-72325000D01*
X86041106Y-72473659D01*
X86125314Y-72599686D01*
X86251341Y-72683894D01*
X86400000Y-72713464D01*
X87900000Y-72713464D01*
X88048659Y-72683894D01*
X88174686Y-72599686D01*
X88258894Y-72473659D01*
X88288464Y-72325000D01*
X88288464Y-68925000D01*
X96711536Y-68925000D01*
X96711536Y-72325000D01*
X96741106Y-72473659D01*
X96825314Y-72599686D01*
X96951341Y-72683894D01*
X97100000Y-72713464D01*
X98600000Y-72713464D01*
X98748659Y-72683894D01*
X98874686Y-72599686D01*
X98958894Y-72473659D01*
X98988464Y-72325000D01*
X98988464Y-68925000D01*
X98958894Y-68776341D01*
X98874686Y-68650314D01*
X98748659Y-68566106D01*
X98600000Y-68536536D01*
X97100000Y-68536536D01*
X96951341Y-68566106D01*
X96825314Y-68650314D01*
X96741106Y-68776341D01*
X96711536Y-68925000D01*
X88288464Y-68925000D01*
X88258894Y-68776341D01*
X88174686Y-68650314D01*
X88048659Y-68566106D01*
X87900000Y-68536536D01*
X86400000Y-68536536D01*
X86251341Y-68566106D01*
X86125314Y-68650314D01*
X86041106Y-68776341D01*
X86011536Y-68925000D01*
X85852000Y-68925000D01*
X85852000Y-57606007D01*
X86276100Y-57606007D01*
X86276100Y-57893993D01*
X86386307Y-58160056D01*
X86589944Y-58363693D01*
X86856007Y-58473900D01*
X87143993Y-58473900D01*
X87410056Y-58363693D01*
X87613693Y-58160056D01*
X87723900Y-57893993D01*
X87723900Y-57672678D01*
X88291446Y-57105132D01*
X88329623Y-57079623D01*
X88430673Y-56928391D01*
X88457200Y-56795030D01*
X88466157Y-56750000D01*
X88457200Y-56704970D01*
X88457200Y-55188464D01*
X88650000Y-55188464D01*
X88798659Y-55158894D01*
X88924686Y-55074686D01*
X89008894Y-54948659D01*
X89038464Y-54800000D01*
X89038464Y-54100000D01*
X89008894Y-53951341D01*
X88924686Y-53825314D01*
X88798659Y-53741106D01*
X88650000Y-53711536D01*
X87350000Y-53711536D01*
X87201341Y-53741106D01*
X87075314Y-53825314D01*
X86991106Y-53951341D01*
X86961536Y-54100000D01*
X86961536Y-54800000D01*
X86991106Y-54948659D01*
X87075314Y-55074686D01*
X87201341Y-55158894D01*
X87350000Y-55188464D01*
X87542800Y-55188464D01*
X87542801Y-56560621D01*
X87077322Y-57026100D01*
X86856007Y-57026100D01*
X86589944Y-57136307D01*
X86386307Y-57339944D01*
X86276100Y-57606007D01*
X85852000Y-57606007D01*
X85852000Y-52200000D01*
X86961536Y-52200000D01*
X86961536Y-52900000D01*
X86991106Y-53048659D01*
X87075314Y-53174686D01*
X87201341Y-53258894D01*
X87350000Y-53288464D01*
X88650000Y-53288464D01*
X88798659Y-53258894D01*
X88924686Y-53174686D01*
X89008894Y-53048659D01*
X89038464Y-52900000D01*
X89038464Y-52200000D01*
X89008894Y-52051341D01*
X88924686Y-51925314D01*
X88798659Y-51841106D01*
X88650000Y-51811536D01*
X88457200Y-51811536D01*
X88457200Y-50939378D01*
X88689379Y-50707200D01*
X92042800Y-50707200D01*
X92042800Y-50711536D01*
X91700000Y-50711536D01*
X91551341Y-50741106D01*
X91425314Y-50825314D01*
X91341106Y-50951341D01*
X91311536Y-51100000D01*
X91311536Y-52171623D01*
X91185817Y-52056381D01*
X91151753Y-52034023D01*
X91103431Y-52023046D01*
X91054587Y-52031397D01*
X91012656Y-52057804D01*
X90062656Y-52957804D01*
X90032667Y-53001399D01*
X90023000Y-53050000D01*
X90023000Y-53150000D01*
X90032667Y-53198601D01*
X90060197Y-53239803D01*
X90110197Y-53289803D01*
X90146294Y-53315085D01*
X90194423Y-53326877D01*
X90214690Y-53323764D01*
X89963583Y-53556935D01*
X89929517Y-53609839D01*
X89879517Y-53759839D01*
X89873320Y-53790997D01*
X89879517Y-53840161D01*
X89904057Y-53883211D01*
X89928453Y-53902144D01*
X89943204Y-53913592D01*
X90043204Y-53963592D01*
X90088054Y-53976437D01*
X90137349Y-53971384D01*
X90330269Y-53912024D01*
X89907349Y-54363139D01*
X89882667Y-54401399D01*
X89873000Y-54450000D01*
X89873000Y-54550000D01*
X89879517Y-54590161D01*
X89904057Y-54633211D01*
X89943204Y-54663592D01*
X90043204Y-54713592D01*
X90088609Y-54726488D01*
X90137881Y-54721219D01*
X90773000Y-54522744D01*
X90773000Y-55600000D01*
X90782667Y-55648601D01*
X90810197Y-55689803D01*
X90851399Y-55717333D01*
X90900000Y-55727000D01*
X91106707Y-55727000D01*
X91161673Y-55859699D01*
X91340302Y-56038327D01*
X91573691Y-56135000D01*
X92214250Y-56135000D01*
X92373000Y-55976250D01*
X92373000Y-55027000D01*
X92353000Y-55027000D01*
X92353000Y-54977000D01*
X92647000Y-54977000D01*
X92647000Y-55027000D01*
X92627000Y-55027000D01*
X92627000Y-55976250D01*
X92785750Y-56135000D01*
X93426309Y-56135000D01*
X93659698Y-56038327D01*
X93838327Y-55859699D01*
X93893293Y-55727000D01*
X94100000Y-55727000D01*
X94148601Y-55717333D01*
X94189803Y-55689803D01*
X94217333Y-55648601D01*
X94227000Y-55600000D01*
X94227000Y-54522744D01*
X94862119Y-54721219D01*
X94900000Y-54727000D01*
X94948601Y-54717333D01*
X94989803Y-54689803D01*
X95089803Y-54589803D01*
X95114073Y-54555825D01*
X95126753Y-54507922D01*
X95120136Y-54458813D01*
X95095229Y-54415974D01*
X94615503Y-53872284D01*
X94819198Y-53923208D01*
X94850000Y-53927000D01*
X94950000Y-53927000D01*
X94998601Y-53917333D01*
X95039803Y-53889803D01*
X95067333Y-53848601D01*
X95077000Y-53800000D01*
X95077000Y-53700000D01*
X95067333Y-53651399D01*
X95039803Y-53610197D01*
X94755784Y-53326178D01*
X94759003Y-53326680D01*
X94806796Y-53313592D01*
X94906796Y-53263592D01*
X94939803Y-53239803D01*
X94967333Y-53198601D01*
X94977000Y-53150000D01*
X94977000Y-53100000D01*
X94967333Y-53051399D01*
X94939803Y-53010197D01*
X93989803Y-52060197D01*
X93948601Y-52032667D01*
X93900000Y-52023000D01*
X93851399Y-52032667D01*
X93810197Y-52060197D01*
X93762316Y-52108078D01*
X93688464Y-52175216D01*
X93688464Y-51100000D01*
X93658894Y-50951341D01*
X93574686Y-50825314D01*
X93448659Y-50741106D01*
X93300000Y-50711536D01*
X92957200Y-50711536D01*
X92957200Y-50545029D01*
X92966157Y-50499999D01*
X92930673Y-50321609D01*
X92929148Y-50319327D01*
X92829623Y-50170377D01*
X92791444Y-50144867D01*
X92605133Y-49958555D01*
X92579623Y-49920377D01*
X92428391Y-49819327D01*
X92295030Y-49792800D01*
X92250000Y-49783843D01*
X92204970Y-49792800D01*
X88545030Y-49792800D01*
X88500000Y-49783843D01*
X88454970Y-49792800D01*
X88321609Y-49819327D01*
X88170377Y-49920377D01*
X88144870Y-49958552D01*
X87708552Y-50394870D01*
X87670378Y-50420377D01*
X87644871Y-50458551D01*
X87644870Y-50458552D01*
X87569327Y-50571610D01*
X87533843Y-50750000D01*
X87542801Y-50795035D01*
X87542800Y-51811536D01*
X87350000Y-51811536D01*
X87201341Y-51841106D01*
X87075314Y-51925314D01*
X86991106Y-52051341D01*
X86961536Y-52200000D01*
X85852000Y-52200000D01*
X85852000Y-40692606D01*
X86412606Y-40132000D01*
X99007394Y-40132000D01*
X99568000Y-40692606D01*
X99568000Y-40692606D01*
G37*
X99568000Y-40692606D02*
X99568000Y-103452394D01*
X99007394Y-104013000D01*
X98760749Y-104013000D01*
X98863693Y-103910056D01*
X98973900Y-103643993D01*
X98973900Y-103356007D01*
X98863693Y-103089944D01*
X98707200Y-102933451D01*
X98707200Y-101695029D01*
X98716157Y-101649999D01*
X98680673Y-101471609D01*
X98663464Y-101445854D01*
X98663464Y-100570000D01*
X98633894Y-100421341D01*
X98549686Y-100295314D01*
X98423659Y-100211106D01*
X98275000Y-100181536D01*
X97834561Y-100181536D01*
X97684699Y-100031673D01*
X97451310Y-99935000D01*
X97285750Y-99935000D01*
X97127002Y-100093748D01*
X97127002Y-100019576D01*
X97291448Y-99855130D01*
X97329623Y-99829623D01*
X97338931Y-99815693D01*
X97473659Y-99788894D01*
X97475000Y-99787998D01*
X97476341Y-99788894D01*
X97625000Y-99818464D01*
X98275000Y-99818464D01*
X98423659Y-99788894D01*
X98549686Y-99704686D01*
X98633894Y-99578659D01*
X98663464Y-99430000D01*
X98663464Y-97870000D01*
X98633894Y-97721341D01*
X98549686Y-97595314D01*
X98423659Y-97511106D01*
X98407200Y-97507832D01*
X98407200Y-97495030D01*
X98416157Y-97450000D01*
X98380673Y-97271609D01*
X98366234Y-97250000D01*
X98279623Y-97120377D01*
X98241444Y-97094866D01*
X98105133Y-96958555D01*
X98079623Y-96920377D01*
X97928391Y-96819327D01*
X97795030Y-96792800D01*
X97750000Y-96783843D01*
X97704970Y-96792800D01*
X93354227Y-96792800D01*
X93430673Y-96678391D01*
X93457200Y-96545030D01*
X93457200Y-96545029D01*
X93466157Y-96500001D01*
X93457200Y-96454971D01*
X93457200Y-95854227D01*
X93458551Y-95855130D01*
X93571609Y-95930673D01*
X93749999Y-95966157D01*
X93795029Y-95957200D01*
X94811536Y-95957200D01*
X94811536Y-96150000D01*
X94841106Y-96298659D01*
X94925314Y-96424686D01*
X95051341Y-96508894D01*
X95200000Y-96538464D01*
X95900000Y-96538464D01*
X96048659Y-96508894D01*
X96174686Y-96424686D01*
X96258894Y-96298659D01*
X96288464Y-96150000D01*
X96288464Y-94850000D01*
X96258894Y-94701341D01*
X96174686Y-94575314D01*
X96048659Y-94491106D01*
X95900000Y-94461536D01*
X95200000Y-94461536D01*
X95051341Y-94491106D01*
X94925314Y-94575314D01*
X94841106Y-94701341D01*
X94811536Y-94850000D01*
X94811536Y-95042800D01*
X93939379Y-95042800D01*
X93723900Y-94827321D01*
X93723900Y-94606007D01*
X93613693Y-94339944D01*
X93410056Y-94136307D01*
X93222938Y-94058800D01*
X96666222Y-94058800D01*
X97074108Y-94466686D01*
X96951341Y-94491106D01*
X96825314Y-94575314D01*
X96741106Y-94701341D01*
X96711536Y-94850000D01*
X96711536Y-96150000D01*
X96741106Y-96298659D01*
X96825314Y-96424686D01*
X96951341Y-96508894D01*
X97100000Y-96538464D01*
X97800000Y-96538464D01*
X97948659Y-96508894D01*
X98074686Y-96424686D01*
X98158894Y-96298659D01*
X98188464Y-96150000D01*
X98188464Y-95816392D01*
X98205132Y-95791446D01*
X98541446Y-95455132D01*
X98579623Y-95429623D01*
X98680673Y-95278391D01*
X98707200Y-95145030D01*
X98716157Y-95100001D01*
X98707200Y-95054972D01*
X98707200Y-82816549D01*
X98863693Y-82660056D01*
X98973900Y-82393993D01*
X98973900Y-82106007D01*
X98863693Y-81839944D01*
X98660056Y-81636307D01*
X98393993Y-81526100D01*
X98106007Y-81526100D01*
X97839944Y-81636307D01*
X97636307Y-81839944D01*
X97526100Y-82106007D01*
X97526100Y-82393993D01*
X97636307Y-82660056D01*
X97792800Y-82816549D01*
X97792801Y-93892223D01*
X97291448Y-93390870D01*
X97291446Y-93390869D01*
X97210733Y-93310155D01*
X97185223Y-93271977D01*
X97147046Y-93246468D01*
X97007200Y-93106622D01*
X97007200Y-92817141D01*
X97048659Y-92808894D01*
X97174686Y-92724686D01*
X97258894Y-92598659D01*
X97288464Y-92450000D01*
X97288464Y-91150000D01*
X97258894Y-91001341D01*
X97174686Y-90875314D01*
X97048659Y-90791106D01*
X96900000Y-90761536D01*
X96757200Y-90761536D01*
X96757200Y-89488464D01*
X96925000Y-89488464D01*
X97073659Y-89458894D01*
X97199686Y-89374686D01*
X97283894Y-89248659D01*
X97313464Y-89100000D01*
X97313464Y-88100000D01*
X97283894Y-87951341D01*
X97199686Y-87825314D01*
X97073659Y-87741106D01*
X97042962Y-87735000D01*
X97051310Y-87735000D01*
X97284699Y-87638327D01*
X97463327Y-87459698D01*
X97560000Y-87226309D01*
X97560000Y-86885750D01*
X97401250Y-86727000D01*
X96427000Y-86727000D01*
X96427000Y-86747000D01*
X96173000Y-86747000D01*
X96173000Y-86727000D01*
X95198750Y-86727000D01*
X95040000Y-86885750D01*
X95040000Y-87226309D01*
X95136673Y-87459698D01*
X95315301Y-87638327D01*
X95548690Y-87735000D01*
X95557038Y-87735000D01*
X95526341Y-87741106D01*
X95400314Y-87825314D01*
X95316106Y-87951341D01*
X95286536Y-88100000D01*
X95286536Y-89100000D01*
X95316106Y-89248659D01*
X95400314Y-89374686D01*
X95526341Y-89458894D01*
X95675000Y-89488464D01*
X95842800Y-89488464D01*
X95842801Y-90998805D01*
X95841106Y-91001341D01*
X95811536Y-91150000D01*
X95811536Y-92450000D01*
X95841106Y-92598659D01*
X95925314Y-92724686D01*
X96051341Y-92808894D01*
X96092801Y-92817141D01*
X96092801Y-93144400D01*
X92229579Y-93144400D01*
X92316449Y-93057530D01*
X92354623Y-93032023D01*
X92417137Y-92938464D01*
X93025000Y-92938464D01*
X93173659Y-92908894D01*
X93299686Y-92824686D01*
X93383894Y-92698659D01*
X93413464Y-92550000D01*
X93413464Y-91757200D01*
X93458222Y-91757200D01*
X93792470Y-92091448D01*
X93817977Y-92129623D01*
X93856151Y-92155130D01*
X93911536Y-92192137D01*
X93911536Y-92450000D01*
X93941106Y-92598659D01*
X94025314Y-92724686D01*
X94151341Y-92808894D01*
X94300000Y-92838464D01*
X95000000Y-92838464D01*
X95148659Y-92808894D01*
X95274686Y-92724686D01*
X95358894Y-92598659D01*
X95388464Y-92450000D01*
X95388464Y-91150000D01*
X95358894Y-91001341D01*
X95274686Y-90875314D01*
X95148659Y-90791106D01*
X95000000Y-90761536D01*
X94300000Y-90761536D01*
X94151341Y-90791106D01*
X94025314Y-90875314D01*
X93966557Y-90963250D01*
X93825991Y-90869327D01*
X93692630Y-90842800D01*
X93647600Y-90833843D01*
X93602570Y-90842800D01*
X93413464Y-90842800D01*
X93413464Y-90050000D01*
X93383894Y-89901341D01*
X93299686Y-89775314D01*
X93173659Y-89691106D01*
X93025000Y-89661536D01*
X91025000Y-89661536D01*
X90987831Y-89668929D01*
X90913693Y-89489944D01*
X90710056Y-89286307D01*
X90443993Y-89176100D01*
X90156007Y-89176100D01*
X89889944Y-89286307D01*
X89863464Y-89312787D01*
X89863464Y-88883115D01*
X89939379Y-88807200D01*
X90482859Y-88807200D01*
X90491106Y-88848659D01*
X90575314Y-88974686D01*
X90701341Y-89058894D01*
X90850000Y-89088464D01*
X92150000Y-89088464D01*
X92298659Y-89058894D01*
X92424686Y-88974686D01*
X92508894Y-88848659D01*
X92538464Y-88700000D01*
X92538464Y-88635750D01*
X92615000Y-88635750D01*
X92615000Y-88826309D01*
X92711673Y-89059698D01*
X92890301Y-89238327D01*
X93123690Y-89335000D01*
X93614250Y-89335000D01*
X93773000Y-89176250D01*
X93773000Y-88477000D01*
X94027000Y-88477000D01*
X94027000Y-89176250D01*
X94185750Y-89335000D01*
X94676310Y-89335000D01*
X94909699Y-89238327D01*
X95088327Y-89059698D01*
X95185000Y-88826309D01*
X95185000Y-88635750D01*
X95026250Y-88477000D01*
X94027000Y-88477000D01*
X93773000Y-88477000D01*
X92773750Y-88477000D01*
X92615000Y-88635750D01*
X92538464Y-88635750D01*
X92538464Y-88000000D01*
X92513340Y-87873691D01*
X92615000Y-87873691D01*
X92615000Y-88064250D01*
X92773750Y-88223000D01*
X93773000Y-88223000D01*
X93773000Y-87523750D01*
X94027000Y-87523750D01*
X94027000Y-88223000D01*
X95026250Y-88223000D01*
X95185000Y-88064250D01*
X95185000Y-87873691D01*
X95088327Y-87640302D01*
X94909699Y-87461673D01*
X94676310Y-87365000D01*
X94185750Y-87365000D01*
X94027000Y-87523750D01*
X93773000Y-87523750D01*
X93614250Y-87365000D01*
X93123690Y-87365000D01*
X92890301Y-87461673D01*
X92711673Y-87640302D01*
X92615000Y-87873691D01*
X92513340Y-87873691D01*
X92508894Y-87851341D01*
X92424686Y-87725314D01*
X92298659Y-87641106D01*
X92150000Y-87611536D01*
X90850000Y-87611536D01*
X90701341Y-87641106D01*
X90575314Y-87725314D01*
X90491106Y-87851341D01*
X90482859Y-87892800D01*
X89795029Y-87892800D01*
X89749999Y-87883843D01*
X89736528Y-87886522D01*
X89657200Y-87833517D01*
X89657200Y-86745030D01*
X89659045Y-86735750D01*
X90215000Y-86735750D01*
X90215000Y-86926309D01*
X90311673Y-87159698D01*
X90490301Y-87338327D01*
X90723690Y-87435000D01*
X91214250Y-87435000D01*
X91373000Y-87276250D01*
X91373000Y-86577000D01*
X91627000Y-86577000D01*
X91627000Y-87276250D01*
X91785750Y-87435000D01*
X92276310Y-87435000D01*
X92509699Y-87338327D01*
X92688327Y-87159698D01*
X92785000Y-86926309D01*
X92785000Y-86735750D01*
X92626250Y-86577000D01*
X91627000Y-86577000D01*
X91373000Y-86577000D01*
X90373750Y-86577000D01*
X90215000Y-86735750D01*
X89659045Y-86735750D01*
X89666157Y-86700000D01*
X89630673Y-86521609D01*
X89616234Y-86500000D01*
X89529623Y-86370377D01*
X89491444Y-86344866D01*
X89355133Y-86208555D01*
X89329623Y-86170377D01*
X89178391Y-86069327D01*
X89045030Y-86042800D01*
X89000000Y-86033843D01*
X88954970Y-86042800D01*
X88389378Y-86042800D01*
X88332200Y-85985622D01*
X88332200Y-85973691D01*
X90215000Y-85973691D01*
X90215000Y-86164250D01*
X90373750Y-86323000D01*
X91373000Y-86323000D01*
X91373000Y-85623750D01*
X91627000Y-85623750D01*
X91627000Y-86323000D01*
X92626250Y-86323000D01*
X92785000Y-86164250D01*
X92785000Y-85973691D01*
X92688327Y-85740302D01*
X92509699Y-85561673D01*
X92276310Y-85465000D01*
X91785750Y-85465000D01*
X91627000Y-85623750D01*
X91373000Y-85623750D01*
X91214250Y-85465000D01*
X90723690Y-85465000D01*
X90490301Y-85561673D01*
X90311673Y-85740302D01*
X90215000Y-85973691D01*
X88332200Y-85973691D01*
X88332200Y-85634923D01*
X88350000Y-85638464D01*
X88700000Y-85638464D01*
X88848659Y-85608894D01*
X88850000Y-85607998D01*
X88851341Y-85608894D01*
X89000000Y-85638464D01*
X89350000Y-85638464D01*
X89498659Y-85608894D01*
X89624686Y-85524686D01*
X89708894Y-85398659D01*
X89738464Y-85250000D01*
X89738464Y-84466661D01*
X89818056Y-84433693D01*
X89974549Y-84277200D01*
X90198222Y-84277200D01*
X90362468Y-84441446D01*
X90387977Y-84479623D01*
X90491202Y-84548596D01*
X90511106Y-84648659D01*
X90595314Y-84774686D01*
X90721341Y-84858894D01*
X90870000Y-84888464D01*
X92170000Y-84888464D01*
X92318659Y-84858894D01*
X92321194Y-84857200D01*
X92911536Y-84857200D01*
X92911536Y-84900000D01*
X92941106Y-85048659D01*
X93025314Y-85174686D01*
X93151341Y-85258894D01*
X93300000Y-85288464D01*
X93442801Y-85288464D01*
X93442800Y-85711536D01*
X93250000Y-85711536D01*
X93101341Y-85741106D01*
X92975314Y-85825314D01*
X92891106Y-85951341D01*
X92861536Y-86100000D01*
X92861536Y-86800000D01*
X92891106Y-86948659D01*
X92975314Y-87074686D01*
X93101341Y-87158894D01*
X93250000Y-87188464D01*
X94550000Y-87188464D01*
X94698659Y-87158894D01*
X94824686Y-87074686D01*
X94908894Y-86948659D01*
X94938464Y-86800000D01*
X94938464Y-86223900D01*
X95040000Y-86223900D01*
X95040000Y-86314250D01*
X95198750Y-86473000D01*
X96173000Y-86473000D01*
X96173000Y-85623750D01*
X96049250Y-85500000D01*
X96173000Y-85376250D01*
X96173000Y-84527000D01*
X96427000Y-84527000D01*
X96427000Y-85376250D01*
X96550750Y-85500000D01*
X96427000Y-85623750D01*
X96427000Y-86473000D01*
X97401250Y-86473000D01*
X97560000Y-86314250D01*
X97560000Y-85973691D01*
X97463327Y-85740302D01*
X97284699Y-85561673D01*
X97135807Y-85500000D01*
X97284699Y-85438327D01*
X97463327Y-85259698D01*
X97560000Y-85026309D01*
X97560000Y-84685750D01*
X97401250Y-84527000D01*
X96427000Y-84527000D01*
X96173000Y-84527000D01*
X95198750Y-84527000D01*
X95040000Y-84685750D01*
X95040000Y-84776100D01*
X94938464Y-84776100D01*
X94938464Y-83900000D01*
X94908894Y-83751341D01*
X94824686Y-83625314D01*
X94698659Y-83541106D01*
X94550000Y-83511536D01*
X93300000Y-83511536D01*
X93151341Y-83541106D01*
X93025314Y-83625314D01*
X92941106Y-83751341D01*
X92911536Y-83900000D01*
X92911536Y-83942800D01*
X92558464Y-83942800D01*
X92558464Y-83800000D01*
X92528894Y-83651341D01*
X92444686Y-83525314D01*
X92318659Y-83441106D01*
X92170000Y-83411536D01*
X90870000Y-83411536D01*
X90721341Y-83441106D01*
X90682412Y-83467117D01*
X90565991Y-83389327D01*
X90432630Y-83362800D01*
X90387600Y-83353843D01*
X90342570Y-83362800D01*
X89974549Y-83362800D01*
X89818056Y-83206307D01*
X89734175Y-83171562D01*
X89738464Y-83150000D01*
X89738464Y-82350000D01*
X89708894Y-82201341D01*
X89632200Y-82086560D01*
X89632200Y-81714378D01*
X89789379Y-81557200D01*
X90697254Y-81557200D01*
X90595314Y-81625314D01*
X90511106Y-81751341D01*
X90481536Y-81900000D01*
X90481536Y-82600000D01*
X90511106Y-82748659D01*
X90595314Y-82874686D01*
X90721341Y-82958894D01*
X90870000Y-82988464D01*
X92170000Y-82988464D01*
X92318659Y-82958894D01*
X92444686Y-82874686D01*
X92456370Y-82857200D01*
X92911536Y-82857200D01*
X92911536Y-82900000D01*
X92941106Y-83048659D01*
X93025314Y-83174686D01*
X93151341Y-83258894D01*
X93300000Y-83288464D01*
X94550000Y-83288464D01*
X94698659Y-83258894D01*
X94824686Y-83174686D01*
X94908894Y-83048659D01*
X94938464Y-82900000D01*
X94938464Y-82857200D01*
X95286536Y-82857200D01*
X95286536Y-82900000D01*
X95316106Y-83048659D01*
X95400314Y-83174686D01*
X95526341Y-83258894D01*
X95557038Y-83265000D01*
X95548690Y-83265000D01*
X95315301Y-83361673D01*
X95136673Y-83540302D01*
X95040000Y-83773691D01*
X95040000Y-84114250D01*
X95198750Y-84273000D01*
X96173000Y-84273000D01*
X96173000Y-84253000D01*
X96427000Y-84253000D01*
X96427000Y-84273000D01*
X97401250Y-84273000D01*
X97560000Y-84114250D01*
X97560000Y-83773691D01*
X97463327Y-83540302D01*
X97284699Y-83361673D01*
X97051310Y-83265000D01*
X97042962Y-83265000D01*
X97073659Y-83258894D01*
X97199686Y-83174686D01*
X97283894Y-83048659D01*
X97313464Y-82900000D01*
X97313464Y-81900000D01*
X97283894Y-81751341D01*
X97199686Y-81625314D01*
X97073659Y-81541106D01*
X96925000Y-81511536D01*
X95675000Y-81511536D01*
X95526341Y-81541106D01*
X95400314Y-81625314D01*
X95316106Y-81751341D01*
X95286536Y-81900000D01*
X95286536Y-81942800D01*
X94938464Y-81942800D01*
X94938464Y-81900000D01*
X94908894Y-81751341D01*
X94824686Y-81625314D01*
X94698659Y-81541106D01*
X94550000Y-81511536D01*
X93300000Y-81511536D01*
X93151341Y-81541106D01*
X93025314Y-81625314D01*
X92941106Y-81751341D01*
X92911536Y-81900000D01*
X92911536Y-81942800D01*
X92558464Y-81942800D01*
X92558464Y-81900000D01*
X92528894Y-81751341D01*
X92444686Y-81625314D01*
X92318659Y-81541106D01*
X92170000Y-81511536D01*
X91977200Y-81511536D01*
X91977200Y-81465029D01*
X91986157Y-81419999D01*
X91950673Y-81241609D01*
X91921786Y-81198377D01*
X91849623Y-81090377D01*
X91811446Y-81064868D01*
X91743818Y-80997240D01*
X91748116Y-80975633D01*
X91913693Y-80810056D01*
X92023900Y-80543993D01*
X92023900Y-80256007D01*
X91913693Y-79989944D01*
X91710056Y-79786307D01*
X91443993Y-79676100D01*
X91156007Y-79676100D01*
X90889944Y-79786307D01*
X90686307Y-79989944D01*
X90576100Y-80256007D01*
X90576100Y-80543993D01*
X90617027Y-80642800D01*
X89645030Y-80642800D01*
X89600000Y-80633843D01*
X89554970Y-80642800D01*
X89280573Y-80642800D01*
X89321500Y-80543993D01*
X89321500Y-80256007D01*
X89211293Y-79989944D01*
X89007656Y-79786307D01*
X88741593Y-79676100D01*
X88453607Y-79676100D01*
X88187544Y-79786307D01*
X88031051Y-79942800D01*
X87545030Y-79942800D01*
X87500000Y-79933843D01*
X87454970Y-79942800D01*
X87321609Y-79969327D01*
X87170377Y-80070377D01*
X87144868Y-80108554D01*
X86933552Y-80319870D01*
X86895378Y-80345377D01*
X86869871Y-80383551D01*
X86869870Y-80383552D01*
X86794327Y-80496610D01*
X86758843Y-80675000D01*
X86767801Y-80720035D01*
X86767801Y-81706390D01*
X86767800Y-82086559D01*
X86691106Y-82201341D01*
X86661536Y-82350000D01*
X86661536Y-83150000D01*
X86691106Y-83298659D01*
X86775314Y-83424686D01*
X86901341Y-83508894D01*
X87050000Y-83538464D01*
X87400000Y-83538464D01*
X87548659Y-83508894D01*
X87550000Y-83507998D01*
X87551341Y-83508894D01*
X87617692Y-83522092D01*
X88183737Y-84088138D01*
X88050000Y-84061536D01*
X87700000Y-84061536D01*
X87551341Y-84091106D01*
X87537500Y-84100354D01*
X87523659Y-84091106D01*
X87375000Y-84061536D01*
X87025000Y-84061536D01*
X86876341Y-84091106D01*
X86750314Y-84175314D01*
X86666106Y-84301341D01*
X86636536Y-84450000D01*
X86636536Y-85250000D01*
X86666106Y-85398659D01*
X86750314Y-85524686D01*
X86792801Y-85553075D01*
X86792800Y-87807832D01*
X86776341Y-87811106D01*
X86650314Y-87895314D01*
X86566106Y-88021341D01*
X86536536Y-88170000D01*
X86536536Y-89730000D01*
X86566106Y-89878659D01*
X86650314Y-90004686D01*
X86776341Y-90088894D01*
X86925000Y-90118464D01*
X87575000Y-90118464D01*
X87723659Y-90088894D01*
X87725000Y-90087998D01*
X87726341Y-90088894D01*
X87875000Y-90118464D01*
X88525000Y-90118464D01*
X88673659Y-90088894D01*
X88675000Y-90087998D01*
X88676341Y-90088894D01*
X88825000Y-90118464D01*
X89475000Y-90118464D01*
X89596903Y-90094216D01*
X89686307Y-90310056D01*
X89889944Y-90513693D01*
X90156007Y-90623900D01*
X90349922Y-90623900D01*
X90517468Y-90791446D01*
X90542977Y-90829623D01*
X90562698Y-90842800D01*
X90145030Y-90842800D01*
X90100000Y-90833843D01*
X89921609Y-90869327D01*
X89863464Y-90908178D01*
X89863464Y-90870000D01*
X89833894Y-90721341D01*
X89749686Y-90595314D01*
X89623659Y-90511106D01*
X89475000Y-90481536D01*
X89034561Y-90481536D01*
X88884699Y-90331673D01*
X88651310Y-90235000D01*
X88485750Y-90235000D01*
X88327000Y-90393750D01*
X88327000Y-91523000D01*
X88347000Y-91523000D01*
X88347000Y-91777000D01*
X88327000Y-91777000D01*
X88327000Y-91797000D01*
X88073000Y-91797000D01*
X88073000Y-91777000D01*
X88053000Y-91777000D01*
X88053000Y-91523000D01*
X88073000Y-91523000D01*
X88073000Y-90393750D01*
X87914250Y-90235000D01*
X87748690Y-90235000D01*
X87515301Y-90331673D01*
X87365439Y-90481536D01*
X86925000Y-90481536D01*
X86776341Y-90511106D01*
X86650314Y-90595314D01*
X86566106Y-90721341D01*
X86536536Y-90870000D01*
X86536536Y-92430000D01*
X86566106Y-92578659D01*
X86650314Y-92704686D01*
X86776341Y-92788894D01*
X86847573Y-92803063D01*
X86894870Y-92873848D01*
X86920378Y-92912023D01*
X86958552Y-92937530D01*
X87611022Y-93590000D01*
X86858552Y-94342470D01*
X86820378Y-94367977D01*
X86794871Y-94406151D01*
X86794870Y-94406152D01*
X86719327Y-94519210D01*
X86683843Y-94697600D01*
X86692801Y-94742634D01*
X86692800Y-95454969D01*
X86683843Y-95500000D01*
X86719327Y-95678391D01*
X86767174Y-95749999D01*
X86811536Y-95816391D01*
X86811536Y-96150000D01*
X86841106Y-96298659D01*
X86925314Y-96424686D01*
X87051341Y-96508894D01*
X87200000Y-96538464D01*
X87900000Y-96538464D01*
X88048659Y-96508894D01*
X88174686Y-96424686D01*
X88258894Y-96298659D01*
X88288464Y-96150000D01*
X88288464Y-94850000D01*
X88258894Y-94701341D01*
X88174686Y-94575314D01*
X88048659Y-94491106D01*
X88010636Y-94483543D01*
X88435379Y-94058800D01*
X91080770Y-94058800D01*
X91125800Y-94067757D01*
X91170830Y-94058800D01*
X92777062Y-94058800D01*
X92589944Y-94136307D01*
X92386307Y-94339944D01*
X92276100Y-94606007D01*
X92276100Y-94893993D01*
X92369514Y-95119514D01*
X92143993Y-95026100D01*
X91856007Y-95026100D01*
X91589944Y-95136307D01*
X91433451Y-95292800D01*
X90289378Y-95292800D01*
X90205133Y-95208555D01*
X90188464Y-95183608D01*
X90188464Y-94850000D01*
X90158894Y-94701341D01*
X90074686Y-94575314D01*
X89948659Y-94491106D01*
X89800000Y-94461536D01*
X89100000Y-94461536D01*
X88951341Y-94491106D01*
X88825314Y-94575314D01*
X88741106Y-94701341D01*
X88711536Y-94850000D01*
X88711536Y-96150000D01*
X88741106Y-96298659D01*
X88825314Y-96424686D01*
X88951341Y-96508894D01*
X88989365Y-96516457D01*
X88963022Y-96542800D01*
X88545030Y-96542800D01*
X88500000Y-96533843D01*
X88454970Y-96542800D01*
X88321609Y-96569327D01*
X88170377Y-96670377D01*
X88144870Y-96708552D01*
X87708552Y-97144870D01*
X87670378Y-97170377D01*
X87644871Y-97208551D01*
X87644870Y-97208552D01*
X87599909Y-97275841D01*
X87501310Y-97235000D01*
X87335750Y-97235000D01*
X87177000Y-97393750D01*
X87177000Y-98523000D01*
X87197000Y-98523000D01*
X87197000Y-98777000D01*
X87177000Y-98777000D01*
X87177000Y-99906250D01*
X87308862Y-100038112D01*
X87165439Y-100181536D01*
X86725000Y-100181536D01*
X86576341Y-100211106D01*
X86450314Y-100295314D01*
X86366106Y-100421341D01*
X86336536Y-100570000D01*
X86336536Y-102130000D01*
X86366106Y-102278659D01*
X86450314Y-102404686D01*
X86576341Y-102488894D01*
X86592801Y-102492168D01*
X86592801Y-103004965D01*
X86583843Y-103050000D01*
X86619327Y-103228390D01*
X86619328Y-103228391D01*
X86720378Y-103379623D01*
X86758552Y-103405130D01*
X87144870Y-103791448D01*
X87170377Y-103829623D01*
X87321609Y-103930673D01*
X87499999Y-103966157D01*
X87545029Y-103957200D01*
X90810622Y-103957200D01*
X90866422Y-104013000D01*
X86412606Y-104013000D01*
X85852000Y-103452394D01*
X85852000Y-98935750D01*
X86090000Y-98935750D01*
X86090000Y-99556309D01*
X86186673Y-99789698D01*
X86365301Y-99968327D01*
X86598690Y-100065000D01*
X86764250Y-100065000D01*
X86923000Y-99906250D01*
X86923000Y-98777000D01*
X86248750Y-98777000D01*
X86090000Y-98935750D01*
X85852000Y-98935750D01*
X85852000Y-97743691D01*
X86090000Y-97743691D01*
X86090000Y-98364250D01*
X86248750Y-98523000D01*
X86923000Y-98523000D01*
X86923000Y-97393750D01*
X86764250Y-97235000D01*
X86598690Y-97235000D01*
X86365301Y-97331673D01*
X86186673Y-97510302D01*
X86090000Y-97743691D01*
X85852000Y-97743691D01*
X85852000Y-76660750D01*
X88365000Y-76660750D01*
X88365000Y-78251310D01*
X88461673Y-78484699D01*
X88640302Y-78663327D01*
X88873691Y-78760000D01*
X89214250Y-78760000D01*
X89373000Y-78601250D01*
X89373000Y-76502000D01*
X88523750Y-76502000D01*
X88365000Y-76660750D01*
X85852000Y-76660750D01*
X85852000Y-74498690D01*
X88365000Y-74498690D01*
X88365000Y-76089250D01*
X88523750Y-76248000D01*
X89373000Y-76248000D01*
X89373000Y-74148750D01*
X89627000Y-74148750D01*
X89627000Y-76248000D01*
X89647000Y-76248000D01*
X89647000Y-76502000D01*
X89627000Y-76502000D01*
X89627000Y-78601250D01*
X89785750Y-78760000D01*
X90126309Y-78760000D01*
X90359698Y-78663327D01*
X90538327Y-78484699D01*
X90635000Y-78251310D01*
X90635000Y-78242962D01*
X90641106Y-78273659D01*
X90725314Y-78399686D01*
X90851341Y-78483894D01*
X91000000Y-78513464D01*
X92000000Y-78513464D01*
X92148659Y-78483894D01*
X92274686Y-78399686D01*
X92358894Y-78273659D01*
X92388464Y-78125000D01*
X92388464Y-74625000D01*
X92611536Y-74625000D01*
X92611536Y-78125000D01*
X92641106Y-78273659D01*
X92725314Y-78399686D01*
X92851341Y-78483894D01*
X93000000Y-78513464D01*
X93042801Y-78513464D01*
X93042800Y-79833451D01*
X92886307Y-79989944D01*
X92776100Y-80256007D01*
X92776100Y-80543993D01*
X92886307Y-80810056D01*
X93089944Y-81013693D01*
X93356007Y-81123900D01*
X93643993Y-81123900D01*
X93910056Y-81013693D01*
X94113693Y-80810056D01*
X94223900Y-80543993D01*
X94223900Y-80256007D01*
X94113693Y-79989944D01*
X93957200Y-79833451D01*
X93957200Y-78513464D01*
X94000000Y-78513464D01*
X94148659Y-78483894D01*
X94274686Y-78399686D01*
X94358894Y-78273659D01*
X94388464Y-78125000D01*
X94388464Y-74625000D01*
X94611536Y-74625000D01*
X94611536Y-78125000D01*
X94641106Y-78273659D01*
X94725314Y-78399686D01*
X94851341Y-78483894D01*
X95000000Y-78513464D01*
X95042800Y-78513464D01*
X95042800Y-79833451D01*
X94886307Y-79989944D01*
X94776100Y-80256007D01*
X94776100Y-80543993D01*
X94886307Y-80810056D01*
X95089944Y-81013693D01*
X95356007Y-81123900D01*
X95643993Y-81123900D01*
X95910056Y-81013693D01*
X96113693Y-80810056D01*
X96223900Y-80543993D01*
X96223900Y-80256007D01*
X96113693Y-79989944D01*
X95957200Y-79833451D01*
X95957200Y-78513464D01*
X96000000Y-78513464D01*
X96148659Y-78483894D01*
X96274686Y-78399686D01*
X96358894Y-78273659D01*
X96388464Y-78125000D01*
X96388464Y-74625000D01*
X96358894Y-74476341D01*
X96274686Y-74350314D01*
X96148659Y-74266106D01*
X96000000Y-74236536D01*
X95000000Y-74236536D01*
X94851341Y-74266106D01*
X94725314Y-74350314D01*
X94641106Y-74476341D01*
X94611536Y-74625000D01*
X94388464Y-74625000D01*
X94358894Y-74476341D01*
X94274686Y-74350314D01*
X94148659Y-74266106D01*
X94000000Y-74236536D01*
X93000000Y-74236536D01*
X92851341Y-74266106D01*
X92725314Y-74350314D01*
X92641106Y-74476341D01*
X92611536Y-74625000D01*
X92388464Y-74625000D01*
X92358894Y-74476341D01*
X92274686Y-74350314D01*
X92148659Y-74266106D01*
X92000000Y-74236536D01*
X91957200Y-74236536D01*
X91957200Y-73439378D01*
X92422678Y-72973900D01*
X92643993Y-72973900D01*
X92910056Y-72863693D01*
X93113693Y-72660056D01*
X93223900Y-72393993D01*
X93223900Y-72106007D01*
X93113693Y-71839944D01*
X92910056Y-71636307D01*
X92643993Y-71526100D01*
X92356007Y-71526100D01*
X92089944Y-71636307D01*
X91886307Y-71839944D01*
X91776100Y-72106007D01*
X91776100Y-72327322D01*
X91208552Y-72894870D01*
X91170378Y-72920377D01*
X91144871Y-72958551D01*
X91144870Y-72958552D01*
X91069327Y-73071610D01*
X91033843Y-73250000D01*
X91042801Y-73295035D01*
X91042801Y-74236536D01*
X91000000Y-74236536D01*
X90851341Y-74266106D01*
X90725314Y-74350314D01*
X90641106Y-74476341D01*
X90635000Y-74507038D01*
X90635000Y-74498690D01*
X90538327Y-74265301D01*
X90359698Y-74086673D01*
X90126309Y-73990000D01*
X89785750Y-73990000D01*
X89627000Y-74148750D01*
X89373000Y-74148750D01*
X89214250Y-73990000D01*
X88873691Y-73990000D01*
X88640302Y-74086673D01*
X88461673Y-74265301D01*
X88365000Y-74498690D01*
X85852000Y-74498690D01*
X85852000Y-68925000D01*
X86011536Y-68925000D01*
X86011536Y-72325000D01*
X86041106Y-72473659D01*
X86125314Y-72599686D01*
X86251341Y-72683894D01*
X86400000Y-72713464D01*
X87900000Y-72713464D01*
X88048659Y-72683894D01*
X88174686Y-72599686D01*
X88258894Y-72473659D01*
X88288464Y-72325000D01*
X88288464Y-68925000D01*
X96711536Y-68925000D01*
X96711536Y-72325000D01*
X96741106Y-72473659D01*
X96825314Y-72599686D01*
X96951341Y-72683894D01*
X97100000Y-72713464D01*
X98600000Y-72713464D01*
X98748659Y-72683894D01*
X98874686Y-72599686D01*
X98958894Y-72473659D01*
X98988464Y-72325000D01*
X98988464Y-68925000D01*
X98958894Y-68776341D01*
X98874686Y-68650314D01*
X98748659Y-68566106D01*
X98600000Y-68536536D01*
X97100000Y-68536536D01*
X96951341Y-68566106D01*
X96825314Y-68650314D01*
X96741106Y-68776341D01*
X96711536Y-68925000D01*
X88288464Y-68925000D01*
X88258894Y-68776341D01*
X88174686Y-68650314D01*
X88048659Y-68566106D01*
X87900000Y-68536536D01*
X86400000Y-68536536D01*
X86251341Y-68566106D01*
X86125314Y-68650314D01*
X86041106Y-68776341D01*
X86011536Y-68925000D01*
X85852000Y-68925000D01*
X85852000Y-57606007D01*
X86276100Y-57606007D01*
X86276100Y-57893993D01*
X86386307Y-58160056D01*
X86589944Y-58363693D01*
X86856007Y-58473900D01*
X87143993Y-58473900D01*
X87410056Y-58363693D01*
X87613693Y-58160056D01*
X87723900Y-57893993D01*
X87723900Y-57672678D01*
X88291446Y-57105132D01*
X88329623Y-57079623D01*
X88430673Y-56928391D01*
X88457200Y-56795030D01*
X88466157Y-56750000D01*
X88457200Y-56704970D01*
X88457200Y-55188464D01*
X88650000Y-55188464D01*
X88798659Y-55158894D01*
X88924686Y-55074686D01*
X89008894Y-54948659D01*
X89038464Y-54800000D01*
X89038464Y-54100000D01*
X89008894Y-53951341D01*
X88924686Y-53825314D01*
X88798659Y-53741106D01*
X88650000Y-53711536D01*
X87350000Y-53711536D01*
X87201341Y-53741106D01*
X87075314Y-53825314D01*
X86991106Y-53951341D01*
X86961536Y-54100000D01*
X86961536Y-54800000D01*
X86991106Y-54948659D01*
X87075314Y-55074686D01*
X87201341Y-55158894D01*
X87350000Y-55188464D01*
X87542800Y-55188464D01*
X87542801Y-56560621D01*
X87077322Y-57026100D01*
X86856007Y-57026100D01*
X86589944Y-57136307D01*
X86386307Y-57339944D01*
X86276100Y-57606007D01*
X85852000Y-57606007D01*
X85852000Y-52200000D01*
X86961536Y-52200000D01*
X86961536Y-52900000D01*
X86991106Y-53048659D01*
X87075314Y-53174686D01*
X87201341Y-53258894D01*
X87350000Y-53288464D01*
X88650000Y-53288464D01*
X88798659Y-53258894D01*
X88924686Y-53174686D01*
X89008894Y-53048659D01*
X89038464Y-52900000D01*
X89038464Y-52200000D01*
X89008894Y-52051341D01*
X88924686Y-51925314D01*
X88798659Y-51841106D01*
X88650000Y-51811536D01*
X88457200Y-51811536D01*
X88457200Y-50939378D01*
X88689379Y-50707200D01*
X92042800Y-50707200D01*
X92042800Y-50711536D01*
X91700000Y-50711536D01*
X91551341Y-50741106D01*
X91425314Y-50825314D01*
X91341106Y-50951341D01*
X91311536Y-51100000D01*
X91311536Y-52171623D01*
X91185817Y-52056381D01*
X91151753Y-52034023D01*
X91103431Y-52023046D01*
X91054587Y-52031397D01*
X91012656Y-52057804D01*
X90062656Y-52957804D01*
X90032667Y-53001399D01*
X90023000Y-53050000D01*
X90023000Y-53150000D01*
X90032667Y-53198601D01*
X90060197Y-53239803D01*
X90110197Y-53289803D01*
X90146294Y-53315085D01*
X90194423Y-53326877D01*
X90214690Y-53323764D01*
X89963583Y-53556935D01*
X89929517Y-53609839D01*
X89879517Y-53759839D01*
X89873320Y-53790997D01*
X89879517Y-53840161D01*
X89904057Y-53883211D01*
X89928453Y-53902144D01*
X89943204Y-53913592D01*
X90043204Y-53963592D01*
X90088054Y-53976437D01*
X90137349Y-53971384D01*
X90330269Y-53912024D01*
X89907349Y-54363139D01*
X89882667Y-54401399D01*
X89873000Y-54450000D01*
X89873000Y-54550000D01*
X89879517Y-54590161D01*
X89904057Y-54633211D01*
X89943204Y-54663592D01*
X90043204Y-54713592D01*
X90088609Y-54726488D01*
X90137881Y-54721219D01*
X90773000Y-54522744D01*
X90773000Y-55600000D01*
X90782667Y-55648601D01*
X90810197Y-55689803D01*
X90851399Y-55717333D01*
X90900000Y-55727000D01*
X91106707Y-55727000D01*
X91161673Y-55859699D01*
X91340302Y-56038327D01*
X91573691Y-56135000D01*
X92214250Y-56135000D01*
X92373000Y-55976250D01*
X92373000Y-55027000D01*
X92353000Y-55027000D01*
X92353000Y-54977000D01*
X92647000Y-54977000D01*
X92647000Y-55027000D01*
X92627000Y-55027000D01*
X92627000Y-55976250D01*
X92785750Y-56135000D01*
X93426309Y-56135000D01*
X93659698Y-56038327D01*
X93838327Y-55859699D01*
X93893293Y-55727000D01*
X94100000Y-55727000D01*
X94148601Y-55717333D01*
X94189803Y-55689803D01*
X94217333Y-55648601D01*
X94227000Y-55600000D01*
X94227000Y-54522744D01*
X94862119Y-54721219D01*
X94900000Y-54727000D01*
X94948601Y-54717333D01*
X94989803Y-54689803D01*
X95089803Y-54589803D01*
X95114073Y-54555825D01*
X95126753Y-54507922D01*
X95120136Y-54458813D01*
X95095229Y-54415974D01*
X94615503Y-53872284D01*
X94819198Y-53923208D01*
X94850000Y-53927000D01*
X94950000Y-53927000D01*
X94998601Y-53917333D01*
X95039803Y-53889803D01*
X95067333Y-53848601D01*
X95077000Y-53800000D01*
X95077000Y-53700000D01*
X95067333Y-53651399D01*
X95039803Y-53610197D01*
X94755784Y-53326178D01*
X94759003Y-53326680D01*
X94806796Y-53313592D01*
X94906796Y-53263592D01*
X94939803Y-53239803D01*
X94967333Y-53198601D01*
X94977000Y-53150000D01*
X94977000Y-53100000D01*
X94967333Y-53051399D01*
X94939803Y-53010197D01*
X93989803Y-52060197D01*
X93948601Y-52032667D01*
X93900000Y-52023000D01*
X93851399Y-52032667D01*
X93810197Y-52060197D01*
X93762316Y-52108078D01*
X93688464Y-52175216D01*
X93688464Y-51100000D01*
X93658894Y-50951341D01*
X93574686Y-50825314D01*
X93448659Y-50741106D01*
X93300000Y-50711536D01*
X92957200Y-50711536D01*
X92957200Y-50545029D01*
X92966157Y-50499999D01*
X92930673Y-50321609D01*
X92929148Y-50319327D01*
X92829623Y-50170377D01*
X92791444Y-50144867D01*
X92605133Y-49958555D01*
X92579623Y-49920377D01*
X92428391Y-49819327D01*
X92295030Y-49792800D01*
X92250000Y-49783843D01*
X92204970Y-49792800D01*
X88545030Y-49792800D01*
X88500000Y-49783843D01*
X88454970Y-49792800D01*
X88321609Y-49819327D01*
X88170377Y-49920377D01*
X88144870Y-49958552D01*
X87708552Y-50394870D01*
X87670378Y-50420377D01*
X87644871Y-50458551D01*
X87644870Y-50458552D01*
X87569327Y-50571610D01*
X87533843Y-50750000D01*
X87542801Y-50795035D01*
X87542800Y-51811536D01*
X87350000Y-51811536D01*
X87201341Y-51841106D01*
X87075314Y-51925314D01*
X86991106Y-52051341D01*
X86961536Y-52200000D01*
X85852000Y-52200000D01*
X85852000Y-40692606D01*
X86412606Y-40132000D01*
X99007394Y-40132000D01*
X99568000Y-40692606D01*
G36*
X91776100Y-98643993D02*
X91886307Y-98910056D01*
X92089944Y-99113693D01*
X92356007Y-99223900D01*
X92643993Y-99223900D01*
X92910056Y-99113693D01*
X93066549Y-98957200D01*
X95336536Y-98957200D01*
X95336536Y-99430000D01*
X95358973Y-99542800D01*
X89641027Y-99542800D01*
X89663464Y-99430000D01*
X89663464Y-99107200D01*
X90804970Y-99107200D01*
X90850000Y-99116157D01*
X90895030Y-99107200D01*
X91028391Y-99080673D01*
X91179623Y-98979623D01*
X91205132Y-98941446D01*
X91776100Y-98370478D01*
X91776100Y-98643993D01*
X91776100Y-98643993D01*
G37*
X91776100Y-98643993D02*
X91886307Y-98910056D01*
X92089944Y-99113693D01*
X92356007Y-99223900D01*
X92643993Y-99223900D01*
X92910056Y-99113693D01*
X93066549Y-98957200D01*
X95336536Y-98957200D01*
X95336536Y-99430000D01*
X95358973Y-99542800D01*
X89641027Y-99542800D01*
X89663464Y-99430000D01*
X89663464Y-99107200D01*
X90804970Y-99107200D01*
X90850000Y-99116157D01*
X90895030Y-99107200D01*
X91028391Y-99080673D01*
X91179623Y-98979623D01*
X91205132Y-98941446D01*
X91776100Y-98370478D01*
X91776100Y-98643993D01*
G36*
X91589944Y-96363693D02*
X91856007Y-96473900D01*
X92143993Y-96473900D01*
X92410056Y-96363693D01*
X92542800Y-96230949D01*
X92542800Y-96310621D01*
X91958554Y-96894868D01*
X91920377Y-96920377D01*
X91894870Y-96958551D01*
X90660622Y-98192800D01*
X89663464Y-98192800D01*
X89663464Y-97870000D01*
X89633894Y-97721341D01*
X89549686Y-97595314D01*
X89423659Y-97511106D01*
X89275000Y-97481536D01*
X88665043Y-97481536D01*
X88689379Y-97457200D01*
X89107370Y-97457200D01*
X89152400Y-97466157D01*
X89197430Y-97457200D01*
X89330791Y-97430673D01*
X89482023Y-97329623D01*
X89507532Y-97291446D01*
X90141446Y-96657532D01*
X90179623Y-96632023D01*
X90280673Y-96480791D01*
X90307200Y-96347430D01*
X90307200Y-96347429D01*
X90316157Y-96302401D01*
X90307200Y-96257371D01*
X90307200Y-96207200D01*
X91433451Y-96207200D01*
X91589944Y-96363693D01*
X91589944Y-96363693D01*
G37*
X91589944Y-96363693D02*
X91856007Y-96473900D01*
X92143993Y-96473900D01*
X92410056Y-96363693D01*
X92542800Y-96230949D01*
X92542800Y-96310621D01*
X91958554Y-96894868D01*
X91920377Y-96920377D01*
X91894870Y-96958551D01*
X90660622Y-98192800D01*
X89663464Y-98192800D01*
X89663464Y-97870000D01*
X89633894Y-97721341D01*
X89549686Y-97595314D01*
X89423659Y-97511106D01*
X89275000Y-97481536D01*
X88665043Y-97481536D01*
X88689379Y-97457200D01*
X89107370Y-97457200D01*
X89152400Y-97466157D01*
X89197430Y-97457200D01*
X89330791Y-97430673D01*
X89482023Y-97329623D01*
X89507532Y-97291446D01*
X90141446Y-96657532D01*
X90179623Y-96632023D01*
X90280673Y-96480791D01*
X90307200Y-96347430D01*
X90307200Y-96347429D01*
X90316157Y-96302401D01*
X90307200Y-96257371D01*
X90307200Y-96207200D01*
X91433451Y-96207200D01*
X91589944Y-96363693D01*
G36*
X90636536Y-92550000D02*
X90666106Y-92698659D01*
X90750314Y-92824686D01*
X90876341Y-92908894D01*
X91025000Y-92938464D01*
X91142358Y-92938464D01*
X90936422Y-93144400D01*
X88458578Y-93144400D01*
X88327002Y-93012824D01*
X88327002Y-92906252D01*
X88485750Y-93065000D01*
X88651310Y-93065000D01*
X88884699Y-92968327D01*
X89034561Y-92818464D01*
X89475000Y-92818464D01*
X89623659Y-92788894D01*
X89749686Y-92704686D01*
X89833894Y-92578659D01*
X89863464Y-92430000D01*
X89863464Y-92093588D01*
X89928391Y-92080673D01*
X90079623Y-91979623D01*
X90105132Y-91941446D01*
X90289379Y-91757200D01*
X90636536Y-91757200D01*
X90636536Y-92550000D01*
X90636536Y-92550000D01*
G37*
X90636536Y-92550000D02*
X90666106Y-92698659D01*
X90750314Y-92824686D01*
X90876341Y-92908894D01*
X91025000Y-92938464D01*
X91142358Y-92938464D01*
X90936422Y-93144400D01*
X88458578Y-93144400D01*
X88327002Y-93012824D01*
X88327002Y-92906252D01*
X88485750Y-93065000D01*
X88651310Y-93065000D01*
X88884699Y-92968327D01*
X89034561Y-92818464D01*
X89475000Y-92818464D01*
X89623659Y-92788894D01*
X89749686Y-92704686D01*
X89833894Y-92578659D01*
X89863464Y-92430000D01*
X89863464Y-92093588D01*
X89928391Y-92080673D01*
X90079623Y-91979623D01*
X90105132Y-91941446D01*
X90289379Y-91757200D01*
X90636536Y-91757200D01*
X90636536Y-92550000D01*
G36*
X92614301Y-109426471D02*
X92605344Y-109471501D01*
X92614301Y-109516530D01*
X92640828Y-109649891D01*
X92741878Y-109801124D01*
X92780055Y-109826633D01*
X93342920Y-110389499D01*
X93368427Y-110427673D01*
X93406601Y-110453180D01*
X93519659Y-110528723D01*
X93698049Y-110564207D01*
X93743079Y-110555250D01*
X94267246Y-110555250D01*
X94345747Y-110672736D01*
X94471774Y-110756944D01*
X94620433Y-110786514D01*
X96170433Y-110786514D01*
X96319092Y-110756944D01*
X96445119Y-110672736D01*
X96529327Y-110546709D01*
X96558897Y-110398050D01*
X96558897Y-109798050D01*
X96529327Y-109649391D01*
X96445119Y-109523364D01*
X96354852Y-109463050D01*
X96445119Y-109402736D01*
X96523620Y-109285250D01*
X97007504Y-109285250D01*
X97075314Y-109386736D01*
X97201341Y-109470944D01*
X97350000Y-109500514D01*
X97542800Y-109500514D01*
X97542801Y-110910621D01*
X97158554Y-111294868D01*
X97120377Y-111320377D01*
X97084715Y-111373750D01*
X97019327Y-111471610D01*
X97018090Y-111477829D01*
X96951341Y-111491106D01*
X96825314Y-111575314D01*
X96741106Y-111701341D01*
X96711536Y-111850000D01*
X96711536Y-113150000D01*
X96741106Y-113298659D01*
X96825314Y-113424686D01*
X96951341Y-113508894D01*
X97100000Y-113538464D01*
X97800000Y-113538464D01*
X97948659Y-113508894D01*
X98074686Y-113424686D01*
X98158894Y-113298659D01*
X98188464Y-113150000D01*
X98188464Y-111850000D01*
X98158894Y-111701341D01*
X98113370Y-111633208D01*
X98291446Y-111455132D01*
X98329623Y-111429623D01*
X98430673Y-111278391D01*
X98457200Y-111145030D01*
X98457200Y-111145026D01*
X98466156Y-111100001D01*
X98457200Y-111054976D01*
X98457200Y-109500514D01*
X98650000Y-109500514D01*
X98798659Y-109470944D01*
X98924686Y-109386736D01*
X99008894Y-109260709D01*
X99038464Y-109112050D01*
X99038464Y-108412050D01*
X99008894Y-108263391D01*
X98924686Y-108137364D01*
X98798659Y-108053156D01*
X98650000Y-108023586D01*
X97350000Y-108023586D01*
X97201341Y-108053156D01*
X97075314Y-108137364D01*
X96991106Y-108263391D01*
X96969731Y-108370850D01*
X96523620Y-108370850D01*
X96445119Y-108253364D01*
X96354852Y-108193050D01*
X96445119Y-108132736D01*
X96523620Y-108015250D01*
X96958970Y-108015250D01*
X97004000Y-108024207D01*
X97049030Y-108015250D01*
X97182391Y-107988723D01*
X97333623Y-107887673D01*
X97359132Y-107849496D01*
X97608114Y-107600514D01*
X98650000Y-107600514D01*
X98798659Y-107570944D01*
X98924686Y-107486736D01*
X99008894Y-107360709D01*
X99016457Y-107322686D01*
X99042801Y-107349030D01*
X99042800Y-113543221D01*
X97863554Y-114722468D01*
X97825377Y-114747977D01*
X97762863Y-114841536D01*
X96650000Y-114841536D01*
X96501341Y-114871106D01*
X96375314Y-114955314D01*
X96291106Y-115081341D01*
X96261536Y-115230000D01*
X96261536Y-116230000D01*
X96291106Y-116378659D01*
X96375314Y-116504686D01*
X96501341Y-116588894D01*
X96650000Y-116618464D01*
X99160000Y-116618464D01*
X99308659Y-116588894D01*
X99434686Y-116504686D01*
X99518894Y-116378659D01*
X99548464Y-116230000D01*
X99548464Y-115230000D01*
X99518894Y-115081341D01*
X99434686Y-114955314D01*
X99308659Y-114871106D01*
X99160000Y-114841536D01*
X99037642Y-114841536D01*
X99568000Y-114311179D01*
X99568000Y-147902394D01*
X99007394Y-148463000D01*
X86412606Y-148463000D01*
X85852000Y-147902394D01*
X85852000Y-139777749D01*
X88869000Y-139777749D01*
X88869000Y-141222251D01*
X89421787Y-142556796D01*
X90443204Y-143578213D01*
X91777749Y-144131000D01*
X93222251Y-144131000D01*
X94556796Y-143578213D01*
X95578213Y-142556796D01*
X96131000Y-141222251D01*
X96131000Y-139777749D01*
X95578213Y-138443204D01*
X94556796Y-137421787D01*
X93222251Y-136869000D01*
X91777749Y-136869000D01*
X90443204Y-137421787D01*
X89421787Y-138443204D01*
X88869000Y-139777749D01*
X85852000Y-139777749D01*
X85852000Y-126277749D01*
X88869000Y-126277749D01*
X88869000Y-127722251D01*
X89421787Y-129056796D01*
X90443204Y-130078213D01*
X91777749Y-130631000D01*
X93222251Y-130631000D01*
X94556796Y-130078213D01*
X95578213Y-129056796D01*
X96131000Y-127722251D01*
X96131000Y-126277749D01*
X95578213Y-124943204D01*
X94556796Y-123921787D01*
X93222251Y-123369000D01*
X91777749Y-123369000D01*
X90443204Y-123921787D01*
X89421787Y-124943204D01*
X88869000Y-126277749D01*
X85852000Y-126277749D01*
X85852000Y-119280025D01*
X85880302Y-119308327D01*
X86113691Y-119405000D01*
X87209250Y-119405000D01*
X87368000Y-119246250D01*
X87368000Y-118397000D01*
X87622000Y-118397000D01*
X87622000Y-119246250D01*
X87780750Y-119405000D01*
X88876309Y-119405000D01*
X89109698Y-119308327D01*
X89288327Y-119129699D01*
X89385000Y-118896310D01*
X89385000Y-118555750D01*
X92705000Y-118555750D01*
X92705000Y-118896310D01*
X92801673Y-119129699D01*
X92980302Y-119308327D01*
X93213691Y-119405000D01*
X94309250Y-119405000D01*
X94468000Y-119246250D01*
X94468000Y-118397000D01*
X94722000Y-118397000D01*
X94722000Y-119246250D01*
X94880750Y-119405000D01*
X95976309Y-119405000D01*
X96209698Y-119308327D01*
X96388327Y-119129699D01*
X96485000Y-118896310D01*
X96485000Y-118555750D01*
X96326250Y-118397000D01*
X94722000Y-118397000D01*
X94468000Y-118397000D01*
X92863750Y-118397000D01*
X92705000Y-118555750D01*
X89385000Y-118555750D01*
X89226250Y-118397000D01*
X87622000Y-118397000D01*
X87368000Y-118397000D01*
X87348000Y-118397000D01*
X87348000Y-118143000D01*
X87368000Y-118143000D01*
X87368000Y-117293750D01*
X87622000Y-117293750D01*
X87622000Y-118143000D01*
X89226250Y-118143000D01*
X89385000Y-117984250D01*
X89385000Y-117643690D01*
X92705000Y-117643690D01*
X92705000Y-117984250D01*
X92863750Y-118143000D01*
X94468000Y-118143000D01*
X94468000Y-117293750D01*
X94722000Y-117293750D01*
X94722000Y-118143000D01*
X96326250Y-118143000D01*
X96485000Y-117984250D01*
X96485000Y-117643690D01*
X96388327Y-117410301D01*
X96209698Y-117231673D01*
X95976309Y-117135000D01*
X94880750Y-117135000D01*
X94722000Y-117293750D01*
X94468000Y-117293750D01*
X94309250Y-117135000D01*
X93213691Y-117135000D01*
X92980302Y-117231673D01*
X92801673Y-117410301D01*
X92705000Y-117643690D01*
X89385000Y-117643690D01*
X89288327Y-117410301D01*
X89109698Y-117231673D01*
X88876309Y-117135000D01*
X87780750Y-117135000D01*
X87622000Y-117293750D01*
X87368000Y-117293750D01*
X87209250Y-117135000D01*
X86113691Y-117135000D01*
X85880302Y-117231673D01*
X85852000Y-117259975D01*
X85852000Y-115748578D01*
X86124868Y-116021446D01*
X86150377Y-116059623D01*
X86301609Y-116160673D01*
X86434970Y-116187200D01*
X86480000Y-116196157D01*
X86525030Y-116187200D01*
X89161536Y-116187200D01*
X89161536Y-116230000D01*
X89191106Y-116378659D01*
X89275314Y-116504686D01*
X89401341Y-116588894D01*
X89550000Y-116618464D01*
X92060000Y-116618464D01*
X92208659Y-116588894D01*
X92334686Y-116504686D01*
X92418894Y-116378659D01*
X92448464Y-116230000D01*
X92448464Y-115230000D01*
X92418894Y-115081341D01*
X92334686Y-114955314D01*
X92208659Y-114871106D01*
X92060000Y-114841536D01*
X89550000Y-114841536D01*
X89401341Y-114871106D01*
X89275314Y-114955314D01*
X89191106Y-115081341D01*
X89161536Y-115230000D01*
X89161536Y-115272800D01*
X86669378Y-115272800D01*
X86457200Y-115060622D01*
X86457200Y-109472109D01*
X86600000Y-109500514D01*
X87341886Y-109500514D01*
X87342801Y-109501429D01*
X87342800Y-111482859D01*
X87301341Y-111491106D01*
X87175314Y-111575314D01*
X87091106Y-111701341D01*
X87061536Y-111850000D01*
X87061536Y-113150000D01*
X87091106Y-113298659D01*
X87175314Y-113424686D01*
X87301341Y-113508894D01*
X87450000Y-113538464D01*
X88150000Y-113538464D01*
X88298659Y-113508894D01*
X88424686Y-113424686D01*
X88508894Y-113298659D01*
X88538464Y-113150000D01*
X88538464Y-112785750D01*
X88715000Y-112785750D01*
X88715000Y-113276310D01*
X88811673Y-113509699D01*
X88990302Y-113688327D01*
X89223691Y-113785000D01*
X89414250Y-113785000D01*
X89573000Y-113626250D01*
X89573000Y-112627000D01*
X89827000Y-112627000D01*
X89827000Y-113626250D01*
X89985750Y-113785000D01*
X90176309Y-113785000D01*
X90409698Y-113688327D01*
X90588327Y-113509699D01*
X90685000Y-113276310D01*
X90685000Y-112785750D01*
X94565000Y-112785750D01*
X94565000Y-113276310D01*
X94661673Y-113509699D01*
X94840302Y-113688327D01*
X95073691Y-113785000D01*
X95264250Y-113785000D01*
X95423000Y-113626250D01*
X95423000Y-112627000D01*
X95677000Y-112627000D01*
X95677000Y-113626250D01*
X95835750Y-113785000D01*
X96026309Y-113785000D01*
X96259698Y-113688327D01*
X96438327Y-113509699D01*
X96535000Y-113276310D01*
X96535000Y-112785750D01*
X96376250Y-112627000D01*
X95677000Y-112627000D01*
X95423000Y-112627000D01*
X94723750Y-112627000D01*
X94565000Y-112785750D01*
X90685000Y-112785750D01*
X90526250Y-112627000D01*
X89827000Y-112627000D01*
X89573000Y-112627000D01*
X88873750Y-112627000D01*
X88715000Y-112785750D01*
X88538464Y-112785750D01*
X88538464Y-111850000D01*
X88513340Y-111723690D01*
X88715000Y-111723690D01*
X88715000Y-112214250D01*
X88873750Y-112373000D01*
X89573000Y-112373000D01*
X89573000Y-111373750D01*
X89827000Y-111373750D01*
X89827000Y-112373000D01*
X90526250Y-112373000D01*
X90685000Y-112214250D01*
X90685000Y-111723690D01*
X94565000Y-111723690D01*
X94565000Y-112214250D01*
X94723750Y-112373000D01*
X95423000Y-112373000D01*
X95423000Y-111373750D01*
X95677000Y-111373750D01*
X95677000Y-112373000D01*
X96376250Y-112373000D01*
X96535000Y-112214250D01*
X96535000Y-111723690D01*
X96438327Y-111490301D01*
X96259698Y-111311673D01*
X96026309Y-111215000D01*
X95835750Y-111215000D01*
X95677000Y-111373750D01*
X95423000Y-111373750D01*
X95264250Y-111215000D01*
X95073691Y-111215000D01*
X94840302Y-111311673D01*
X94661673Y-111490301D01*
X94565000Y-111723690D01*
X90685000Y-111723690D01*
X90588327Y-111490301D01*
X90409698Y-111311673D01*
X90176309Y-111215000D01*
X89985750Y-111215000D01*
X89827000Y-111373750D01*
X89573000Y-111373750D01*
X89414250Y-111215000D01*
X89223691Y-111215000D01*
X88990302Y-111311673D01*
X88811673Y-111490301D01*
X88715000Y-111723690D01*
X88513340Y-111723690D01*
X88508894Y-111701341D01*
X88424686Y-111575314D01*
X88298659Y-111491106D01*
X88257200Y-111482859D01*
X88257200Y-110383800D01*
X88585433Y-110383800D01*
X88585433Y-110524360D01*
X88682106Y-110757749D01*
X88860735Y-110936377D01*
X89094124Y-111033050D01*
X89709683Y-111033050D01*
X89868433Y-110874300D01*
X89868433Y-110225050D01*
X90122433Y-110225050D01*
X90122433Y-110874300D01*
X90281183Y-111033050D01*
X90896742Y-111033050D01*
X91130131Y-110936377D01*
X91308760Y-110757749D01*
X91405433Y-110524360D01*
X91405433Y-110383800D01*
X91246683Y-110225050D01*
X90122433Y-110225050D01*
X89868433Y-110225050D01*
X88744183Y-110225050D01*
X88585433Y-110383800D01*
X88257200Y-110383800D01*
X88257200Y-109357074D01*
X88266156Y-109312049D01*
X88257200Y-109267024D01*
X88257200Y-109267020D01*
X88256621Y-109264110D01*
X88258894Y-109260709D01*
X88288464Y-109112050D01*
X88288464Y-108412050D01*
X88270005Y-108319250D01*
X88404970Y-108319250D01*
X88450000Y-108328207D01*
X88495030Y-108319250D01*
X88628391Y-108292723D01*
X88779623Y-108191673D01*
X88805132Y-108153496D01*
X88897740Y-108060888D01*
X88945747Y-108132736D01*
X89036014Y-108193050D01*
X88945747Y-108253364D01*
X88861539Y-108379391D01*
X88831969Y-108528050D01*
X88831969Y-109128050D01*
X88858587Y-109261871D01*
X88682106Y-109438351D01*
X88585433Y-109671740D01*
X88585433Y-109812300D01*
X88744183Y-109971050D01*
X89868433Y-109971050D01*
X89868433Y-109951050D01*
X90122433Y-109951050D01*
X90122433Y-109971050D01*
X91246683Y-109971050D01*
X91405433Y-109812300D01*
X91405433Y-109671740D01*
X91308760Y-109438351D01*
X91162794Y-109292386D01*
X91171950Y-109294207D01*
X91216980Y-109285250D01*
X91350341Y-109258723D01*
X91501573Y-109157673D01*
X91527082Y-109119496D01*
X91791448Y-108855130D01*
X91829623Y-108829623D01*
X91930673Y-108678391D01*
X91957200Y-108545030D01*
X91966157Y-108500000D01*
X91957200Y-108454970D01*
X91957200Y-104902000D01*
X92614302Y-104902000D01*
X92614301Y-109426471D01*
X92614301Y-109426471D01*
G37*
X92614301Y-109426471D02*
X92605344Y-109471501D01*
X92614301Y-109516530D01*
X92640828Y-109649891D01*
X92741878Y-109801124D01*
X92780055Y-109826633D01*
X93342920Y-110389499D01*
X93368427Y-110427673D01*
X93406601Y-110453180D01*
X93519659Y-110528723D01*
X93698049Y-110564207D01*
X93743079Y-110555250D01*
X94267246Y-110555250D01*
X94345747Y-110672736D01*
X94471774Y-110756944D01*
X94620433Y-110786514D01*
X96170433Y-110786514D01*
X96319092Y-110756944D01*
X96445119Y-110672736D01*
X96529327Y-110546709D01*
X96558897Y-110398050D01*
X96558897Y-109798050D01*
X96529327Y-109649391D01*
X96445119Y-109523364D01*
X96354852Y-109463050D01*
X96445119Y-109402736D01*
X96523620Y-109285250D01*
X97007504Y-109285250D01*
X97075314Y-109386736D01*
X97201341Y-109470944D01*
X97350000Y-109500514D01*
X97542800Y-109500514D01*
X97542801Y-110910621D01*
X97158554Y-111294868D01*
X97120377Y-111320377D01*
X97084715Y-111373750D01*
X97019327Y-111471610D01*
X97018090Y-111477829D01*
X96951341Y-111491106D01*
X96825314Y-111575314D01*
X96741106Y-111701341D01*
X96711536Y-111850000D01*
X96711536Y-113150000D01*
X96741106Y-113298659D01*
X96825314Y-113424686D01*
X96951341Y-113508894D01*
X97100000Y-113538464D01*
X97800000Y-113538464D01*
X97948659Y-113508894D01*
X98074686Y-113424686D01*
X98158894Y-113298659D01*
X98188464Y-113150000D01*
X98188464Y-111850000D01*
X98158894Y-111701341D01*
X98113370Y-111633208D01*
X98291446Y-111455132D01*
X98329623Y-111429623D01*
X98430673Y-111278391D01*
X98457200Y-111145030D01*
X98457200Y-111145026D01*
X98466156Y-111100001D01*
X98457200Y-111054976D01*
X98457200Y-109500514D01*
X98650000Y-109500514D01*
X98798659Y-109470944D01*
X98924686Y-109386736D01*
X99008894Y-109260709D01*
X99038464Y-109112050D01*
X99038464Y-108412050D01*
X99008894Y-108263391D01*
X98924686Y-108137364D01*
X98798659Y-108053156D01*
X98650000Y-108023586D01*
X97350000Y-108023586D01*
X97201341Y-108053156D01*
X97075314Y-108137364D01*
X96991106Y-108263391D01*
X96969731Y-108370850D01*
X96523620Y-108370850D01*
X96445119Y-108253364D01*
X96354852Y-108193050D01*
X96445119Y-108132736D01*
X96523620Y-108015250D01*
X96958970Y-108015250D01*
X97004000Y-108024207D01*
X97049030Y-108015250D01*
X97182391Y-107988723D01*
X97333623Y-107887673D01*
X97359132Y-107849496D01*
X97608114Y-107600514D01*
X98650000Y-107600514D01*
X98798659Y-107570944D01*
X98924686Y-107486736D01*
X99008894Y-107360709D01*
X99016457Y-107322686D01*
X99042801Y-107349030D01*
X99042800Y-113543221D01*
X97863554Y-114722468D01*
X97825377Y-114747977D01*
X97762863Y-114841536D01*
X96650000Y-114841536D01*
X96501341Y-114871106D01*
X96375314Y-114955314D01*
X96291106Y-115081341D01*
X96261536Y-115230000D01*
X96261536Y-116230000D01*
X96291106Y-116378659D01*
X96375314Y-116504686D01*
X96501341Y-116588894D01*
X96650000Y-116618464D01*
X99160000Y-116618464D01*
X99308659Y-116588894D01*
X99434686Y-116504686D01*
X99518894Y-116378659D01*
X99548464Y-116230000D01*
X99548464Y-115230000D01*
X99518894Y-115081341D01*
X99434686Y-114955314D01*
X99308659Y-114871106D01*
X99160000Y-114841536D01*
X99037642Y-114841536D01*
X99568000Y-114311179D01*
X99568000Y-147902394D01*
X99007394Y-148463000D01*
X86412606Y-148463000D01*
X85852000Y-147902394D01*
X85852000Y-139777749D01*
X88869000Y-139777749D01*
X88869000Y-141222251D01*
X89421787Y-142556796D01*
X90443204Y-143578213D01*
X91777749Y-144131000D01*
X93222251Y-144131000D01*
X94556796Y-143578213D01*
X95578213Y-142556796D01*
X96131000Y-141222251D01*
X96131000Y-139777749D01*
X95578213Y-138443204D01*
X94556796Y-137421787D01*
X93222251Y-136869000D01*
X91777749Y-136869000D01*
X90443204Y-137421787D01*
X89421787Y-138443204D01*
X88869000Y-139777749D01*
X85852000Y-139777749D01*
X85852000Y-126277749D01*
X88869000Y-126277749D01*
X88869000Y-127722251D01*
X89421787Y-129056796D01*
X90443204Y-130078213D01*
X91777749Y-130631000D01*
X93222251Y-130631000D01*
X94556796Y-130078213D01*
X95578213Y-129056796D01*
X96131000Y-127722251D01*
X96131000Y-126277749D01*
X95578213Y-124943204D01*
X94556796Y-123921787D01*
X93222251Y-123369000D01*
X91777749Y-123369000D01*
X90443204Y-123921787D01*
X89421787Y-124943204D01*
X88869000Y-126277749D01*
X85852000Y-126277749D01*
X85852000Y-119280025D01*
X85880302Y-119308327D01*
X86113691Y-119405000D01*
X87209250Y-119405000D01*
X87368000Y-119246250D01*
X87368000Y-118397000D01*
X87622000Y-118397000D01*
X87622000Y-119246250D01*
X87780750Y-119405000D01*
X88876309Y-119405000D01*
X89109698Y-119308327D01*
X89288327Y-119129699D01*
X89385000Y-118896310D01*
X89385000Y-118555750D01*
X92705000Y-118555750D01*
X92705000Y-118896310D01*
X92801673Y-119129699D01*
X92980302Y-119308327D01*
X93213691Y-119405000D01*
X94309250Y-119405000D01*
X94468000Y-119246250D01*
X94468000Y-118397000D01*
X94722000Y-118397000D01*
X94722000Y-119246250D01*
X94880750Y-119405000D01*
X95976309Y-119405000D01*
X96209698Y-119308327D01*
X96388327Y-119129699D01*
X96485000Y-118896310D01*
X96485000Y-118555750D01*
X96326250Y-118397000D01*
X94722000Y-118397000D01*
X94468000Y-118397000D01*
X92863750Y-118397000D01*
X92705000Y-118555750D01*
X89385000Y-118555750D01*
X89226250Y-118397000D01*
X87622000Y-118397000D01*
X87368000Y-118397000D01*
X87348000Y-118397000D01*
X87348000Y-118143000D01*
X87368000Y-118143000D01*
X87368000Y-117293750D01*
X87622000Y-117293750D01*
X87622000Y-118143000D01*
X89226250Y-118143000D01*
X89385000Y-117984250D01*
X89385000Y-117643690D01*
X92705000Y-117643690D01*
X92705000Y-117984250D01*
X92863750Y-118143000D01*
X94468000Y-118143000D01*
X94468000Y-117293750D01*
X94722000Y-117293750D01*
X94722000Y-118143000D01*
X96326250Y-118143000D01*
X96485000Y-117984250D01*
X96485000Y-117643690D01*
X96388327Y-117410301D01*
X96209698Y-117231673D01*
X95976309Y-117135000D01*
X94880750Y-117135000D01*
X94722000Y-117293750D01*
X94468000Y-117293750D01*
X94309250Y-117135000D01*
X93213691Y-117135000D01*
X92980302Y-117231673D01*
X92801673Y-117410301D01*
X92705000Y-117643690D01*
X89385000Y-117643690D01*
X89288327Y-117410301D01*
X89109698Y-117231673D01*
X88876309Y-117135000D01*
X87780750Y-117135000D01*
X87622000Y-117293750D01*
X87368000Y-117293750D01*
X87209250Y-117135000D01*
X86113691Y-117135000D01*
X85880302Y-117231673D01*
X85852000Y-117259975D01*
X85852000Y-115748578D01*
X86124868Y-116021446D01*
X86150377Y-116059623D01*
X86301609Y-116160673D01*
X86434970Y-116187200D01*
X86480000Y-116196157D01*
X86525030Y-116187200D01*
X89161536Y-116187200D01*
X89161536Y-116230000D01*
X89191106Y-116378659D01*
X89275314Y-116504686D01*
X89401341Y-116588894D01*
X89550000Y-116618464D01*
X92060000Y-116618464D01*
X92208659Y-116588894D01*
X92334686Y-116504686D01*
X92418894Y-116378659D01*
X92448464Y-116230000D01*
X92448464Y-115230000D01*
X92418894Y-115081341D01*
X92334686Y-114955314D01*
X92208659Y-114871106D01*
X92060000Y-114841536D01*
X89550000Y-114841536D01*
X89401341Y-114871106D01*
X89275314Y-114955314D01*
X89191106Y-115081341D01*
X89161536Y-115230000D01*
X89161536Y-115272800D01*
X86669378Y-115272800D01*
X86457200Y-115060622D01*
X86457200Y-109472109D01*
X86600000Y-109500514D01*
X87341886Y-109500514D01*
X87342801Y-109501429D01*
X87342800Y-111482859D01*
X87301341Y-111491106D01*
X87175314Y-111575314D01*
X87091106Y-111701341D01*
X87061536Y-111850000D01*
X87061536Y-113150000D01*
X87091106Y-113298659D01*
X87175314Y-113424686D01*
X87301341Y-113508894D01*
X87450000Y-113538464D01*
X88150000Y-113538464D01*
X88298659Y-113508894D01*
X88424686Y-113424686D01*
X88508894Y-113298659D01*
X88538464Y-113150000D01*
X88538464Y-112785750D01*
X88715000Y-112785750D01*
X88715000Y-113276310D01*
X88811673Y-113509699D01*
X88990302Y-113688327D01*
X89223691Y-113785000D01*
X89414250Y-113785000D01*
X89573000Y-113626250D01*
X89573000Y-112627000D01*
X89827000Y-112627000D01*
X89827000Y-113626250D01*
X89985750Y-113785000D01*
X90176309Y-113785000D01*
X90409698Y-113688327D01*
X90588327Y-113509699D01*
X90685000Y-113276310D01*
X90685000Y-112785750D01*
X94565000Y-112785750D01*
X94565000Y-113276310D01*
X94661673Y-113509699D01*
X94840302Y-113688327D01*
X95073691Y-113785000D01*
X95264250Y-113785000D01*
X95423000Y-113626250D01*
X95423000Y-112627000D01*
X95677000Y-112627000D01*
X95677000Y-113626250D01*
X95835750Y-113785000D01*
X96026309Y-113785000D01*
X96259698Y-113688327D01*
X96438327Y-113509699D01*
X96535000Y-113276310D01*
X96535000Y-112785750D01*
X96376250Y-112627000D01*
X95677000Y-112627000D01*
X95423000Y-112627000D01*
X94723750Y-112627000D01*
X94565000Y-112785750D01*
X90685000Y-112785750D01*
X90526250Y-112627000D01*
X89827000Y-112627000D01*
X89573000Y-112627000D01*
X88873750Y-112627000D01*
X88715000Y-112785750D01*
X88538464Y-112785750D01*
X88538464Y-111850000D01*
X88513340Y-111723690D01*
X88715000Y-111723690D01*
X88715000Y-112214250D01*
X88873750Y-112373000D01*
X89573000Y-112373000D01*
X89573000Y-111373750D01*
X89827000Y-111373750D01*
X89827000Y-112373000D01*
X90526250Y-112373000D01*
X90685000Y-112214250D01*
X90685000Y-111723690D01*
X94565000Y-111723690D01*
X94565000Y-112214250D01*
X94723750Y-112373000D01*
X95423000Y-112373000D01*
X95423000Y-111373750D01*
X95677000Y-111373750D01*
X95677000Y-112373000D01*
X96376250Y-112373000D01*
X96535000Y-112214250D01*
X96535000Y-111723690D01*
X96438327Y-111490301D01*
X96259698Y-111311673D01*
X96026309Y-111215000D01*
X95835750Y-111215000D01*
X95677000Y-111373750D01*
X95423000Y-111373750D01*
X95264250Y-111215000D01*
X95073691Y-111215000D01*
X94840302Y-111311673D01*
X94661673Y-111490301D01*
X94565000Y-111723690D01*
X90685000Y-111723690D01*
X90588327Y-111490301D01*
X90409698Y-111311673D01*
X90176309Y-111215000D01*
X89985750Y-111215000D01*
X89827000Y-111373750D01*
X89573000Y-111373750D01*
X89414250Y-111215000D01*
X89223691Y-111215000D01*
X88990302Y-111311673D01*
X88811673Y-111490301D01*
X88715000Y-111723690D01*
X88513340Y-111723690D01*
X88508894Y-111701341D01*
X88424686Y-111575314D01*
X88298659Y-111491106D01*
X88257200Y-111482859D01*
X88257200Y-110383800D01*
X88585433Y-110383800D01*
X88585433Y-110524360D01*
X88682106Y-110757749D01*
X88860735Y-110936377D01*
X89094124Y-111033050D01*
X89709683Y-111033050D01*
X89868433Y-110874300D01*
X89868433Y-110225050D01*
X90122433Y-110225050D01*
X90122433Y-110874300D01*
X90281183Y-111033050D01*
X90896742Y-111033050D01*
X91130131Y-110936377D01*
X91308760Y-110757749D01*
X91405433Y-110524360D01*
X91405433Y-110383800D01*
X91246683Y-110225050D01*
X90122433Y-110225050D01*
X89868433Y-110225050D01*
X88744183Y-110225050D01*
X88585433Y-110383800D01*
X88257200Y-110383800D01*
X88257200Y-109357074D01*
X88266156Y-109312049D01*
X88257200Y-109267024D01*
X88257200Y-109267020D01*
X88256621Y-109264110D01*
X88258894Y-109260709D01*
X88288464Y-109112050D01*
X88288464Y-108412050D01*
X88270005Y-108319250D01*
X88404970Y-108319250D01*
X88450000Y-108328207D01*
X88495030Y-108319250D01*
X88628391Y-108292723D01*
X88779623Y-108191673D01*
X88805132Y-108153496D01*
X88897740Y-108060888D01*
X88945747Y-108132736D01*
X89036014Y-108193050D01*
X88945747Y-108253364D01*
X88861539Y-108379391D01*
X88831969Y-108528050D01*
X88831969Y-109128050D01*
X88858587Y-109261871D01*
X88682106Y-109438351D01*
X88585433Y-109671740D01*
X88585433Y-109812300D01*
X88744183Y-109971050D01*
X89868433Y-109971050D01*
X89868433Y-109951050D01*
X90122433Y-109951050D01*
X90122433Y-109971050D01*
X91246683Y-109971050D01*
X91405433Y-109812300D01*
X91405433Y-109671740D01*
X91308760Y-109438351D01*
X91162794Y-109292386D01*
X91171950Y-109294207D01*
X91216980Y-109285250D01*
X91350341Y-109258723D01*
X91501573Y-109157673D01*
X91527082Y-109119496D01*
X91791448Y-108855130D01*
X91829623Y-108829623D01*
X91930673Y-108678391D01*
X91957200Y-108545030D01*
X91966157Y-108500000D01*
X91957200Y-108454970D01*
X91957200Y-104902000D01*
X92614302Y-104902000D01*
X92614301Y-109426471D01*
G36*
X95042801Y-105599586D02*
X94620433Y-105599586D01*
X94471774Y-105629156D01*
X94345747Y-105713364D01*
X94261539Y-105839391D01*
X94231969Y-105988050D01*
X94231969Y-106588050D01*
X94261539Y-106736709D01*
X94345747Y-106862736D01*
X94436014Y-106923050D01*
X94345747Y-106983364D01*
X94261539Y-107109391D01*
X94231969Y-107258050D01*
X94231969Y-107858050D01*
X94261539Y-108006709D01*
X94345747Y-108132736D01*
X94436014Y-108193050D01*
X94345747Y-108253364D01*
X94261539Y-108379391D01*
X94231969Y-108528050D01*
X94231969Y-109128050D01*
X94261539Y-109276709D01*
X94345747Y-109402736D01*
X94436014Y-109463050D01*
X94345747Y-109523364D01*
X94267246Y-109640850D01*
X93887429Y-109640850D01*
X93528701Y-109282123D01*
X93528701Y-104902000D01*
X95042801Y-104902000D01*
X95042801Y-105599586D01*
X95042801Y-105599586D01*
G37*
X95042801Y-105599586D02*
X94620433Y-105599586D01*
X94471774Y-105629156D01*
X94345747Y-105713364D01*
X94261539Y-105839391D01*
X94231969Y-105988050D01*
X94231969Y-106588050D01*
X94261539Y-106736709D01*
X94345747Y-106862736D01*
X94436014Y-106923050D01*
X94345747Y-106983364D01*
X94261539Y-107109391D01*
X94231969Y-107258050D01*
X94231969Y-107858050D01*
X94261539Y-108006709D01*
X94345747Y-108132736D01*
X94436014Y-108193050D01*
X94345747Y-108253364D01*
X94261539Y-108379391D01*
X94231969Y-108528050D01*
X94231969Y-109128050D01*
X94261539Y-109276709D01*
X94345747Y-109402736D01*
X94436014Y-109463050D01*
X94345747Y-109523364D01*
X94267246Y-109640850D01*
X93887429Y-109640850D01*
X93528701Y-109282123D01*
X93528701Y-104902000D01*
X95042801Y-104902000D01*
X95042801Y-105599586D01*
G36*
X99568000Y-105462606D02*
X99568000Y-106581071D01*
X99545482Y-106558554D01*
X99519973Y-106520377D01*
X99368741Y-106419327D01*
X99235380Y-106392800D01*
X99190350Y-106383843D01*
X99145320Y-106392800D01*
X99014744Y-106392800D01*
X99008894Y-106363391D01*
X98924686Y-106237364D01*
X98798659Y-106153156D01*
X98650000Y-106123586D01*
X97350000Y-106123586D01*
X97201341Y-106153156D01*
X97075314Y-106237364D01*
X96991106Y-106363391D01*
X96961536Y-106512050D01*
X96961536Y-106953936D01*
X96814622Y-107100850D01*
X96523620Y-107100850D01*
X96445119Y-106983364D01*
X96354852Y-106923050D01*
X96445119Y-106862736D01*
X96529327Y-106736709D01*
X96558897Y-106588050D01*
X96558897Y-105988050D01*
X96529327Y-105839391D01*
X96445119Y-105713364D01*
X96319092Y-105629156D01*
X96170433Y-105599586D01*
X95957200Y-105599586D01*
X95957200Y-104902000D01*
X99007394Y-104902000D01*
X99568000Y-105462606D01*
X99568000Y-105462606D01*
G37*
X99568000Y-105462606D02*
X99568000Y-106581071D01*
X99545482Y-106558554D01*
X99519973Y-106520377D01*
X99368741Y-106419327D01*
X99235380Y-106392800D01*
X99190350Y-106383843D01*
X99145320Y-106392800D01*
X99014744Y-106392800D01*
X99008894Y-106363391D01*
X98924686Y-106237364D01*
X98798659Y-106153156D01*
X98650000Y-106123586D01*
X97350000Y-106123586D01*
X97201341Y-106153156D01*
X97075314Y-106237364D01*
X96991106Y-106363391D01*
X96961536Y-106512050D01*
X96961536Y-106953936D01*
X96814622Y-107100850D01*
X96523620Y-107100850D01*
X96445119Y-106983364D01*
X96354852Y-106923050D01*
X96445119Y-106862736D01*
X96529327Y-106736709D01*
X96558897Y-106588050D01*
X96558897Y-105988050D01*
X96529327Y-105839391D01*
X96445119Y-105713364D01*
X96319092Y-105629156D01*
X96170433Y-105599586D01*
X95957200Y-105599586D01*
X95957200Y-104902000D01*
X99007394Y-104902000D01*
X99568000Y-105462606D01*
G36*
X91042800Y-105711815D02*
X90919092Y-105629156D01*
X90770433Y-105599586D01*
X89220433Y-105599586D01*
X89071774Y-105629156D01*
X88945747Y-105713364D01*
X88870505Y-105825972D01*
X88850000Y-105821893D01*
X88804970Y-105830850D01*
X88671609Y-105857377D01*
X88520377Y-105958427D01*
X88494868Y-105996604D01*
X88206498Y-106284974D01*
X88174686Y-106237364D01*
X88048659Y-106153156D01*
X87900000Y-106123586D01*
X86600000Y-106123586D01*
X86451341Y-106153156D01*
X86325314Y-106237364D01*
X86241106Y-106363391D01*
X86221202Y-106463454D01*
X86117977Y-106532427D01*
X86092470Y-106570602D01*
X85852000Y-106811072D01*
X85852000Y-105462606D01*
X86412606Y-104902000D01*
X91042800Y-104902000D01*
X91042800Y-105711815D01*
X91042800Y-105711815D01*
G37*
X91042800Y-105711815D02*
X90919092Y-105629156D01*
X90770433Y-105599586D01*
X89220433Y-105599586D01*
X89071774Y-105629156D01*
X88945747Y-105713364D01*
X88870505Y-105825972D01*
X88850000Y-105821893D01*
X88804970Y-105830850D01*
X88671609Y-105857377D01*
X88520377Y-105958427D01*
X88494868Y-105996604D01*
X88206498Y-106284974D01*
X88174686Y-106237364D01*
X88048659Y-106153156D01*
X87900000Y-106123586D01*
X86600000Y-106123586D01*
X86451341Y-106153156D01*
X86325314Y-106237364D01*
X86241106Y-106363391D01*
X86221202Y-106463454D01*
X86117977Y-106532427D01*
X86092470Y-106570602D01*
X85852000Y-106811072D01*
X85852000Y-105462606D01*
X86412606Y-104902000D01*
X91042800Y-104902000D01*
X91042800Y-105711815D01*
G36*
X99568000Y-31167606D02*
X99568000Y-38682394D01*
X99007394Y-39243000D01*
X86412606Y-39243000D01*
X85852000Y-38682394D01*
X85852000Y-32592346D01*
X90257974Y-32592346D01*
X90272635Y-33481363D01*
X90584640Y-34234610D01*
X90913798Y-34406597D01*
X91009419Y-34310976D01*
X91189024Y-34490581D01*
X91093403Y-34586202D01*
X91265390Y-34915360D01*
X92092346Y-35242026D01*
X92981363Y-35227365D01*
X93734610Y-34915360D01*
X93906597Y-34586202D01*
X93810976Y-34490581D01*
X93990581Y-34310976D01*
X94086202Y-34406597D01*
X94415360Y-34234610D01*
X94742026Y-33407654D01*
X94727365Y-32518637D01*
X94415360Y-31765390D01*
X94086202Y-31593403D01*
X93990581Y-31689024D01*
X93810976Y-31509419D01*
X93906597Y-31413798D01*
X93734610Y-31084640D01*
X92907654Y-30757974D01*
X92018637Y-30772635D01*
X91265390Y-31084640D01*
X91093403Y-31413798D01*
X91189024Y-31509419D01*
X91009419Y-31689024D01*
X90913798Y-31593403D01*
X90584640Y-31765390D01*
X90257974Y-32592346D01*
X85852000Y-32592346D01*
X85852000Y-31167606D01*
X86412606Y-30607000D01*
X99007394Y-30607000D01*
X99568000Y-31167606D01*
X99568000Y-31167606D01*
G37*
X99568000Y-31167606D02*
X99568000Y-38682394D01*
X99007394Y-39243000D01*
X86412606Y-39243000D01*
X85852000Y-38682394D01*
X85852000Y-32592346D01*
X90257974Y-32592346D01*
X90272635Y-33481363D01*
X90584640Y-34234610D01*
X90913798Y-34406597D01*
X91009419Y-34310976D01*
X91189024Y-34490581D01*
X91093403Y-34586202D01*
X91265390Y-34915360D01*
X92092346Y-35242026D01*
X92981363Y-35227365D01*
X93734610Y-34915360D01*
X93906597Y-34586202D01*
X93810976Y-34490581D01*
X93990581Y-34310976D01*
X94086202Y-34406597D01*
X94415360Y-34234610D01*
X94742026Y-33407654D01*
X94727365Y-32518637D01*
X94415360Y-31765390D01*
X94086202Y-31593403D01*
X93990581Y-31689024D01*
X93810976Y-31509419D01*
X93906597Y-31413798D01*
X93734610Y-31084640D01*
X92907654Y-30757974D01*
X92018637Y-30772635D01*
X91265390Y-31084640D01*
X91093403Y-31413798D01*
X91189024Y-31509419D01*
X91009419Y-31689024D01*
X90913798Y-31593403D01*
X90584640Y-31765390D01*
X90257974Y-32592346D01*
X85852000Y-32592346D01*
X85852000Y-31167606D01*
X86412606Y-30607000D01*
X99007394Y-30607000D01*
X99568000Y-31167606D01*
G36*
X99568000Y-149912606D02*
X99568000Y-157145056D01*
X99007394Y-157705662D01*
X93033759Y-157705662D01*
X93734610Y-157415360D01*
X93906597Y-157086202D01*
X93810976Y-156990581D01*
X93990581Y-156810976D01*
X94086202Y-156906597D01*
X94415360Y-156734610D01*
X94742026Y-155907654D01*
X94727365Y-155018637D01*
X94415360Y-154265390D01*
X94086202Y-154093403D01*
X93990581Y-154189024D01*
X93810976Y-154009419D01*
X93906597Y-153913798D01*
X93734610Y-153584640D01*
X92907654Y-153257974D01*
X92018637Y-153272635D01*
X91265390Y-153584640D01*
X91093403Y-153913798D01*
X91189024Y-154009419D01*
X91009419Y-154189024D01*
X90913798Y-154093403D01*
X90584640Y-154265390D01*
X90257974Y-155092346D01*
X90272635Y-155981363D01*
X90584640Y-156734610D01*
X90913798Y-156906597D01*
X91009419Y-156810976D01*
X91189024Y-156990581D01*
X91093403Y-157086202D01*
X91265390Y-157415360D01*
X92000290Y-157705662D01*
X86412606Y-157705662D01*
X85852000Y-157145056D01*
X85852000Y-149912606D01*
X86412606Y-149352000D01*
X99007394Y-149352000D01*
X99568000Y-149912606D01*
X99568000Y-149912606D01*
G37*
X99568000Y-149912606D02*
X99568000Y-157145056D01*
X99007394Y-157705662D01*
X93033759Y-157705662D01*
X93734610Y-157415360D01*
X93906597Y-157086202D01*
X93810976Y-156990581D01*
X93990581Y-156810976D01*
X94086202Y-156906597D01*
X94415360Y-156734610D01*
X94742026Y-155907654D01*
X94727365Y-155018637D01*
X94415360Y-154265390D01*
X94086202Y-154093403D01*
X93990581Y-154189024D01*
X93810976Y-154009419D01*
X93906597Y-153913798D01*
X93734610Y-153584640D01*
X92907654Y-153257974D01*
X92018637Y-153272635D01*
X91265390Y-153584640D01*
X91093403Y-153913798D01*
X91189024Y-154009419D01*
X91009419Y-154189024D01*
X90913798Y-154093403D01*
X90584640Y-154265390D01*
X90257974Y-155092346D01*
X90272635Y-155981363D01*
X90584640Y-156734610D01*
X90913798Y-156906597D01*
X91009419Y-156810976D01*
X91189024Y-156990581D01*
X91093403Y-157086202D01*
X91265390Y-157415360D01*
X92000290Y-157705662D01*
X86412606Y-157705662D01*
X85852000Y-157145056D01*
X85852000Y-149912606D01*
X86412606Y-149352000D01*
X99007394Y-149352000D01*
X99568000Y-149912606D01*
M02*
