G04 #@! TF.GenerationSoftware,KiCad,Pcbnew,(5.0.0-rc2-dev-444-g2974a2c10)*
G04 #@! TF.CreationDate,2019-11-01T17:22:56-07:00*
G04 #@! TF.ProjectId,EURO Dual 12-bit DAC-10V,4555524F204475616C2031322D626974,v01*
G04 #@! TF.SameCoordinates,Original*
G04 #@! TF.FileFunction,Copper,L2,Bot,Signal*
G04 #@! TF.FilePolarity,Positive*
%FSLAX46Y46*%
G04 Gerber Fmt 4.6, Leading zero omitted, Abs format (unit mm)*
G04 Created by KiCad (PCBNEW (5.0.0-rc2-dev-444-g2974a2c10)) date 11/01/19 17:22:56*
%MOMM*%
%LPD*%
G01*
G04 APERTURE LIST*
%ADD10C,0.685800*%
%ADD11C,0.254000*%
%ADD12C,0.152400*%
G04 APERTURE END LIST*
D10*
X98500000Y-41040000D03*
X90500000Y-97250000D03*
X86750000Y-41040000D03*
X95750000Y-69750000D03*
X89250000Y-69750000D03*
X92300000Y-110400000D03*
X96700000Y-105200000D03*
X90678000Y-102489000D03*
X86750000Y-147720000D03*
X98500000Y-147720000D03*
X91200000Y-99300000D03*
X93900000Y-99300000D03*
X96900000Y-103400000D03*
X88600000Y-105200000D03*
X94000000Y-105200000D03*
X90400000Y-92900000D03*
X95000000Y-89900000D03*
X98250000Y-82250000D03*
X98250000Y-103500000D03*
X92500000Y-98500000D03*
X92500000Y-101500000D03*
X92500000Y-72250000D03*
X93000000Y-94750000D03*
X93500000Y-80400000D03*
X92000000Y-95750000D03*
X95500000Y-80400000D03*
X95500000Y-103500000D03*
X87000000Y-57750000D03*
X91300000Y-80400000D03*
X88200000Y-87300000D03*
X95000000Y-85500000D03*
X89408000Y-83820000D03*
X90300000Y-89900000D03*
X88597600Y-80400000D03*
D11*
X98250000Y-82250000D02*
X98250000Y-82250000D01*
X98250000Y-103500000D02*
X98250000Y-103500000D01*
D12*
X98250000Y-103015067D02*
X98250000Y-97000000D01*
X98250000Y-103500000D02*
X98250000Y-103015067D01*
X92500000Y-101500000D02*
X92500000Y-98500000D01*
X92500000Y-98500000D02*
X93185799Y-97814201D01*
X93185799Y-97814201D02*
X97435799Y-97814201D01*
X97435799Y-97814201D02*
X98250000Y-97000000D01*
X97250000Y-72250000D02*
X98250000Y-73250000D01*
X92500000Y-72250000D02*
X97250000Y-72250000D01*
X98250000Y-73250000D02*
X98250000Y-82250000D01*
X98250000Y-82250000D02*
X98250000Y-97000000D01*
X93000000Y-94500000D02*
X93000000Y-94500000D01*
X92604810Y-94354810D02*
X93000000Y-94750000D01*
X93500000Y-80400000D02*
X92604810Y-81295190D01*
X92604810Y-81295190D02*
X92604810Y-94354810D01*
X95500000Y-79530133D02*
X94969867Y-79000000D01*
X95500000Y-80400000D02*
X95500000Y-79530133D01*
X94969867Y-79000000D02*
X93200000Y-79000000D01*
X93200000Y-79000000D02*
X92300000Y-79900000D01*
X92300000Y-79900000D02*
X92300000Y-94400000D01*
X92000000Y-94700000D02*
X92000000Y-95750000D01*
X92300000Y-94400000D02*
X92000000Y-94700000D01*
X87000000Y-102750000D02*
X87750000Y-103500000D01*
X87000000Y-90500000D02*
X87000000Y-102750000D01*
X95500000Y-103500000D02*
X87750000Y-103500000D01*
X87000000Y-90500000D02*
X87000000Y-90015067D01*
X87000000Y-90015067D02*
X87000000Y-79800000D01*
X87600000Y-79300000D02*
X87000000Y-78700000D01*
X90200000Y-79300000D02*
X87600000Y-79300000D01*
X91300000Y-80400000D02*
X90200000Y-79300000D01*
X87000000Y-79800000D02*
X87000000Y-78700000D01*
X87000000Y-78700000D02*
X87000000Y-57750000D01*
X88519000Y-83820000D02*
X89408000Y-83820000D01*
X88200000Y-87300000D02*
X88200000Y-84139000D01*
X88200000Y-84139000D02*
X88519000Y-83820000D01*
X90300000Y-89900000D02*
X90300000Y-89300000D01*
X90300000Y-89500000D02*
X90300000Y-89300000D01*
X90300000Y-89300000D02*
X90300000Y-89015067D01*
X89800000Y-80400000D02*
X90300000Y-80900000D01*
X88597600Y-80400000D02*
X89800000Y-80400000D01*
X90300000Y-89015067D02*
X90300000Y-80900000D01*
D11*
G36*
X99568000Y-40692606D02*
X99568000Y-103452394D01*
X99007394Y-104013000D01*
X98760749Y-104013000D01*
X98863693Y-103910056D01*
X98973900Y-103643993D01*
X98973900Y-103356007D01*
X98863693Y-103089944D01*
X98707200Y-102933451D01*
X98707200Y-97045030D01*
X98716157Y-97000001D01*
X98707200Y-96954970D01*
X98707200Y-82816549D01*
X98863693Y-82660056D01*
X98973900Y-82393993D01*
X98973900Y-82106007D01*
X98863693Y-81839944D01*
X98707200Y-81683451D01*
X98707200Y-73295030D01*
X98716157Y-73250000D01*
X98680673Y-73071609D01*
X98579623Y-72920377D01*
X98541446Y-72894868D01*
X97605132Y-71958554D01*
X97579623Y-71920377D01*
X97428391Y-71819327D01*
X97295030Y-71792800D01*
X97250000Y-71783843D01*
X97204970Y-71792800D01*
X93066549Y-71792800D01*
X92910056Y-71636307D01*
X92643993Y-71526100D01*
X92356007Y-71526100D01*
X92089944Y-71636307D01*
X91886307Y-71839944D01*
X91776100Y-72106007D01*
X91776100Y-72393993D01*
X91886307Y-72660056D01*
X92089944Y-72863693D01*
X92356007Y-72973900D01*
X92643993Y-72973900D01*
X92910056Y-72863693D01*
X93066549Y-72707200D01*
X97060622Y-72707200D01*
X97792800Y-73439378D01*
X97792801Y-81683450D01*
X97636307Y-81839944D01*
X97526100Y-82106007D01*
X97526100Y-82393993D01*
X97636307Y-82660056D01*
X97792800Y-82816549D01*
X97792801Y-96810620D01*
X97246421Y-97357001D01*
X93230828Y-97357001D01*
X93185798Y-97348044D01*
X93007408Y-97383528D01*
X92856176Y-97484578D01*
X92830669Y-97522752D01*
X92577321Y-97776100D01*
X92356007Y-97776100D01*
X92089944Y-97886307D01*
X91886307Y-98089944D01*
X91776100Y-98356007D01*
X91776100Y-98643993D01*
X91886307Y-98910056D01*
X92042801Y-99066550D01*
X92042800Y-100933451D01*
X91886307Y-101089944D01*
X91776100Y-101356007D01*
X91776100Y-101643993D01*
X91886307Y-101910056D01*
X92089944Y-102113693D01*
X92356007Y-102223900D01*
X92643993Y-102223900D01*
X92910056Y-102113693D01*
X93113693Y-101910056D01*
X93223900Y-101643993D01*
X93223900Y-101356007D01*
X93113693Y-101089944D01*
X92957200Y-100933451D01*
X92957200Y-99066549D01*
X93113693Y-98910056D01*
X93223900Y-98643993D01*
X93223900Y-98422679D01*
X93375178Y-98271401D01*
X97390769Y-98271401D01*
X97435799Y-98280358D01*
X97480829Y-98271401D01*
X97614190Y-98244874D01*
X97765422Y-98143824D01*
X97790931Y-98105647D01*
X97792801Y-98103777D01*
X97792800Y-102933451D01*
X97636307Y-103089944D01*
X97526100Y-103356007D01*
X97526100Y-103643993D01*
X97636307Y-103910056D01*
X97739251Y-104013000D01*
X96010749Y-104013000D01*
X96113693Y-103910056D01*
X96223900Y-103643993D01*
X96223900Y-103356007D01*
X96113693Y-103089944D01*
X95910056Y-102886307D01*
X95643993Y-102776100D01*
X95356007Y-102776100D01*
X95089944Y-102886307D01*
X94933451Y-103042800D01*
X87939379Y-103042800D01*
X87457200Y-102560622D01*
X87457200Y-79737752D01*
X87599999Y-79766157D01*
X87645029Y-79757200D01*
X88257814Y-79757200D01*
X88187544Y-79786307D01*
X87983907Y-79989944D01*
X87873700Y-80256007D01*
X87873700Y-80543993D01*
X87983907Y-80810056D01*
X88187544Y-81013693D01*
X88453607Y-81123900D01*
X88741593Y-81123900D01*
X89007656Y-81013693D01*
X89164149Y-80857200D01*
X89610622Y-80857200D01*
X89842801Y-81089380D01*
X89842801Y-83231052D01*
X89818056Y-83206307D01*
X89551993Y-83096100D01*
X89264007Y-83096100D01*
X88997944Y-83206307D01*
X88841451Y-83362800D01*
X88564029Y-83362800D01*
X88518999Y-83353843D01*
X88340609Y-83389327D01*
X88189377Y-83490377D01*
X88163870Y-83528552D01*
X87908552Y-83783870D01*
X87870378Y-83809377D01*
X87844871Y-83847551D01*
X87844870Y-83847552D01*
X87769327Y-83960610D01*
X87733843Y-84139000D01*
X87742801Y-84184035D01*
X87742800Y-86733451D01*
X87586307Y-86889944D01*
X87476100Y-87156007D01*
X87476100Y-87443993D01*
X87586307Y-87710056D01*
X87789944Y-87913693D01*
X88056007Y-88023900D01*
X88343993Y-88023900D01*
X88610056Y-87913693D01*
X88813693Y-87710056D01*
X88923900Y-87443993D01*
X88923900Y-87156007D01*
X88813693Y-86889944D01*
X88657200Y-86733451D01*
X88657200Y-84328378D01*
X88708379Y-84277200D01*
X88841451Y-84277200D01*
X88997944Y-84433693D01*
X89264007Y-84543900D01*
X89551993Y-84543900D01*
X89818056Y-84433693D01*
X89842801Y-84408948D01*
X89842800Y-88970037D01*
X89842800Y-89333451D01*
X89686307Y-89489944D01*
X89576100Y-89756007D01*
X89576100Y-90043993D01*
X89686307Y-90310056D01*
X89889944Y-90513693D01*
X90156007Y-90623900D01*
X90443993Y-90623900D01*
X90710056Y-90513693D01*
X90913693Y-90310056D01*
X91023900Y-90043993D01*
X91023900Y-89756007D01*
X90913693Y-89489944D01*
X90757200Y-89333451D01*
X90757200Y-80945030D01*
X90766157Y-80900000D01*
X90763651Y-80887400D01*
X90889944Y-81013693D01*
X91156007Y-81123900D01*
X91443993Y-81123900D01*
X91710056Y-81013693D01*
X91842800Y-80880949D01*
X91842801Y-94210620D01*
X91708554Y-94344868D01*
X91670377Y-94370377D01*
X91583766Y-94500000D01*
X91569327Y-94521610D01*
X91533843Y-94700000D01*
X91542800Y-94745030D01*
X91542800Y-95183451D01*
X91386307Y-95339944D01*
X91276100Y-95606007D01*
X91276100Y-95893993D01*
X91386307Y-96160056D01*
X91589944Y-96363693D01*
X91856007Y-96473900D01*
X92143993Y-96473900D01*
X92410056Y-96363693D01*
X92613693Y-96160056D01*
X92723900Y-95893993D01*
X92723900Y-95606007D01*
X92630486Y-95380486D01*
X92856007Y-95473900D01*
X93143993Y-95473900D01*
X93410056Y-95363693D01*
X93613693Y-95160056D01*
X93723900Y-94893993D01*
X93723900Y-94606007D01*
X93613693Y-94339944D01*
X93410056Y-94136307D01*
X93143993Y-94026100D01*
X93062010Y-94026100D01*
X93062010Y-85356007D01*
X94276100Y-85356007D01*
X94276100Y-85643993D01*
X94386307Y-85910056D01*
X94589944Y-86113693D01*
X94856007Y-86223900D01*
X95143993Y-86223900D01*
X95410056Y-86113693D01*
X95613693Y-85910056D01*
X95723900Y-85643993D01*
X95723900Y-85356007D01*
X95613693Y-85089944D01*
X95410056Y-84886307D01*
X95143993Y-84776100D01*
X94856007Y-84776100D01*
X94589944Y-84886307D01*
X94386307Y-85089944D01*
X94276100Y-85356007D01*
X93062010Y-85356007D01*
X93062010Y-81484568D01*
X93422679Y-81123900D01*
X93643993Y-81123900D01*
X93910056Y-81013693D01*
X94113693Y-80810056D01*
X94223900Y-80543993D01*
X94223900Y-80256007D01*
X94113693Y-79989944D01*
X93910056Y-79786307D01*
X93643993Y-79676100D01*
X93356007Y-79676100D01*
X93089944Y-79786307D01*
X92886307Y-79989944D01*
X92776100Y-80256007D01*
X92776100Y-80477321D01*
X92757200Y-80496221D01*
X92757200Y-80089378D01*
X93389379Y-79457200D01*
X94780489Y-79457200D01*
X95042801Y-79719512D01*
X95042801Y-79833450D01*
X94886307Y-79989944D01*
X94776100Y-80256007D01*
X94776100Y-80543993D01*
X94886307Y-80810056D01*
X95089944Y-81013693D01*
X95356007Y-81123900D01*
X95643993Y-81123900D01*
X95910056Y-81013693D01*
X96113693Y-80810056D01*
X96223900Y-80543993D01*
X96223900Y-80256007D01*
X96113693Y-79989944D01*
X95957200Y-79833451D01*
X95957200Y-79575162D01*
X95966157Y-79530132D01*
X95930673Y-79351742D01*
X95896099Y-79299999D01*
X95829623Y-79200510D01*
X95791449Y-79175003D01*
X95324999Y-78708554D01*
X95299490Y-78670377D01*
X95148258Y-78569327D01*
X95014897Y-78542800D01*
X94969867Y-78533843D01*
X94924837Y-78542800D01*
X93245029Y-78542800D01*
X93199999Y-78533843D01*
X93021609Y-78569327D01*
X92870377Y-78670377D01*
X92844870Y-78708551D01*
X92008554Y-79544868D01*
X91970377Y-79570377D01*
X91899736Y-79676100D01*
X91869327Y-79721610D01*
X91833843Y-79900000D01*
X91836349Y-79912600D01*
X91710056Y-79786307D01*
X91443993Y-79676100D01*
X91222679Y-79676100D01*
X90555132Y-79008554D01*
X90529623Y-78970377D01*
X90378391Y-78869327D01*
X90245030Y-78842800D01*
X90200000Y-78833843D01*
X90154970Y-78842800D01*
X87789379Y-78842800D01*
X87457200Y-78510622D01*
X87457200Y-58316549D01*
X87613693Y-58160056D01*
X87723900Y-57893993D01*
X87723900Y-57606007D01*
X87613693Y-57339944D01*
X87410056Y-57136307D01*
X87143993Y-57026100D01*
X86856007Y-57026100D01*
X86589944Y-57136307D01*
X86386307Y-57339944D01*
X86276100Y-57606007D01*
X86276100Y-57893993D01*
X86386307Y-58160056D01*
X86542801Y-58316550D01*
X86542800Y-78654970D01*
X86533843Y-78700000D01*
X86542800Y-78745029D01*
X86542801Y-78745034D01*
X86542800Y-79845029D01*
X86542801Y-79845034D01*
X86542800Y-90060096D01*
X86542801Y-90060100D01*
X86542800Y-90454970D01*
X86542800Y-90454971D01*
X86542801Y-102704965D01*
X86533843Y-102750000D01*
X86569327Y-102928390D01*
X86644870Y-103041448D01*
X86670378Y-103079623D01*
X86708552Y-103105130D01*
X87394870Y-103791449D01*
X87420377Y-103829623D01*
X87571609Y-103930673D01*
X87749999Y-103966157D01*
X87795029Y-103957200D01*
X94933451Y-103957200D01*
X94989251Y-104013000D01*
X86412606Y-104013000D01*
X85852000Y-103452394D01*
X85852000Y-54596481D01*
X89916722Y-54596481D01*
X89921161Y-54645835D01*
X89944149Y-54689733D01*
X89982186Y-54721493D01*
X90029481Y-54736278D01*
X90078835Y-54731839D01*
X90830400Y-54510790D01*
X90830400Y-55549800D01*
X90839646Y-55597370D01*
X90866813Y-55638811D01*
X90907772Y-55666702D01*
X90956286Y-55676795D01*
X91245846Y-55679335D01*
X91295561Y-55669673D01*
X91336763Y-55642143D01*
X91364293Y-55600941D01*
X91373960Y-55552340D01*
X91373960Y-54504264D01*
X92117784Y-54707125D01*
X92186546Y-54706582D01*
X92225003Y-54686639D01*
X92224860Y-54751961D01*
X92234120Y-54799845D01*
X92261300Y-54841278D01*
X92302267Y-54869157D01*
X92350784Y-54879235D01*
X92650504Y-54881775D01*
X92700438Y-54872006D01*
X92741579Y-54844385D01*
X92769019Y-54803123D01*
X92778580Y-54754501D01*
X92778509Y-54722219D01*
X92823481Y-54736278D01*
X92872835Y-54731839D01*
X93624400Y-54510790D01*
X93624400Y-55549800D01*
X93634067Y-55598401D01*
X93661597Y-55639603D01*
X93702799Y-55667133D01*
X93751400Y-55676800D01*
X94046040Y-55676800D01*
X94094641Y-55667133D01*
X94135843Y-55639603D01*
X94163373Y-55598401D01*
X94173040Y-55549800D01*
X94173040Y-54505649D01*
X94911784Y-54707125D01*
X94980546Y-54706582D01*
X95024536Y-54683770D01*
X95056448Y-54645861D01*
X95071423Y-54598625D01*
X95067182Y-54549254D01*
X95044370Y-54505264D01*
X94511057Y-53838623D01*
X94939798Y-53945808D01*
X95013379Y-53942178D01*
X95055883Y-53916705D01*
X95085404Y-53876906D01*
X95097447Y-53828838D01*
X95090178Y-53779821D01*
X95064705Y-53737317D01*
X94587422Y-53210660D01*
X94791047Y-53303217D01*
X94838656Y-53314504D01*
X94887596Y-53306736D01*
X94929838Y-53280831D01*
X94958952Y-53240732D01*
X94970504Y-53192544D01*
X94962736Y-53143604D01*
X94936831Y-53101362D01*
X93997031Y-52085362D01*
X93947672Y-52052419D01*
X93898724Y-52044701D01*
X93850548Y-52056304D01*
X93810480Y-52085458D01*
X93588754Y-52325662D01*
X93562498Y-52285698D01*
X92589678Y-51297638D01*
X92544253Y-51268008D01*
X92495385Y-51259797D01*
X92447095Y-51270912D01*
X92406734Y-51299661D01*
X91499954Y-52262321D01*
X91475669Y-52299372D01*
X91465409Y-52347852D01*
X91470345Y-52374350D01*
X91203031Y-52085362D01*
X91153672Y-52052419D01*
X91104724Y-52044701D01*
X91056548Y-52056304D01*
X91016480Y-52085458D01*
X90102080Y-53076058D01*
X90077483Y-53115033D01*
X90068409Y-53163748D01*
X90078669Y-53212228D01*
X90106699Y-53253091D01*
X90148233Y-53280117D01*
X90196948Y-53289191D01*
X90245428Y-53278931D01*
X90412675Y-53207254D01*
X89947423Y-53738970D01*
X89932939Y-53759232D01*
X89917067Y-53806174D01*
X89920367Y-53855617D01*
X89942337Y-53900033D01*
X89979632Y-53932661D01*
X90026574Y-53948533D01*
X90076017Y-53945233D01*
X90504453Y-53829885D01*
X89943830Y-54530664D01*
X89916722Y-54596481D01*
X85852000Y-54596481D01*
X85852000Y-40692606D01*
X86412606Y-40132000D01*
X99007394Y-40132000D01*
X99568000Y-40692606D01*
X99568000Y-40692606D01*
G37*
X99568000Y-40692606D02*
X99568000Y-103452394D01*
X99007394Y-104013000D01*
X98760749Y-104013000D01*
X98863693Y-103910056D01*
X98973900Y-103643993D01*
X98973900Y-103356007D01*
X98863693Y-103089944D01*
X98707200Y-102933451D01*
X98707200Y-97045030D01*
X98716157Y-97000001D01*
X98707200Y-96954970D01*
X98707200Y-82816549D01*
X98863693Y-82660056D01*
X98973900Y-82393993D01*
X98973900Y-82106007D01*
X98863693Y-81839944D01*
X98707200Y-81683451D01*
X98707200Y-73295030D01*
X98716157Y-73250000D01*
X98680673Y-73071609D01*
X98579623Y-72920377D01*
X98541446Y-72894868D01*
X97605132Y-71958554D01*
X97579623Y-71920377D01*
X97428391Y-71819327D01*
X97295030Y-71792800D01*
X97250000Y-71783843D01*
X97204970Y-71792800D01*
X93066549Y-71792800D01*
X92910056Y-71636307D01*
X92643993Y-71526100D01*
X92356007Y-71526100D01*
X92089944Y-71636307D01*
X91886307Y-71839944D01*
X91776100Y-72106007D01*
X91776100Y-72393993D01*
X91886307Y-72660056D01*
X92089944Y-72863693D01*
X92356007Y-72973900D01*
X92643993Y-72973900D01*
X92910056Y-72863693D01*
X93066549Y-72707200D01*
X97060622Y-72707200D01*
X97792800Y-73439378D01*
X97792801Y-81683450D01*
X97636307Y-81839944D01*
X97526100Y-82106007D01*
X97526100Y-82393993D01*
X97636307Y-82660056D01*
X97792800Y-82816549D01*
X97792801Y-96810620D01*
X97246421Y-97357001D01*
X93230828Y-97357001D01*
X93185798Y-97348044D01*
X93007408Y-97383528D01*
X92856176Y-97484578D01*
X92830669Y-97522752D01*
X92577321Y-97776100D01*
X92356007Y-97776100D01*
X92089944Y-97886307D01*
X91886307Y-98089944D01*
X91776100Y-98356007D01*
X91776100Y-98643993D01*
X91886307Y-98910056D01*
X92042801Y-99066550D01*
X92042800Y-100933451D01*
X91886307Y-101089944D01*
X91776100Y-101356007D01*
X91776100Y-101643993D01*
X91886307Y-101910056D01*
X92089944Y-102113693D01*
X92356007Y-102223900D01*
X92643993Y-102223900D01*
X92910056Y-102113693D01*
X93113693Y-101910056D01*
X93223900Y-101643993D01*
X93223900Y-101356007D01*
X93113693Y-101089944D01*
X92957200Y-100933451D01*
X92957200Y-99066549D01*
X93113693Y-98910056D01*
X93223900Y-98643993D01*
X93223900Y-98422679D01*
X93375178Y-98271401D01*
X97390769Y-98271401D01*
X97435799Y-98280358D01*
X97480829Y-98271401D01*
X97614190Y-98244874D01*
X97765422Y-98143824D01*
X97790931Y-98105647D01*
X97792801Y-98103777D01*
X97792800Y-102933451D01*
X97636307Y-103089944D01*
X97526100Y-103356007D01*
X97526100Y-103643993D01*
X97636307Y-103910056D01*
X97739251Y-104013000D01*
X96010749Y-104013000D01*
X96113693Y-103910056D01*
X96223900Y-103643993D01*
X96223900Y-103356007D01*
X96113693Y-103089944D01*
X95910056Y-102886307D01*
X95643993Y-102776100D01*
X95356007Y-102776100D01*
X95089944Y-102886307D01*
X94933451Y-103042800D01*
X87939379Y-103042800D01*
X87457200Y-102560622D01*
X87457200Y-79737752D01*
X87599999Y-79766157D01*
X87645029Y-79757200D01*
X88257814Y-79757200D01*
X88187544Y-79786307D01*
X87983907Y-79989944D01*
X87873700Y-80256007D01*
X87873700Y-80543993D01*
X87983907Y-80810056D01*
X88187544Y-81013693D01*
X88453607Y-81123900D01*
X88741593Y-81123900D01*
X89007656Y-81013693D01*
X89164149Y-80857200D01*
X89610622Y-80857200D01*
X89842801Y-81089380D01*
X89842801Y-83231052D01*
X89818056Y-83206307D01*
X89551993Y-83096100D01*
X89264007Y-83096100D01*
X88997944Y-83206307D01*
X88841451Y-83362800D01*
X88564029Y-83362800D01*
X88518999Y-83353843D01*
X88340609Y-83389327D01*
X88189377Y-83490377D01*
X88163870Y-83528552D01*
X87908552Y-83783870D01*
X87870378Y-83809377D01*
X87844871Y-83847551D01*
X87844870Y-83847552D01*
X87769327Y-83960610D01*
X87733843Y-84139000D01*
X87742801Y-84184035D01*
X87742800Y-86733451D01*
X87586307Y-86889944D01*
X87476100Y-87156007D01*
X87476100Y-87443993D01*
X87586307Y-87710056D01*
X87789944Y-87913693D01*
X88056007Y-88023900D01*
X88343993Y-88023900D01*
X88610056Y-87913693D01*
X88813693Y-87710056D01*
X88923900Y-87443993D01*
X88923900Y-87156007D01*
X88813693Y-86889944D01*
X88657200Y-86733451D01*
X88657200Y-84328378D01*
X88708379Y-84277200D01*
X88841451Y-84277200D01*
X88997944Y-84433693D01*
X89264007Y-84543900D01*
X89551993Y-84543900D01*
X89818056Y-84433693D01*
X89842801Y-84408948D01*
X89842800Y-88970037D01*
X89842800Y-89333451D01*
X89686307Y-89489944D01*
X89576100Y-89756007D01*
X89576100Y-90043993D01*
X89686307Y-90310056D01*
X89889944Y-90513693D01*
X90156007Y-90623900D01*
X90443993Y-90623900D01*
X90710056Y-90513693D01*
X90913693Y-90310056D01*
X91023900Y-90043993D01*
X91023900Y-89756007D01*
X90913693Y-89489944D01*
X90757200Y-89333451D01*
X90757200Y-80945030D01*
X90766157Y-80900000D01*
X90763651Y-80887400D01*
X90889944Y-81013693D01*
X91156007Y-81123900D01*
X91443993Y-81123900D01*
X91710056Y-81013693D01*
X91842800Y-80880949D01*
X91842801Y-94210620D01*
X91708554Y-94344868D01*
X91670377Y-94370377D01*
X91583766Y-94500000D01*
X91569327Y-94521610D01*
X91533843Y-94700000D01*
X91542800Y-94745030D01*
X91542800Y-95183451D01*
X91386307Y-95339944D01*
X91276100Y-95606007D01*
X91276100Y-95893993D01*
X91386307Y-96160056D01*
X91589944Y-96363693D01*
X91856007Y-96473900D01*
X92143993Y-96473900D01*
X92410056Y-96363693D01*
X92613693Y-96160056D01*
X92723900Y-95893993D01*
X92723900Y-95606007D01*
X92630486Y-95380486D01*
X92856007Y-95473900D01*
X93143993Y-95473900D01*
X93410056Y-95363693D01*
X93613693Y-95160056D01*
X93723900Y-94893993D01*
X93723900Y-94606007D01*
X93613693Y-94339944D01*
X93410056Y-94136307D01*
X93143993Y-94026100D01*
X93062010Y-94026100D01*
X93062010Y-85356007D01*
X94276100Y-85356007D01*
X94276100Y-85643993D01*
X94386307Y-85910056D01*
X94589944Y-86113693D01*
X94856007Y-86223900D01*
X95143993Y-86223900D01*
X95410056Y-86113693D01*
X95613693Y-85910056D01*
X95723900Y-85643993D01*
X95723900Y-85356007D01*
X95613693Y-85089944D01*
X95410056Y-84886307D01*
X95143993Y-84776100D01*
X94856007Y-84776100D01*
X94589944Y-84886307D01*
X94386307Y-85089944D01*
X94276100Y-85356007D01*
X93062010Y-85356007D01*
X93062010Y-81484568D01*
X93422679Y-81123900D01*
X93643993Y-81123900D01*
X93910056Y-81013693D01*
X94113693Y-80810056D01*
X94223900Y-80543993D01*
X94223900Y-80256007D01*
X94113693Y-79989944D01*
X93910056Y-79786307D01*
X93643993Y-79676100D01*
X93356007Y-79676100D01*
X93089944Y-79786307D01*
X92886307Y-79989944D01*
X92776100Y-80256007D01*
X92776100Y-80477321D01*
X92757200Y-80496221D01*
X92757200Y-80089378D01*
X93389379Y-79457200D01*
X94780489Y-79457200D01*
X95042801Y-79719512D01*
X95042801Y-79833450D01*
X94886307Y-79989944D01*
X94776100Y-80256007D01*
X94776100Y-80543993D01*
X94886307Y-80810056D01*
X95089944Y-81013693D01*
X95356007Y-81123900D01*
X95643993Y-81123900D01*
X95910056Y-81013693D01*
X96113693Y-80810056D01*
X96223900Y-80543993D01*
X96223900Y-80256007D01*
X96113693Y-79989944D01*
X95957200Y-79833451D01*
X95957200Y-79575162D01*
X95966157Y-79530132D01*
X95930673Y-79351742D01*
X95896099Y-79299999D01*
X95829623Y-79200510D01*
X95791449Y-79175003D01*
X95324999Y-78708554D01*
X95299490Y-78670377D01*
X95148258Y-78569327D01*
X95014897Y-78542800D01*
X94969867Y-78533843D01*
X94924837Y-78542800D01*
X93245029Y-78542800D01*
X93199999Y-78533843D01*
X93021609Y-78569327D01*
X92870377Y-78670377D01*
X92844870Y-78708551D01*
X92008554Y-79544868D01*
X91970377Y-79570377D01*
X91899736Y-79676100D01*
X91869327Y-79721610D01*
X91833843Y-79900000D01*
X91836349Y-79912600D01*
X91710056Y-79786307D01*
X91443993Y-79676100D01*
X91222679Y-79676100D01*
X90555132Y-79008554D01*
X90529623Y-78970377D01*
X90378391Y-78869327D01*
X90245030Y-78842800D01*
X90200000Y-78833843D01*
X90154970Y-78842800D01*
X87789379Y-78842800D01*
X87457200Y-78510622D01*
X87457200Y-58316549D01*
X87613693Y-58160056D01*
X87723900Y-57893993D01*
X87723900Y-57606007D01*
X87613693Y-57339944D01*
X87410056Y-57136307D01*
X87143993Y-57026100D01*
X86856007Y-57026100D01*
X86589944Y-57136307D01*
X86386307Y-57339944D01*
X86276100Y-57606007D01*
X86276100Y-57893993D01*
X86386307Y-58160056D01*
X86542801Y-58316550D01*
X86542800Y-78654970D01*
X86533843Y-78700000D01*
X86542800Y-78745029D01*
X86542801Y-78745034D01*
X86542800Y-79845029D01*
X86542801Y-79845034D01*
X86542800Y-90060096D01*
X86542801Y-90060100D01*
X86542800Y-90454970D01*
X86542800Y-90454971D01*
X86542801Y-102704965D01*
X86533843Y-102750000D01*
X86569327Y-102928390D01*
X86644870Y-103041448D01*
X86670378Y-103079623D01*
X86708552Y-103105130D01*
X87394870Y-103791449D01*
X87420377Y-103829623D01*
X87571609Y-103930673D01*
X87749999Y-103966157D01*
X87795029Y-103957200D01*
X94933451Y-103957200D01*
X94989251Y-104013000D01*
X86412606Y-104013000D01*
X85852000Y-103452394D01*
X85852000Y-54596481D01*
X89916722Y-54596481D01*
X89921161Y-54645835D01*
X89944149Y-54689733D01*
X89982186Y-54721493D01*
X90029481Y-54736278D01*
X90078835Y-54731839D01*
X90830400Y-54510790D01*
X90830400Y-55549800D01*
X90839646Y-55597370D01*
X90866813Y-55638811D01*
X90907772Y-55666702D01*
X90956286Y-55676795D01*
X91245846Y-55679335D01*
X91295561Y-55669673D01*
X91336763Y-55642143D01*
X91364293Y-55600941D01*
X91373960Y-55552340D01*
X91373960Y-54504264D01*
X92117784Y-54707125D01*
X92186546Y-54706582D01*
X92225003Y-54686639D01*
X92224860Y-54751961D01*
X92234120Y-54799845D01*
X92261300Y-54841278D01*
X92302267Y-54869157D01*
X92350784Y-54879235D01*
X92650504Y-54881775D01*
X92700438Y-54872006D01*
X92741579Y-54844385D01*
X92769019Y-54803123D01*
X92778580Y-54754501D01*
X92778509Y-54722219D01*
X92823481Y-54736278D01*
X92872835Y-54731839D01*
X93624400Y-54510790D01*
X93624400Y-55549800D01*
X93634067Y-55598401D01*
X93661597Y-55639603D01*
X93702799Y-55667133D01*
X93751400Y-55676800D01*
X94046040Y-55676800D01*
X94094641Y-55667133D01*
X94135843Y-55639603D01*
X94163373Y-55598401D01*
X94173040Y-55549800D01*
X94173040Y-54505649D01*
X94911784Y-54707125D01*
X94980546Y-54706582D01*
X95024536Y-54683770D01*
X95056448Y-54645861D01*
X95071423Y-54598625D01*
X95067182Y-54549254D01*
X95044370Y-54505264D01*
X94511057Y-53838623D01*
X94939798Y-53945808D01*
X95013379Y-53942178D01*
X95055883Y-53916705D01*
X95085404Y-53876906D01*
X95097447Y-53828838D01*
X95090178Y-53779821D01*
X95064705Y-53737317D01*
X94587422Y-53210660D01*
X94791047Y-53303217D01*
X94838656Y-53314504D01*
X94887596Y-53306736D01*
X94929838Y-53280831D01*
X94958952Y-53240732D01*
X94970504Y-53192544D01*
X94962736Y-53143604D01*
X94936831Y-53101362D01*
X93997031Y-52085362D01*
X93947672Y-52052419D01*
X93898724Y-52044701D01*
X93850548Y-52056304D01*
X93810480Y-52085458D01*
X93588754Y-52325662D01*
X93562498Y-52285698D01*
X92589678Y-51297638D01*
X92544253Y-51268008D01*
X92495385Y-51259797D01*
X92447095Y-51270912D01*
X92406734Y-51299661D01*
X91499954Y-52262321D01*
X91475669Y-52299372D01*
X91465409Y-52347852D01*
X91470345Y-52374350D01*
X91203031Y-52085362D01*
X91153672Y-52052419D01*
X91104724Y-52044701D01*
X91056548Y-52056304D01*
X91016480Y-52085458D01*
X90102080Y-53076058D01*
X90077483Y-53115033D01*
X90068409Y-53163748D01*
X90078669Y-53212228D01*
X90106699Y-53253091D01*
X90148233Y-53280117D01*
X90196948Y-53289191D01*
X90245428Y-53278931D01*
X90412675Y-53207254D01*
X89947423Y-53738970D01*
X89932939Y-53759232D01*
X89917067Y-53806174D01*
X89920367Y-53855617D01*
X89942337Y-53900033D01*
X89979632Y-53932661D01*
X90026574Y-53948533D01*
X90076017Y-53945233D01*
X90504453Y-53829885D01*
X89943830Y-54530664D01*
X89916722Y-54596481D01*
X85852000Y-54596481D01*
X85852000Y-40692606D01*
X86412606Y-40132000D01*
X99007394Y-40132000D01*
X99568000Y-40692606D01*
G36*
X99568000Y-31167606D02*
X99568000Y-38682394D01*
X99007394Y-39243000D01*
X86412606Y-39243000D01*
X85852000Y-38682394D01*
X85852000Y-32592346D01*
X90257974Y-32592346D01*
X90272635Y-33481363D01*
X90584640Y-34234610D01*
X90913798Y-34406597D01*
X91009419Y-34310976D01*
X91189024Y-34490581D01*
X91093403Y-34586202D01*
X91265390Y-34915360D01*
X92092346Y-35242026D01*
X92981363Y-35227365D01*
X93734610Y-34915360D01*
X93906597Y-34586202D01*
X93810976Y-34490581D01*
X93990581Y-34310976D01*
X94086202Y-34406597D01*
X94415360Y-34234610D01*
X94742026Y-33407654D01*
X94727365Y-32518637D01*
X94415360Y-31765390D01*
X94086202Y-31593403D01*
X93990581Y-31689024D01*
X93810976Y-31509419D01*
X93906597Y-31413798D01*
X93734610Y-31084640D01*
X92907654Y-30757974D01*
X92018637Y-30772635D01*
X91265390Y-31084640D01*
X91093403Y-31413798D01*
X91189024Y-31509419D01*
X91009419Y-31689024D01*
X90913798Y-31593403D01*
X90584640Y-31765390D01*
X90257974Y-32592346D01*
X85852000Y-32592346D01*
X85852000Y-31167606D01*
X86412606Y-30607000D01*
X99007394Y-30607000D01*
X99568000Y-31167606D01*
X99568000Y-31167606D01*
G37*
X99568000Y-31167606D02*
X99568000Y-38682394D01*
X99007394Y-39243000D01*
X86412606Y-39243000D01*
X85852000Y-38682394D01*
X85852000Y-32592346D01*
X90257974Y-32592346D01*
X90272635Y-33481363D01*
X90584640Y-34234610D01*
X90913798Y-34406597D01*
X91009419Y-34310976D01*
X91189024Y-34490581D01*
X91093403Y-34586202D01*
X91265390Y-34915360D01*
X92092346Y-35242026D01*
X92981363Y-35227365D01*
X93734610Y-34915360D01*
X93906597Y-34586202D01*
X93810976Y-34490581D01*
X93990581Y-34310976D01*
X94086202Y-34406597D01*
X94415360Y-34234610D01*
X94742026Y-33407654D01*
X94727365Y-32518637D01*
X94415360Y-31765390D01*
X94086202Y-31593403D01*
X93990581Y-31689024D01*
X93810976Y-31509419D01*
X93906597Y-31413798D01*
X93734610Y-31084640D01*
X92907654Y-30757974D01*
X92018637Y-30772635D01*
X91265390Y-31084640D01*
X91093403Y-31413798D01*
X91189024Y-31509419D01*
X91009419Y-31689024D01*
X90913798Y-31593403D01*
X90584640Y-31765390D01*
X90257974Y-32592346D01*
X85852000Y-32592346D01*
X85852000Y-31167606D01*
X86412606Y-30607000D01*
X99007394Y-30607000D01*
X99568000Y-31167606D01*
G36*
X99568000Y-149912606D02*
X99568000Y-157145056D01*
X99007394Y-157705662D01*
X93033759Y-157705662D01*
X93734610Y-157415360D01*
X93906597Y-157086202D01*
X93810976Y-156990581D01*
X93990581Y-156810976D01*
X94086202Y-156906597D01*
X94415360Y-156734610D01*
X94742026Y-155907654D01*
X94727365Y-155018637D01*
X94415360Y-154265390D01*
X94086202Y-154093403D01*
X93990581Y-154189024D01*
X93810976Y-154009419D01*
X93906597Y-153913798D01*
X93734610Y-153584640D01*
X92907654Y-153257974D01*
X92018637Y-153272635D01*
X91265390Y-153584640D01*
X91093403Y-153913798D01*
X91189024Y-154009419D01*
X91009419Y-154189024D01*
X90913798Y-154093403D01*
X90584640Y-154265390D01*
X90257974Y-155092346D01*
X90272635Y-155981363D01*
X90584640Y-156734610D01*
X90913798Y-156906597D01*
X91009419Y-156810976D01*
X91189024Y-156990581D01*
X91093403Y-157086202D01*
X91265390Y-157415360D01*
X92000290Y-157705662D01*
X86412606Y-157705662D01*
X85852000Y-157145056D01*
X85852000Y-149912606D01*
X86412606Y-149352000D01*
X99007394Y-149352000D01*
X99568000Y-149912606D01*
X99568000Y-149912606D01*
G37*
X99568000Y-149912606D02*
X99568000Y-157145056D01*
X99007394Y-157705662D01*
X93033759Y-157705662D01*
X93734610Y-157415360D01*
X93906597Y-157086202D01*
X93810976Y-156990581D01*
X93990581Y-156810976D01*
X94086202Y-156906597D01*
X94415360Y-156734610D01*
X94742026Y-155907654D01*
X94727365Y-155018637D01*
X94415360Y-154265390D01*
X94086202Y-154093403D01*
X93990581Y-154189024D01*
X93810976Y-154009419D01*
X93906597Y-153913798D01*
X93734610Y-153584640D01*
X92907654Y-153257974D01*
X92018637Y-153272635D01*
X91265390Y-153584640D01*
X91093403Y-153913798D01*
X91189024Y-154009419D01*
X91009419Y-154189024D01*
X90913798Y-154093403D01*
X90584640Y-154265390D01*
X90257974Y-155092346D01*
X90272635Y-155981363D01*
X90584640Y-156734610D01*
X90913798Y-156906597D01*
X91009419Y-156810976D01*
X91189024Y-156990581D01*
X91093403Y-157086202D01*
X91265390Y-157415360D01*
X92000290Y-157705662D01*
X86412606Y-157705662D01*
X85852000Y-157145056D01*
X85852000Y-149912606D01*
X86412606Y-149352000D01*
X99007394Y-149352000D01*
X99568000Y-149912606D01*
G36*
X99568000Y-105462606D02*
X99568000Y-147902394D01*
X99007394Y-148463000D01*
X86412606Y-148463000D01*
X85852000Y-147902394D01*
X85852000Y-139777749D01*
X88869000Y-139777749D01*
X88869000Y-141222251D01*
X89421787Y-142556796D01*
X90443204Y-143578213D01*
X91777749Y-144131000D01*
X93222251Y-144131000D01*
X94556796Y-143578213D01*
X95578213Y-142556796D01*
X96131000Y-141222251D01*
X96131000Y-139777749D01*
X95578213Y-138443204D01*
X94556796Y-137421787D01*
X93222251Y-136869000D01*
X91777749Y-136869000D01*
X90443204Y-137421787D01*
X89421787Y-138443204D01*
X88869000Y-139777749D01*
X85852000Y-139777749D01*
X85852000Y-126277749D01*
X88869000Y-126277749D01*
X88869000Y-127722251D01*
X89421787Y-129056796D01*
X90443204Y-130078213D01*
X91777749Y-130631000D01*
X93222251Y-130631000D01*
X94556796Y-130078213D01*
X95578213Y-129056796D01*
X96131000Y-127722251D01*
X96131000Y-126277749D01*
X95578213Y-124943204D01*
X94556796Y-123921787D01*
X93222251Y-123369000D01*
X91777749Y-123369000D01*
X90443204Y-123921787D01*
X89421787Y-124943204D01*
X88869000Y-126277749D01*
X85852000Y-126277749D01*
X85852000Y-105462606D01*
X86412606Y-104902000D01*
X99007394Y-104902000D01*
X99568000Y-105462606D01*
X99568000Y-105462606D01*
G37*
X99568000Y-105462606D02*
X99568000Y-147902394D01*
X99007394Y-148463000D01*
X86412606Y-148463000D01*
X85852000Y-147902394D01*
X85852000Y-139777749D01*
X88869000Y-139777749D01*
X88869000Y-141222251D01*
X89421787Y-142556796D01*
X90443204Y-143578213D01*
X91777749Y-144131000D01*
X93222251Y-144131000D01*
X94556796Y-143578213D01*
X95578213Y-142556796D01*
X96131000Y-141222251D01*
X96131000Y-139777749D01*
X95578213Y-138443204D01*
X94556796Y-137421787D01*
X93222251Y-136869000D01*
X91777749Y-136869000D01*
X90443204Y-137421787D01*
X89421787Y-138443204D01*
X88869000Y-139777749D01*
X85852000Y-139777749D01*
X85852000Y-126277749D01*
X88869000Y-126277749D01*
X88869000Y-127722251D01*
X89421787Y-129056796D01*
X90443204Y-130078213D01*
X91777749Y-130631000D01*
X93222251Y-130631000D01*
X94556796Y-130078213D01*
X95578213Y-129056796D01*
X96131000Y-127722251D01*
X96131000Y-126277749D01*
X95578213Y-124943204D01*
X94556796Y-123921787D01*
X93222251Y-123369000D01*
X91777749Y-123369000D01*
X90443204Y-123921787D01*
X89421787Y-124943204D01*
X88869000Y-126277749D01*
X85852000Y-126277749D01*
X85852000Y-105462606D01*
X86412606Y-104902000D01*
X99007394Y-104902000D01*
X99568000Y-105462606D01*
M02*
