G04 #@! TF.GenerationSoftware,KiCad,Pcbnew,(5.0.0-rc2-dev-444-g2974a2c10)*
G04 #@! TF.CreationDate,2019-11-01T17:22:56-07:00*
G04 #@! TF.ProjectId,EURO Dual 12-bit DAC-10V,4555524F204475616C2031322D626974,v01*
G04 #@! TF.SameCoordinates,Original*
G04 #@! TF.FileFunction,Soldermask,Top*
G04 #@! TF.FilePolarity,Negative*
%FSLAX46Y46*%
G04 Gerber Fmt 4.6, Leading zero omitted, Abs format (unit mm)*
G04 Created by KiCad (PCBNEW (5.0.0-rc2-dev-444-g2974a2c10)) date 11/01/19 17:22:56*
%MOMM*%
%LPD*%
G01*
G04 APERTURE LIST*
%ADD10C,0.150000*%
%ADD11R,0.451600X0.901600*%
%ADD12C,6.601600*%
%ADD13R,1.101600X3.601600*%
%ADD14R,1.601600X3.501600*%
%ADD15R,1.651600X0.701600*%
%ADD16R,0.751600X1.661600*%
%ADD17C,3.301600*%
%ADD18R,1.701600X1.301600*%
%ADD19R,1.351600X1.101600*%
%ADD20R,2.101600X1.001600*%
%ADD21R,0.801600X1.401600*%
%ADD22R,1.401600X0.801600*%
%ADD23R,2.611600X1.101600*%
G04 APERTURE END LIST*
D10*
G36*
X93520000Y-52430000D02*
X93520000Y-54230000D01*
X91510000Y-54250000D01*
X91510000Y-52450000D01*
X93520000Y-52430000D01*
G37*
X93520000Y-52430000D02*
X93520000Y-54230000D01*
X91510000Y-54250000D01*
X91510000Y-52450000D01*
X93520000Y-52430000D01*
G36*
X91100000Y-52250000D02*
X91989000Y-53139000D01*
X91227000Y-52885000D01*
X92116000Y-53774000D01*
X91227000Y-53520000D01*
X92116000Y-54536000D01*
X91227000Y-54282000D01*
X91227000Y-55552000D01*
X90973000Y-55552000D01*
X90973000Y-54282000D01*
X90084000Y-54536000D01*
X90973000Y-53520000D01*
X90084000Y-53774000D01*
X90973000Y-52885000D01*
X90211000Y-53139000D01*
X91100000Y-52250000D01*
G37*
X91100000Y-52250000D02*
X91989000Y-53139000D01*
X91227000Y-52885000D01*
X92116000Y-53774000D01*
X91227000Y-53520000D01*
X92116000Y-54536000D01*
X91227000Y-54282000D01*
X91227000Y-55552000D01*
X90973000Y-55552000D01*
X90973000Y-54282000D01*
X90084000Y-54536000D01*
X90973000Y-53520000D01*
X90084000Y-53774000D01*
X90973000Y-52885000D01*
X90211000Y-53139000D01*
X91100000Y-52250000D01*
G36*
X92497000Y-51488000D02*
X93386000Y-52377000D01*
X92624000Y-52123000D01*
X93513000Y-53012000D01*
X92624000Y-52758000D01*
X93513000Y-53774000D01*
X92624000Y-53520000D01*
X92624000Y-54790000D01*
X92370000Y-54790000D01*
X92370000Y-53520000D01*
X91481000Y-53774000D01*
X92370000Y-52758000D01*
X91481000Y-53012000D01*
X92370000Y-52123000D01*
X91608000Y-52377000D01*
X92497000Y-51488000D01*
G37*
X92497000Y-51488000D02*
X93386000Y-52377000D01*
X92624000Y-52123000D01*
X93513000Y-53012000D01*
X92624000Y-52758000D01*
X93513000Y-53774000D01*
X92624000Y-53520000D01*
X92624000Y-54790000D01*
X92370000Y-54790000D01*
X92370000Y-53520000D01*
X91481000Y-53774000D01*
X92370000Y-52758000D01*
X91481000Y-53012000D01*
X92370000Y-52123000D01*
X91608000Y-52377000D01*
X92497000Y-51488000D01*
G36*
X93894000Y-52250000D02*
X94783000Y-53139000D01*
X94021000Y-52885000D01*
X94910000Y-53774000D01*
X94021000Y-53520000D01*
X94910000Y-54536000D01*
X94021000Y-54282000D01*
X94021000Y-55552000D01*
X93767000Y-55552000D01*
X93767000Y-54282000D01*
X92878000Y-54536000D01*
X93767000Y-53520000D01*
X92878000Y-53774000D01*
X93767000Y-52885000D01*
X93005000Y-53139000D01*
X93894000Y-52250000D01*
G37*
X93894000Y-52250000D02*
X94783000Y-53139000D01*
X94021000Y-52885000D01*
X94910000Y-53774000D01*
X94021000Y-53520000D01*
X94910000Y-54536000D01*
X94021000Y-54282000D01*
X94021000Y-55552000D01*
X93767000Y-55552000D01*
X93767000Y-54282000D01*
X92878000Y-54536000D01*
X93767000Y-53520000D01*
X92878000Y-53774000D01*
X93767000Y-52885000D01*
X93005000Y-53139000D01*
X93894000Y-52250000D01*
D11*
X87200000Y-84850000D03*
X87875000Y-84850000D03*
X88525000Y-84850000D03*
X89175000Y-84850000D03*
X89175000Y-82750000D03*
X88525000Y-82750000D03*
X87875000Y-82750000D03*
X87225000Y-82750000D03*
D12*
X92500000Y-127000000D03*
X92500000Y-140500000D03*
D13*
X95500000Y-76375000D03*
X93500000Y-76375000D03*
X91500000Y-76375000D03*
X89500000Y-76375000D03*
D14*
X97850000Y-70625000D03*
X87150000Y-70625000D03*
D15*
X95395433Y-106288050D03*
X95395433Y-107558050D03*
X95395433Y-108828050D03*
X95395433Y-110098050D03*
X89995433Y-110098050D03*
X89995433Y-108828050D03*
X89995433Y-107558050D03*
X89995433Y-106288050D03*
D16*
X88000000Y-98650000D03*
X87050000Y-98650000D03*
X88950000Y-98650000D03*
X88950000Y-101350000D03*
X88000000Y-101350000D03*
X87050000Y-101350000D03*
X97000000Y-98650000D03*
X96050000Y-98650000D03*
X97950000Y-98650000D03*
X97950000Y-101350000D03*
X97000000Y-101350000D03*
X96050000Y-101350000D03*
D17*
X92500000Y-33000000D03*
X92500000Y-155500000D03*
D18*
X92500000Y-51700000D03*
X92500000Y-54900000D03*
D19*
X96300000Y-86600000D03*
X96300000Y-88600000D03*
X93925000Y-82400000D03*
X93925000Y-84400000D03*
X96300000Y-82400000D03*
X96300000Y-84400000D03*
D20*
X92025000Y-92100000D03*
X92025000Y-90500000D03*
D21*
X96550000Y-91800000D03*
X94650000Y-91800000D03*
D22*
X91500000Y-86450000D03*
X91500000Y-88350000D03*
X91520000Y-84150000D03*
X91520000Y-82250000D03*
X93900000Y-86450000D03*
X93900000Y-88350000D03*
D16*
X88200000Y-88950000D03*
X87250000Y-88950000D03*
X89150000Y-88950000D03*
X89150000Y-91650000D03*
X88200000Y-91650000D03*
X87250000Y-91650000D03*
D23*
X90805000Y-115730000D03*
X87495000Y-118270000D03*
X97905000Y-115730000D03*
X94595000Y-118270000D03*
D21*
X89700000Y-112500000D03*
X87800000Y-112500000D03*
D22*
X87250000Y-106862050D03*
X87250000Y-108762050D03*
D21*
X97450000Y-112500000D03*
X95550000Y-112500000D03*
D22*
X98000000Y-108762050D03*
X98000000Y-106862050D03*
D21*
X95550000Y-95500000D03*
X97450000Y-95500000D03*
X87550000Y-95500000D03*
X89450000Y-95500000D03*
D22*
X88000000Y-52550000D03*
X88000000Y-54450000D03*
M02*
