G04 #@! TF.GenerationSoftware,KiCad,Pcbnew,(5.0.0-rc2-dev-444-g2974a2c10)*
G04 #@! TF.CreationDate,2019-11-01T17:22:56-07:00*
G04 #@! TF.ProjectId,EURO Dual 12-bit DAC-10V,4555524F204475616C2031322D626974,v01*
G04 #@! TF.SameCoordinates,Original*
G04 #@! TF.FileFunction,Paste,Top*
G04 #@! TF.FilePolarity,Positive*
%FSLAX46Y46*%
G04 Gerber Fmt 4.6, Leading zero omitted, Abs format (unit mm)*
G04 Created by KiCad (PCBNEW (5.0.0-rc2-dev-444-g2974a2c10)) date 11/01/19 17:22:56*
%MOMM*%
%LPD*%
G01*
G04 APERTURE LIST*
%ADD10R,0.350000X0.800000*%
%ADD11R,1.000000X3.500000*%
%ADD12R,1.500000X3.400000*%
%ADD13R,1.550000X0.600000*%
%ADD14R,0.650000X1.560000*%
%ADD15R,1.600000X1.200000*%
%ADD16R,1.250000X1.000000*%
%ADD17R,2.000000X0.900000*%
%ADD18R,0.700000X1.300000*%
%ADD19R,1.300000X0.700000*%
%ADD20R,2.510000X1.000000*%
G04 APERTURE END LIST*
D10*
X87200000Y-84850000D03*
X87875000Y-84850000D03*
X88525000Y-84850000D03*
X89175000Y-84850000D03*
X89175000Y-82750000D03*
X88525000Y-82750000D03*
X87875000Y-82750000D03*
X87225000Y-82750000D03*
D11*
X95500000Y-76375000D03*
X93500000Y-76375000D03*
X91500000Y-76375000D03*
X89500000Y-76375000D03*
D12*
X97850000Y-70625000D03*
X87150000Y-70625000D03*
D13*
X95395433Y-106288050D03*
X95395433Y-107558050D03*
X95395433Y-108828050D03*
X95395433Y-110098050D03*
X89995433Y-110098050D03*
X89995433Y-108828050D03*
X89995433Y-107558050D03*
X89995433Y-106288050D03*
D14*
X88000000Y-98650000D03*
X87050000Y-98650000D03*
X88950000Y-98650000D03*
X88950000Y-101350000D03*
X88000000Y-101350000D03*
X87050000Y-101350000D03*
X97000000Y-98650000D03*
X96050000Y-98650000D03*
X97950000Y-98650000D03*
X97950000Y-101350000D03*
X97000000Y-101350000D03*
X96050000Y-101350000D03*
D15*
X92500000Y-51700000D03*
X92500000Y-54900000D03*
D16*
X96300000Y-86600000D03*
X96300000Y-88600000D03*
X93925000Y-82400000D03*
X93925000Y-84400000D03*
X96300000Y-82400000D03*
X96300000Y-84400000D03*
D17*
X92025000Y-92100000D03*
X92025000Y-90500000D03*
D18*
X96550000Y-91800000D03*
X94650000Y-91800000D03*
D19*
X91500000Y-86450000D03*
X91500000Y-88350000D03*
X91520000Y-84150000D03*
X91520000Y-82250000D03*
X93900000Y-86450000D03*
X93900000Y-88350000D03*
D14*
X88200000Y-88950000D03*
X87250000Y-88950000D03*
X89150000Y-88950000D03*
X89150000Y-91650000D03*
X88200000Y-91650000D03*
X87250000Y-91650000D03*
D20*
X90805000Y-115730000D03*
X87495000Y-118270000D03*
X97905000Y-115730000D03*
X94595000Y-118270000D03*
D18*
X89700000Y-112500000D03*
X87800000Y-112500000D03*
D19*
X87250000Y-106862050D03*
X87250000Y-108762050D03*
D18*
X97450000Y-112500000D03*
X95550000Y-112500000D03*
D19*
X98000000Y-108762050D03*
X98000000Y-106862050D03*
D18*
X95550000Y-95500000D03*
X97450000Y-95500000D03*
X87550000Y-95500000D03*
X89450000Y-95500000D03*
D19*
X88000000Y-52550000D03*
X88000000Y-54450000D03*
M02*
