%FSLAX45Y45*%
G04 Gerber Fmt 4.5, Leading zero omitted, Abs format (unit mm)*
G04 Created by KiCad (PCBNEW (5.0.0-rc2-dev-444-g2974a2c10)) date 11/01/19 17:22:59*
%MOMM*%
%LPD*%
G01*
G04 APERTURE LIST*
%ADD10C,0.080000*%
%ADD11C,0.200000*%
%ADD12C,0.300000*%
G04 APERTURE END LIST*
D10*
X8500000Y-15850000D02*
X8500000Y-3000000D01*
X10000000Y-15850000D02*
X8500000Y-15850000D01*
X10000000Y-3000000D02*
X10000000Y-15850000D01*
X8500000Y-3000000D02*
X10000000Y-3000000D01*
D11*
X8658490Y-4087490D02*
X8691510Y-4120510D01*
X8691510Y-4087490D02*
X8658490Y-4120510D01*
X8658490Y-14755490D02*
X8691510Y-14788510D01*
X8691510Y-14755490D02*
X8658490Y-14788510D01*
X8683490Y-5758490D02*
X8716510Y-5791510D01*
X8716510Y-5758490D02*
X8683490Y-5791510D01*
X8803490Y-8713490D02*
X8836510Y-8746510D01*
X8836510Y-8713490D02*
X8803490Y-8746510D01*
X8843250Y-8023490D02*
X8876270Y-8056510D01*
X8876270Y-8023490D02*
X8843250Y-8056510D01*
X8843490Y-10503490D02*
X8876510Y-10536510D01*
X8876510Y-10503490D02*
X8843490Y-10536510D01*
X8908490Y-6958490D02*
X8941510Y-6991510D01*
X8941510Y-6958490D02*
X8908490Y-6991510D01*
X8924290Y-8365490D02*
X8957310Y-8398510D01*
X8957310Y-8365490D02*
X8924290Y-8398510D01*
X9013490Y-8973490D02*
X9046510Y-9006510D01*
X9046510Y-8973490D02*
X9013490Y-9006510D01*
X9023490Y-9273490D02*
X9056510Y-9306510D01*
X9056510Y-9273490D02*
X9023490Y-9306510D01*
X9033490Y-9708490D02*
X9066510Y-9741510D01*
X9066510Y-9708490D02*
X9033490Y-9741510D01*
X9051290Y-10232390D02*
X9084310Y-10265410D01*
X9084310Y-10232390D02*
X9051290Y-10265410D01*
X9103490Y-9913490D02*
X9136510Y-9946510D01*
X9136510Y-9913490D02*
X9103490Y-9946510D01*
X9113490Y-8023490D02*
X9146510Y-8056510D01*
X9146510Y-8023490D02*
X9113490Y-8056510D01*
X9183490Y-9558490D02*
X9216510Y-9591510D01*
X9216510Y-9558490D02*
X9183490Y-9591510D01*
X9213490Y-11023490D02*
X9246510Y-11056510D01*
X9246510Y-11023490D02*
X9213490Y-11056510D01*
X9233490Y-7208490D02*
X9266510Y-7241510D01*
X9266510Y-7208490D02*
X9233490Y-7241510D01*
X9233490Y-9833490D02*
X9266510Y-9866510D01*
X9266510Y-9833490D02*
X9233490Y-9866510D01*
X9233490Y-10133490D02*
X9266510Y-10166510D01*
X9266510Y-10133490D02*
X9233490Y-10166510D01*
X9283490Y-9458490D02*
X9316510Y-9491510D01*
X9316510Y-9458490D02*
X9283490Y-9491510D01*
X9333490Y-8023490D02*
X9366510Y-8056510D01*
X9366510Y-8023490D02*
X9333490Y-8056510D01*
X9373490Y-9913490D02*
X9406510Y-9946510D01*
X9406510Y-9913490D02*
X9373490Y-9946510D01*
X9383490Y-10503490D02*
X9416510Y-10536510D01*
X9416510Y-10503490D02*
X9383490Y-10536510D01*
X9483490Y-8533490D02*
X9516510Y-8566510D01*
X9516510Y-8533490D02*
X9483490Y-8566510D01*
X9483490Y-8973490D02*
X9516510Y-9006510D01*
X9516510Y-8973490D02*
X9483490Y-9006510D01*
X9533490Y-8023490D02*
X9566510Y-8056510D01*
X9566510Y-8023490D02*
X9533490Y-8056510D01*
X9533490Y-10333490D02*
X9566510Y-10366510D01*
X9566510Y-10333490D02*
X9533490Y-10366510D01*
X9558490Y-6958490D02*
X9591510Y-6991510D01*
X9591510Y-6958490D02*
X9558490Y-6991510D01*
X9653490Y-10503490D02*
X9686510Y-10536510D01*
X9686510Y-10503490D02*
X9653490Y-10536510D01*
X9673490Y-10323490D02*
X9706510Y-10356510D01*
X9706510Y-10323490D02*
X9673490Y-10356510D01*
X9808490Y-8208490D02*
X9841510Y-8241510D01*
X9841510Y-8208490D02*
X9808490Y-8241510D01*
X9808490Y-10333490D02*
X9841510Y-10366510D01*
X9841510Y-10333490D02*
X9808490Y-10366510D01*
X9833490Y-4087490D02*
X9866510Y-4120510D01*
X9866510Y-4087490D02*
X9833490Y-4120510D01*
X9833490Y-14755490D02*
X9866510Y-14788510D01*
X9866510Y-14755490D02*
X9833490Y-14788510D01*
X9410000Y-15550000D02*
G75*
G03X9410000Y-15550000I-160000J0D01*
G01*
X9410000Y-3300000D02*
G75*
G03X9410000Y-3300000I-160000J0D01*
G01*
X9250000Y-12375000D02*
X9250000Y-13025000D01*
X8925000Y-12700000D02*
X9575000Y-12700000D01*
X9250000Y-13725000D02*
X9250000Y-14375000D01*
X8925000Y-14050000D02*
X9575000Y-14050000D01*
D12*
X8782428Y-16319714D02*
X8782428Y-16019714D01*
X8853857Y-16019714D01*
X8896714Y-16034000D01*
X8925286Y-16062571D01*
X8939571Y-16091143D01*
X8953857Y-16148286D01*
X8953857Y-16191143D01*
X8939571Y-16248286D01*
X8925286Y-16276857D01*
X8896714Y-16305429D01*
X8853857Y-16319714D01*
X8782428Y-16319714D01*
X9082428Y-16319714D02*
X9082428Y-16119714D01*
X9082428Y-16176857D02*
X9096714Y-16148286D01*
X9111000Y-16134000D01*
X9139571Y-16119714D01*
X9168143Y-16119714D01*
X9268143Y-16319714D02*
X9268143Y-16119714D01*
X9268143Y-16019714D02*
X9253857Y-16034000D01*
X9268143Y-16048286D01*
X9282428Y-16034000D01*
X9268143Y-16019714D01*
X9268143Y-16048286D01*
X9453857Y-16319714D02*
X9425286Y-16305429D01*
X9411000Y-16276857D01*
X9411000Y-16019714D01*
X9611000Y-16319714D02*
X9582428Y-16305429D01*
X9568143Y-16276857D01*
X9568143Y-16019714D01*
X9953857Y-16319714D02*
X9953857Y-16019714D01*
X10053857Y-16234000D01*
X10153857Y-16019714D01*
X10153857Y-16319714D01*
X10425286Y-16319714D02*
X10425286Y-16162571D01*
X10411000Y-16134000D01*
X10382428Y-16119714D01*
X10325286Y-16119714D01*
X10296714Y-16134000D01*
X10425286Y-16305429D02*
X10396714Y-16319714D01*
X10325286Y-16319714D01*
X10296714Y-16305429D01*
X10282428Y-16276857D01*
X10282428Y-16248286D01*
X10296714Y-16219714D01*
X10325286Y-16205429D01*
X10396714Y-16205429D01*
X10425286Y-16191143D01*
X10568143Y-16119714D02*
X10568143Y-16419714D01*
X10568143Y-16134000D02*
X10596714Y-16119714D01*
X10653857Y-16119714D01*
X10682428Y-16134000D01*
X10696714Y-16148286D01*
X10711000Y-16176857D01*
X10711000Y-16262571D01*
X10696714Y-16291143D01*
X10682428Y-16305429D01*
X10653857Y-16319714D01*
X10596714Y-16319714D01*
X10568143Y-16305429D01*
X10839571Y-16291143D02*
X10853857Y-16305429D01*
X10839571Y-16319714D01*
X10825286Y-16305429D01*
X10839571Y-16291143D01*
X10839571Y-16319714D01*
X10839571Y-16134000D02*
X10853857Y-16148286D01*
X10839571Y-16162571D01*
X10825286Y-16148286D01*
X10839571Y-16134000D01*
X10839571Y-16162571D01*
X8462980Y-16797490D02*
X8496000Y-16830510D01*
X8496000Y-16797490D02*
X8462980Y-16830510D01*
X8839571Y-16649714D02*
X8868143Y-16649714D01*
X8896714Y-16664000D01*
X8911000Y-16678286D01*
X8925286Y-16706857D01*
X8939571Y-16764000D01*
X8939571Y-16835429D01*
X8925286Y-16892572D01*
X8911000Y-16921143D01*
X8896714Y-16935429D01*
X8868143Y-16949714D01*
X8839571Y-16949714D01*
X8811000Y-16935429D01*
X8796714Y-16921143D01*
X8782428Y-16892572D01*
X8768143Y-16835429D01*
X8768143Y-16764000D01*
X8782428Y-16706857D01*
X8796714Y-16678286D01*
X8811000Y-16664000D01*
X8839571Y-16649714D01*
X9068143Y-16921143D02*
X9082428Y-16935429D01*
X9068143Y-16949714D01*
X9053857Y-16935429D01*
X9068143Y-16921143D01*
X9068143Y-16949714D01*
X9182428Y-16649714D02*
X9368143Y-16649714D01*
X9268143Y-16764000D01*
X9311000Y-16764000D01*
X9339571Y-16778286D01*
X9353857Y-16792572D01*
X9368143Y-16821143D01*
X9368143Y-16892572D01*
X9353857Y-16921143D01*
X9339571Y-16935429D01*
X9311000Y-16949714D01*
X9225286Y-16949714D01*
X9196714Y-16935429D01*
X9182428Y-16921143D01*
X9468143Y-16649714D02*
X9653857Y-16649714D01*
X9553857Y-16764000D01*
X9596714Y-16764000D01*
X9625286Y-16778286D01*
X9639571Y-16792572D01*
X9653857Y-16821143D01*
X9653857Y-16892572D01*
X9639571Y-16921143D01*
X9625286Y-16935429D01*
X9596714Y-16949714D01*
X9511000Y-16949714D01*
X9482428Y-16935429D01*
X9468143Y-16921143D01*
X9782428Y-16949714D02*
X9782428Y-16749714D01*
X9782428Y-16778286D02*
X9796714Y-16764000D01*
X9825286Y-16749714D01*
X9868143Y-16749714D01*
X9896714Y-16764000D01*
X9911000Y-16792572D01*
X9911000Y-16949714D01*
X9911000Y-16792572D02*
X9925286Y-16764000D01*
X9953857Y-16749714D01*
X9996714Y-16749714D01*
X10025286Y-16764000D01*
X10039571Y-16792572D01*
X10039571Y-16949714D01*
X10182428Y-16949714D02*
X10182428Y-16749714D01*
X10182428Y-16778286D02*
X10196714Y-16764000D01*
X10225286Y-16749714D01*
X10268143Y-16749714D01*
X10296714Y-16764000D01*
X10311000Y-16792572D01*
X10311000Y-16949714D01*
X10311000Y-16792572D02*
X10325286Y-16764000D01*
X10353857Y-16749714D01*
X10396714Y-16749714D01*
X10425286Y-16764000D01*
X10439571Y-16792572D01*
X10439571Y-16949714D01*
X11025286Y-16635429D02*
X10768143Y-17021143D01*
X11411000Y-16649714D02*
X11439571Y-16649714D01*
X11468143Y-16664000D01*
X11482428Y-16678286D01*
X11496714Y-16706857D01*
X11511000Y-16764000D01*
X11511000Y-16835429D01*
X11496714Y-16892572D01*
X11482428Y-16921143D01*
X11468143Y-16935429D01*
X11439571Y-16949714D01*
X11411000Y-16949714D01*
X11382428Y-16935429D01*
X11368143Y-16921143D01*
X11353857Y-16892572D01*
X11339571Y-16835429D01*
X11339571Y-16764000D01*
X11353857Y-16706857D01*
X11368143Y-16678286D01*
X11382428Y-16664000D01*
X11411000Y-16649714D01*
X11639571Y-16921143D02*
X11653857Y-16935429D01*
X11639571Y-16949714D01*
X11625286Y-16935429D01*
X11639571Y-16921143D01*
X11639571Y-16949714D01*
X11839571Y-16649714D02*
X11868143Y-16649714D01*
X11896714Y-16664000D01*
X11911000Y-16678286D01*
X11925286Y-16706857D01*
X11939571Y-16764000D01*
X11939571Y-16835429D01*
X11925286Y-16892572D01*
X11911000Y-16921143D01*
X11896714Y-16935429D01*
X11868143Y-16949714D01*
X11839571Y-16949714D01*
X11811000Y-16935429D01*
X11796714Y-16921143D01*
X11782428Y-16892572D01*
X11768143Y-16835429D01*
X11768143Y-16764000D01*
X11782428Y-16706857D01*
X11796714Y-16678286D01*
X11811000Y-16664000D01*
X11839571Y-16649714D01*
X12225286Y-16949714D02*
X12053857Y-16949714D01*
X12139571Y-16949714D02*
X12139571Y-16649714D01*
X12111000Y-16692571D01*
X12082428Y-16721143D01*
X12053857Y-16735429D01*
X12325286Y-16649714D02*
X12511000Y-16649714D01*
X12411000Y-16764000D01*
X12453857Y-16764000D01*
X12482428Y-16778286D01*
X12496714Y-16792572D01*
X12511000Y-16821143D01*
X12511000Y-16892572D01*
X12496714Y-16921143D01*
X12482428Y-16935429D01*
X12453857Y-16949714D01*
X12368143Y-16949714D01*
X12339571Y-16935429D01*
X12325286Y-16921143D01*
X12625286Y-16649714D02*
X12625286Y-16706857D01*
X12739571Y-16649714D02*
X12739571Y-16706857D01*
X13182428Y-17064000D02*
X13168143Y-17049714D01*
X13139571Y-17006857D01*
X13125286Y-16978286D01*
X13111000Y-16935429D01*
X13096714Y-16864000D01*
X13096714Y-16806857D01*
X13111000Y-16735429D01*
X13125286Y-16692571D01*
X13139571Y-16664000D01*
X13168143Y-16621143D01*
X13182428Y-16606857D01*
X13268143Y-16649714D02*
X13453857Y-16649714D01*
X13353857Y-16764000D01*
X13396714Y-16764000D01*
X13425286Y-16778286D01*
X13439571Y-16792572D01*
X13453857Y-16821143D01*
X13453857Y-16892572D01*
X13439571Y-16921143D01*
X13425286Y-16935429D01*
X13396714Y-16949714D01*
X13311000Y-16949714D01*
X13282428Y-16935429D01*
X13268143Y-16921143D01*
X13711000Y-16749714D02*
X13711000Y-16949714D01*
X13639571Y-16635429D02*
X13568143Y-16849714D01*
X13753857Y-16849714D01*
X14096714Y-16949714D02*
X14096714Y-16649714D01*
X14225286Y-16949714D02*
X14225286Y-16792572D01*
X14211000Y-16764000D01*
X14182428Y-16749714D01*
X14139571Y-16749714D01*
X14111000Y-16764000D01*
X14096714Y-16778286D01*
X14411000Y-16949714D02*
X14382428Y-16935429D01*
X14368143Y-16921143D01*
X14353857Y-16892572D01*
X14353857Y-16806857D01*
X14368143Y-16778286D01*
X14382428Y-16764000D01*
X14411000Y-16749714D01*
X14453857Y-16749714D01*
X14482428Y-16764000D01*
X14496714Y-16778286D01*
X14511000Y-16806857D01*
X14511000Y-16892572D01*
X14496714Y-16921143D01*
X14482428Y-16935429D01*
X14453857Y-16949714D01*
X14411000Y-16949714D01*
X14682428Y-16949714D02*
X14653857Y-16935429D01*
X14639571Y-16906857D01*
X14639571Y-16649714D01*
X14911000Y-16935429D02*
X14882428Y-16949714D01*
X14825286Y-16949714D01*
X14796714Y-16935429D01*
X14782428Y-16906857D01*
X14782428Y-16792572D01*
X14796714Y-16764000D01*
X14825286Y-16749714D01*
X14882428Y-16749714D01*
X14911000Y-16764000D01*
X14925286Y-16792572D01*
X14925286Y-16821143D01*
X14782428Y-16849714D01*
X15039571Y-16935429D02*
X15068143Y-16949714D01*
X15125286Y-16949714D01*
X15153857Y-16935429D01*
X15168143Y-16906857D01*
X15168143Y-16892572D01*
X15153857Y-16864000D01*
X15125286Y-16849714D01*
X15082428Y-16849714D01*
X15053857Y-16835429D01*
X15039571Y-16806857D01*
X15039571Y-16792572D01*
X15053857Y-16764000D01*
X15082428Y-16749714D01*
X15125286Y-16749714D01*
X15153857Y-16764000D01*
X15268143Y-17064000D02*
X15282428Y-17049714D01*
X15311000Y-17006857D01*
X15325286Y-16978286D01*
X15339571Y-16935429D01*
X15353857Y-16864000D01*
X15353857Y-16806857D01*
X15339571Y-16735429D01*
X15325286Y-16692571D01*
X15311000Y-16664000D01*
X15282428Y-16621143D01*
X15268143Y-16606857D01*
X8496000Y-17210000D02*
G75*
G03X8496000Y-17210000I-160000J0D01*
G01*
X8753857Y-17045714D02*
X8939571Y-17045714D01*
X8839571Y-17160000D01*
X8882428Y-17160000D01*
X8911000Y-17174286D01*
X8925286Y-17188572D01*
X8939571Y-17217143D01*
X8939571Y-17288572D01*
X8925286Y-17317143D01*
X8911000Y-17331429D01*
X8882428Y-17345714D01*
X8796714Y-17345714D01*
X8768143Y-17331429D01*
X8753857Y-17317143D01*
X9068143Y-17317143D02*
X9082428Y-17331429D01*
X9068143Y-17345714D01*
X9053857Y-17331429D01*
X9068143Y-17317143D01*
X9068143Y-17345714D01*
X9196714Y-17074286D02*
X9211000Y-17060000D01*
X9239571Y-17045714D01*
X9311000Y-17045714D01*
X9339571Y-17060000D01*
X9353857Y-17074286D01*
X9368143Y-17102857D01*
X9368143Y-17131429D01*
X9353857Y-17174286D01*
X9182428Y-17345714D01*
X9368143Y-17345714D01*
X9553857Y-17045714D02*
X9582428Y-17045714D01*
X9611000Y-17060000D01*
X9625286Y-17074286D01*
X9639571Y-17102857D01*
X9653857Y-17160000D01*
X9653857Y-17231429D01*
X9639571Y-17288572D01*
X9625286Y-17317143D01*
X9611000Y-17331429D01*
X9582428Y-17345714D01*
X9553857Y-17345714D01*
X9525286Y-17331429D01*
X9511000Y-17317143D01*
X9496714Y-17288572D01*
X9482428Y-17231429D01*
X9482428Y-17160000D01*
X9496714Y-17102857D01*
X9511000Y-17074286D01*
X9525286Y-17060000D01*
X9553857Y-17045714D01*
X9782428Y-17345714D02*
X9782428Y-17145714D01*
X9782428Y-17174286D02*
X9796714Y-17160000D01*
X9825286Y-17145714D01*
X9868143Y-17145714D01*
X9896714Y-17160000D01*
X9911000Y-17188572D01*
X9911000Y-17345714D01*
X9911000Y-17188572D02*
X9925286Y-17160000D01*
X9953857Y-17145714D01*
X9996714Y-17145714D01*
X10025286Y-17160000D01*
X10039571Y-17188572D01*
X10039571Y-17345714D01*
X10182428Y-17345714D02*
X10182428Y-17145714D01*
X10182428Y-17174286D02*
X10196714Y-17160000D01*
X10225286Y-17145714D01*
X10268143Y-17145714D01*
X10296714Y-17160000D01*
X10311000Y-17188572D01*
X10311000Y-17345714D01*
X10311000Y-17188572D02*
X10325286Y-17160000D01*
X10353857Y-17145714D01*
X10396714Y-17145714D01*
X10425286Y-17160000D01*
X10439571Y-17188572D01*
X10439571Y-17345714D01*
X11025286Y-17031429D02*
X10768143Y-17417143D01*
X11411000Y-17045714D02*
X11439571Y-17045714D01*
X11468143Y-17060000D01*
X11482428Y-17074286D01*
X11496714Y-17102857D01*
X11511000Y-17160000D01*
X11511000Y-17231429D01*
X11496714Y-17288572D01*
X11482428Y-17317143D01*
X11468143Y-17331429D01*
X11439571Y-17345714D01*
X11411000Y-17345714D01*
X11382428Y-17331429D01*
X11368143Y-17317143D01*
X11353857Y-17288572D01*
X11339571Y-17231429D01*
X11339571Y-17160000D01*
X11353857Y-17102857D01*
X11368143Y-17074286D01*
X11382428Y-17060000D01*
X11411000Y-17045714D01*
X11639571Y-17317143D02*
X11653857Y-17331429D01*
X11639571Y-17345714D01*
X11625286Y-17331429D01*
X11639571Y-17317143D01*
X11639571Y-17345714D01*
X11939571Y-17345714D02*
X11768143Y-17345714D01*
X11853857Y-17345714D02*
X11853857Y-17045714D01*
X11825286Y-17088572D01*
X11796714Y-17117143D01*
X11768143Y-17131429D01*
X12053857Y-17074286D02*
X12068143Y-17060000D01*
X12096714Y-17045714D01*
X12168143Y-17045714D01*
X12196714Y-17060000D01*
X12211000Y-17074286D01*
X12225286Y-17102857D01*
X12225286Y-17131429D01*
X12211000Y-17174286D01*
X12039571Y-17345714D01*
X12225286Y-17345714D01*
X12482428Y-17045714D02*
X12425286Y-17045714D01*
X12396714Y-17060000D01*
X12382428Y-17074286D01*
X12353857Y-17117143D01*
X12339571Y-17174286D01*
X12339571Y-17288572D01*
X12353857Y-17317143D01*
X12368143Y-17331429D01*
X12396714Y-17345714D01*
X12453857Y-17345714D01*
X12482428Y-17331429D01*
X12496714Y-17317143D01*
X12511000Y-17288572D01*
X12511000Y-17217143D01*
X12496714Y-17188572D01*
X12482428Y-17174286D01*
X12453857Y-17160000D01*
X12396714Y-17160000D01*
X12368143Y-17174286D01*
X12353857Y-17188572D01*
X12339571Y-17217143D01*
X12625286Y-17045714D02*
X12625286Y-17102857D01*
X12739571Y-17045714D02*
X12739571Y-17102857D01*
X13182428Y-17460000D02*
X13168143Y-17445714D01*
X13139571Y-17402857D01*
X13125286Y-17374286D01*
X13111000Y-17331429D01*
X13096714Y-17260000D01*
X13096714Y-17202857D01*
X13111000Y-17131429D01*
X13125286Y-17088572D01*
X13139571Y-17060000D01*
X13168143Y-17017143D01*
X13182428Y-17002857D01*
X13282428Y-17074286D02*
X13296714Y-17060000D01*
X13325286Y-17045714D01*
X13396714Y-17045714D01*
X13425286Y-17060000D01*
X13439571Y-17074286D01*
X13453857Y-17102857D01*
X13453857Y-17131429D01*
X13439571Y-17174286D01*
X13268143Y-17345714D01*
X13453857Y-17345714D01*
X13811000Y-17345714D02*
X13811000Y-17045714D01*
X13939571Y-17345714D02*
X13939571Y-17188572D01*
X13925286Y-17160000D01*
X13896714Y-17145714D01*
X13853857Y-17145714D01*
X13825286Y-17160000D01*
X13811000Y-17174286D01*
X14125286Y-17345714D02*
X14096714Y-17331429D01*
X14082428Y-17317143D01*
X14068143Y-17288572D01*
X14068143Y-17202857D01*
X14082428Y-17174286D01*
X14096714Y-17160000D01*
X14125286Y-17145714D01*
X14168143Y-17145714D01*
X14196714Y-17160000D01*
X14211000Y-17174286D01*
X14225286Y-17202857D01*
X14225286Y-17288572D01*
X14211000Y-17317143D01*
X14196714Y-17331429D01*
X14168143Y-17345714D01*
X14125286Y-17345714D01*
X14396714Y-17345714D02*
X14368143Y-17331429D01*
X14353857Y-17302857D01*
X14353857Y-17045714D01*
X14625286Y-17331429D02*
X14596714Y-17345714D01*
X14539571Y-17345714D01*
X14511000Y-17331429D01*
X14496714Y-17302857D01*
X14496714Y-17188572D01*
X14511000Y-17160000D01*
X14539571Y-17145714D01*
X14596714Y-17145714D01*
X14625286Y-17160000D01*
X14639571Y-17188572D01*
X14639571Y-17217143D01*
X14496714Y-17245714D01*
X14753857Y-17331429D02*
X14782428Y-17345714D01*
X14839571Y-17345714D01*
X14868143Y-17331429D01*
X14882428Y-17302857D01*
X14882428Y-17288572D01*
X14868143Y-17260000D01*
X14839571Y-17245714D01*
X14796714Y-17245714D01*
X14768143Y-17231429D01*
X14753857Y-17202857D01*
X14753857Y-17188572D01*
X14768143Y-17160000D01*
X14796714Y-17145714D01*
X14839571Y-17145714D01*
X14868143Y-17160000D01*
X14982428Y-17460000D02*
X14996714Y-17445714D01*
X15025286Y-17402857D01*
X15039571Y-17374286D01*
X15053857Y-17331429D01*
X15068143Y-17260000D01*
X15068143Y-17202857D01*
X15053857Y-17131429D01*
X15039571Y-17088572D01*
X15025286Y-17060000D01*
X14996714Y-17017143D01*
X14982428Y-17002857D01*
X15525286Y-17460000D02*
X15511000Y-17445714D01*
X15482428Y-17402857D01*
X15468143Y-17374286D01*
X15453857Y-17331429D01*
X15439571Y-17260000D01*
X15439571Y-17202857D01*
X15453857Y-17131429D01*
X15468143Y-17088572D01*
X15482428Y-17060000D01*
X15511000Y-17017143D01*
X15525286Y-17002857D01*
X15639571Y-17145714D02*
X15639571Y-17345714D01*
X15639571Y-17174286D02*
X15653857Y-17160000D01*
X15682428Y-17145714D01*
X15725286Y-17145714D01*
X15753857Y-17160000D01*
X15768143Y-17188572D01*
X15768143Y-17345714D01*
X15953857Y-17345714D02*
X15925286Y-17331429D01*
X15911000Y-17317143D01*
X15896714Y-17288572D01*
X15896714Y-17202857D01*
X15911000Y-17174286D01*
X15925286Y-17160000D01*
X15953857Y-17145714D01*
X15996714Y-17145714D01*
X16025286Y-17160000D01*
X16039571Y-17174286D01*
X16053857Y-17202857D01*
X16053857Y-17288572D01*
X16039571Y-17317143D01*
X16025286Y-17331429D01*
X15996714Y-17345714D01*
X15953857Y-17345714D01*
X16139571Y-17145714D02*
X16253857Y-17145714D01*
X16182428Y-17045714D02*
X16182428Y-17302857D01*
X16196714Y-17331429D01*
X16225286Y-17345714D01*
X16253857Y-17345714D01*
X16582428Y-17145714D02*
X16582428Y-17445714D01*
X16582428Y-17160000D02*
X16611000Y-17145714D01*
X16668143Y-17145714D01*
X16696714Y-17160000D01*
X16711000Y-17174286D01*
X16725286Y-17202857D01*
X16725286Y-17288572D01*
X16711000Y-17317143D01*
X16696714Y-17331429D01*
X16668143Y-17345714D01*
X16611000Y-17345714D01*
X16582428Y-17331429D01*
X16896714Y-17345714D02*
X16868143Y-17331429D01*
X16853857Y-17302857D01*
X16853857Y-17045714D01*
X17139571Y-17345714D02*
X17139571Y-17188572D01*
X17125286Y-17160000D01*
X17096714Y-17145714D01*
X17039571Y-17145714D01*
X17011000Y-17160000D01*
X17139571Y-17331429D02*
X17111000Y-17345714D01*
X17039571Y-17345714D01*
X17011000Y-17331429D01*
X16996714Y-17302857D01*
X16996714Y-17274286D01*
X17011000Y-17245714D01*
X17039571Y-17231429D01*
X17111000Y-17231429D01*
X17139571Y-17217143D01*
X17239571Y-17145714D02*
X17353857Y-17145714D01*
X17282428Y-17045714D02*
X17282428Y-17302857D01*
X17296714Y-17331429D01*
X17325286Y-17345714D01*
X17353857Y-17345714D01*
X17568143Y-17331429D02*
X17539571Y-17345714D01*
X17482428Y-17345714D01*
X17453857Y-17331429D01*
X17439571Y-17302857D01*
X17439571Y-17188572D01*
X17453857Y-17160000D01*
X17482428Y-17145714D01*
X17539571Y-17145714D01*
X17568143Y-17160000D01*
X17582428Y-17188572D01*
X17582428Y-17217143D01*
X17439571Y-17245714D01*
X17839571Y-17345714D02*
X17839571Y-17045714D01*
X17839571Y-17331429D02*
X17811000Y-17345714D01*
X17753857Y-17345714D01*
X17725286Y-17331429D01*
X17711000Y-17317143D01*
X17696714Y-17288572D01*
X17696714Y-17202857D01*
X17711000Y-17174286D01*
X17725286Y-17160000D01*
X17753857Y-17145714D01*
X17811000Y-17145714D01*
X17839571Y-17160000D01*
X17953857Y-17460000D02*
X17968143Y-17445714D01*
X17996714Y-17402857D01*
X18011000Y-17374286D01*
X18025286Y-17331429D01*
X18039571Y-17260000D01*
X18039571Y-17202857D01*
X18025286Y-17131429D01*
X18011000Y-17088572D01*
X17996714Y-17060000D01*
X17968143Y-17017143D01*
X17953857Y-17002857D01*
X8171000Y-17335000D02*
X8171000Y-17985000D01*
X7846000Y-17660000D02*
X8496000Y-17660000D01*
X8911000Y-17495714D02*
X8853857Y-17495714D01*
X8825286Y-17510000D01*
X8811000Y-17524286D01*
X8782428Y-17567143D01*
X8768143Y-17624286D01*
X8768143Y-17738572D01*
X8782428Y-17767143D01*
X8796714Y-17781429D01*
X8825286Y-17795714D01*
X8882428Y-17795714D01*
X8911000Y-17781429D01*
X8925286Y-17767143D01*
X8939571Y-17738572D01*
X8939571Y-17667143D01*
X8925286Y-17638572D01*
X8911000Y-17624286D01*
X8882428Y-17610000D01*
X8825286Y-17610000D01*
X8796714Y-17624286D01*
X8782428Y-17638572D01*
X8768143Y-17667143D01*
X9068143Y-17767143D02*
X9082428Y-17781429D01*
X9068143Y-17795714D01*
X9053857Y-17781429D01*
X9068143Y-17767143D01*
X9068143Y-17795714D01*
X9353857Y-17495714D02*
X9211000Y-17495714D01*
X9196714Y-17638572D01*
X9211000Y-17624286D01*
X9239571Y-17610000D01*
X9311000Y-17610000D01*
X9339571Y-17624286D01*
X9353857Y-17638572D01*
X9368143Y-17667143D01*
X9368143Y-17738572D01*
X9353857Y-17767143D01*
X9339571Y-17781429D01*
X9311000Y-17795714D01*
X9239571Y-17795714D01*
X9211000Y-17781429D01*
X9196714Y-17767143D01*
X9553857Y-17495714D02*
X9582428Y-17495714D01*
X9611000Y-17510000D01*
X9625286Y-17524286D01*
X9639571Y-17552857D01*
X9653857Y-17610000D01*
X9653857Y-17681429D01*
X9639571Y-17738572D01*
X9625286Y-17767143D01*
X9611000Y-17781429D01*
X9582428Y-17795714D01*
X9553857Y-17795714D01*
X9525286Y-17781429D01*
X9511000Y-17767143D01*
X9496714Y-17738572D01*
X9482428Y-17681429D01*
X9482428Y-17610000D01*
X9496714Y-17552857D01*
X9511000Y-17524286D01*
X9525286Y-17510000D01*
X9553857Y-17495714D01*
X9782428Y-17795714D02*
X9782428Y-17595714D01*
X9782428Y-17624286D02*
X9796714Y-17610000D01*
X9825286Y-17595714D01*
X9868143Y-17595714D01*
X9896714Y-17610000D01*
X9911000Y-17638572D01*
X9911000Y-17795714D01*
X9911000Y-17638572D02*
X9925286Y-17610000D01*
X9953857Y-17595714D01*
X9996714Y-17595714D01*
X10025286Y-17610000D01*
X10039571Y-17638572D01*
X10039571Y-17795714D01*
X10182428Y-17795714D02*
X10182428Y-17595714D01*
X10182428Y-17624286D02*
X10196714Y-17610000D01*
X10225286Y-17595714D01*
X10268143Y-17595714D01*
X10296714Y-17610000D01*
X10311000Y-17638572D01*
X10311000Y-17795714D01*
X10311000Y-17638572D02*
X10325286Y-17610000D01*
X10353857Y-17595714D01*
X10396714Y-17595714D01*
X10425286Y-17610000D01*
X10439571Y-17638572D01*
X10439571Y-17795714D01*
X11025286Y-17481429D02*
X10768143Y-17867143D01*
X11411000Y-17495714D02*
X11439571Y-17495714D01*
X11468143Y-17510000D01*
X11482428Y-17524286D01*
X11496714Y-17552857D01*
X11511000Y-17610000D01*
X11511000Y-17681429D01*
X11496714Y-17738572D01*
X11482428Y-17767143D01*
X11468143Y-17781429D01*
X11439571Y-17795714D01*
X11411000Y-17795714D01*
X11382428Y-17781429D01*
X11368143Y-17767143D01*
X11353857Y-17738572D01*
X11339571Y-17681429D01*
X11339571Y-17610000D01*
X11353857Y-17552857D01*
X11368143Y-17524286D01*
X11382428Y-17510000D01*
X11411000Y-17495714D01*
X11639571Y-17767143D02*
X11653857Y-17781429D01*
X11639571Y-17795714D01*
X11625286Y-17781429D01*
X11639571Y-17767143D01*
X11639571Y-17795714D01*
X11768143Y-17524286D02*
X11782428Y-17510000D01*
X11811000Y-17495714D01*
X11882428Y-17495714D01*
X11911000Y-17510000D01*
X11925286Y-17524286D01*
X11939571Y-17552857D01*
X11939571Y-17581429D01*
X11925286Y-17624286D01*
X11753857Y-17795714D01*
X11939571Y-17795714D01*
X12211000Y-17495714D02*
X12068143Y-17495714D01*
X12053857Y-17638572D01*
X12068143Y-17624286D01*
X12096714Y-17610000D01*
X12168143Y-17610000D01*
X12196714Y-17624286D01*
X12211000Y-17638572D01*
X12225286Y-17667143D01*
X12225286Y-17738572D01*
X12211000Y-17767143D01*
X12196714Y-17781429D01*
X12168143Y-17795714D01*
X12096714Y-17795714D01*
X12068143Y-17781429D01*
X12053857Y-17767143D01*
X12482428Y-17495714D02*
X12425286Y-17495714D01*
X12396714Y-17510000D01*
X12382428Y-17524286D01*
X12353857Y-17567143D01*
X12339571Y-17624286D01*
X12339571Y-17738572D01*
X12353857Y-17767143D01*
X12368143Y-17781429D01*
X12396714Y-17795714D01*
X12453857Y-17795714D01*
X12482428Y-17781429D01*
X12496714Y-17767143D01*
X12511000Y-17738572D01*
X12511000Y-17667143D01*
X12496714Y-17638572D01*
X12482428Y-17624286D01*
X12453857Y-17610000D01*
X12396714Y-17610000D01*
X12368143Y-17624286D01*
X12353857Y-17638572D01*
X12339571Y-17667143D01*
X12625286Y-17495714D02*
X12625286Y-17552857D01*
X12739571Y-17495714D02*
X12739571Y-17552857D01*
X13182428Y-17910000D02*
X13168143Y-17895714D01*
X13139571Y-17852857D01*
X13125286Y-17824286D01*
X13111000Y-17781429D01*
X13096714Y-17710000D01*
X13096714Y-17652857D01*
X13111000Y-17581429D01*
X13125286Y-17538572D01*
X13139571Y-17510000D01*
X13168143Y-17467143D01*
X13182428Y-17452857D01*
X13282428Y-17524286D02*
X13296714Y-17510000D01*
X13325286Y-17495714D01*
X13396714Y-17495714D01*
X13425286Y-17510000D01*
X13439571Y-17524286D01*
X13453857Y-17552857D01*
X13453857Y-17581429D01*
X13439571Y-17624286D01*
X13268143Y-17795714D01*
X13453857Y-17795714D01*
X13811000Y-17795714D02*
X13811000Y-17495714D01*
X13939571Y-17795714D02*
X13939571Y-17638572D01*
X13925286Y-17610000D01*
X13896714Y-17595714D01*
X13853857Y-17595714D01*
X13825286Y-17610000D01*
X13811000Y-17624286D01*
X14125286Y-17795714D02*
X14096714Y-17781429D01*
X14082428Y-17767143D01*
X14068143Y-17738572D01*
X14068143Y-17652857D01*
X14082428Y-17624286D01*
X14096714Y-17610000D01*
X14125286Y-17595714D01*
X14168143Y-17595714D01*
X14196714Y-17610000D01*
X14211000Y-17624286D01*
X14225286Y-17652857D01*
X14225286Y-17738572D01*
X14211000Y-17767143D01*
X14196714Y-17781429D01*
X14168143Y-17795714D01*
X14125286Y-17795714D01*
X14396714Y-17795714D02*
X14368143Y-17781429D01*
X14353857Y-17752857D01*
X14353857Y-17495714D01*
X14625286Y-17781429D02*
X14596714Y-17795714D01*
X14539571Y-17795714D01*
X14511000Y-17781429D01*
X14496714Y-17752857D01*
X14496714Y-17638572D01*
X14511000Y-17610000D01*
X14539571Y-17595714D01*
X14596714Y-17595714D01*
X14625286Y-17610000D01*
X14639571Y-17638572D01*
X14639571Y-17667143D01*
X14496714Y-17695714D01*
X14753857Y-17781429D02*
X14782428Y-17795714D01*
X14839571Y-17795714D01*
X14868143Y-17781429D01*
X14882428Y-17752857D01*
X14882428Y-17738572D01*
X14868143Y-17710000D01*
X14839571Y-17695714D01*
X14796714Y-17695714D01*
X14768143Y-17681429D01*
X14753857Y-17652857D01*
X14753857Y-17638572D01*
X14768143Y-17610000D01*
X14796714Y-17595714D01*
X14839571Y-17595714D01*
X14868143Y-17610000D01*
X14982428Y-17910000D02*
X14996714Y-17895714D01*
X15025286Y-17852857D01*
X15039571Y-17824286D01*
X15053857Y-17781429D01*
X15068143Y-17710000D01*
X15068143Y-17652857D01*
X15053857Y-17581429D01*
X15039571Y-17538572D01*
X15025286Y-17510000D01*
X14996714Y-17467143D01*
X14982428Y-17452857D01*
X15525286Y-17910000D02*
X15511000Y-17895714D01*
X15482428Y-17852857D01*
X15468143Y-17824286D01*
X15453857Y-17781429D01*
X15439571Y-17710000D01*
X15439571Y-17652857D01*
X15453857Y-17581429D01*
X15468143Y-17538572D01*
X15482428Y-17510000D01*
X15511000Y-17467143D01*
X15525286Y-17452857D01*
X15639571Y-17595714D02*
X15639571Y-17795714D01*
X15639571Y-17624286D02*
X15653857Y-17610000D01*
X15682428Y-17595714D01*
X15725286Y-17595714D01*
X15753857Y-17610000D01*
X15768143Y-17638572D01*
X15768143Y-17795714D01*
X15953857Y-17795714D02*
X15925286Y-17781429D01*
X15911000Y-17767143D01*
X15896714Y-17738572D01*
X15896714Y-17652857D01*
X15911000Y-17624286D01*
X15925286Y-17610000D01*
X15953857Y-17595714D01*
X15996714Y-17595714D01*
X16025286Y-17610000D01*
X16039571Y-17624286D01*
X16053857Y-17652857D01*
X16053857Y-17738572D01*
X16039571Y-17767143D01*
X16025286Y-17781429D01*
X15996714Y-17795714D01*
X15953857Y-17795714D01*
X16139571Y-17595714D02*
X16253857Y-17595714D01*
X16182428Y-17495714D02*
X16182428Y-17752857D01*
X16196714Y-17781429D01*
X16225286Y-17795714D01*
X16253857Y-17795714D01*
X16582428Y-17595714D02*
X16582428Y-17895714D01*
X16582428Y-17610000D02*
X16611000Y-17595714D01*
X16668143Y-17595714D01*
X16696714Y-17610000D01*
X16711000Y-17624286D01*
X16725286Y-17652857D01*
X16725286Y-17738572D01*
X16711000Y-17767143D01*
X16696714Y-17781429D01*
X16668143Y-17795714D01*
X16611000Y-17795714D01*
X16582428Y-17781429D01*
X16896714Y-17795714D02*
X16868143Y-17781429D01*
X16853857Y-17752857D01*
X16853857Y-17495714D01*
X17139571Y-17795714D02*
X17139571Y-17638572D01*
X17125286Y-17610000D01*
X17096714Y-17595714D01*
X17039571Y-17595714D01*
X17011000Y-17610000D01*
X17139571Y-17781429D02*
X17111000Y-17795714D01*
X17039571Y-17795714D01*
X17011000Y-17781429D01*
X16996714Y-17752857D01*
X16996714Y-17724286D01*
X17011000Y-17695714D01*
X17039571Y-17681429D01*
X17111000Y-17681429D01*
X17139571Y-17667143D01*
X17239571Y-17595714D02*
X17353857Y-17595714D01*
X17282428Y-17495714D02*
X17282428Y-17752857D01*
X17296714Y-17781429D01*
X17325286Y-17795714D01*
X17353857Y-17795714D01*
X17568143Y-17781429D02*
X17539571Y-17795714D01*
X17482428Y-17795714D01*
X17453857Y-17781429D01*
X17439571Y-17752857D01*
X17439571Y-17638572D01*
X17453857Y-17610000D01*
X17482428Y-17595714D01*
X17539571Y-17595714D01*
X17568143Y-17610000D01*
X17582428Y-17638572D01*
X17582428Y-17667143D01*
X17439571Y-17695714D01*
X17839571Y-17795714D02*
X17839571Y-17495714D01*
X17839571Y-17781429D02*
X17811000Y-17795714D01*
X17753857Y-17795714D01*
X17725286Y-17781429D01*
X17711000Y-17767143D01*
X17696714Y-17738572D01*
X17696714Y-17652857D01*
X17711000Y-17624286D01*
X17725286Y-17610000D01*
X17753857Y-17595714D01*
X17811000Y-17595714D01*
X17839571Y-17610000D01*
X17953857Y-17910000D02*
X17968143Y-17895714D01*
X17996714Y-17852857D01*
X18011000Y-17824286D01*
X18025286Y-17781429D01*
X18039571Y-17710000D01*
X18039571Y-17652857D01*
X18025286Y-17581429D01*
X18011000Y-17538572D01*
X17996714Y-17510000D01*
X17968143Y-17467143D01*
X17953857Y-17452857D01*
M02*
