M48
;DRILL file {KiCad (5.0.0-rc2-dev-444-g2974a2c10)} date 11/01/19 17:22:59
;FORMAT={-:-/ absolute / inch / decimal}
FMAT,2
INCH,TZ
T1C0.0130
T2C0.1260
T3C0.2559
%
G90
G05
M72
T1
X3.4154Y-1.6157
X3.4154Y-5.8157
X3.4252Y-2.2736
X3.4724Y-3.437
X3.4881Y-3.1654
X3.4882Y-4.1417
X3.5138Y-2.7461
X3.52Y-3.3
X3.5551Y-3.5394
X3.5591Y-3.6575
X3.563Y-3.8287
X3.57Y-4.035
X3.5906Y-3.9094
X3.5945Y-3.1654
X3.622Y-3.7697
X3.6339Y-4.3465
X3.6417Y-2.8445
X3.6417Y-3.878
X3.6417Y-3.9961
X3.6614Y-3.7303
X3.6811Y-3.1654
X3.6969Y-3.9094
X3.7008Y-4.1417
X3.7402Y-3.3661
X3.7402Y-3.5394
X3.7598Y-3.1654
X3.7598Y-4.0748
X3.7697Y-2.7461
X3.8071Y-4.1417
X3.815Y-4.0709
X3.8681Y-3.2382
X3.8681Y-4.0748
X3.878Y-1.6157
X3.878Y-5.8157
T2
X3.6417Y-6.122
X3.6417Y-1.2992
T3
X3.6417Y-5.
X3.6417Y-5.5315
T0
M30
